G04 start of page 3 for group 1 idx 1 *
G04 Title: (unknown), solder *
G04 Creator: pcb 20110918 *
G04 CreationDate: Tue 11 Feb 2014 15:56:39 GMT UTC *
G04 For: russells *
G04 Format: Gerber/RS-274X *
G04 PCB-Dimensions: 314961 236220 *
G04 PCB-Coordinate-Origin: lower left *
%MOIN*%
%FSLAX25Y25*%
%LNSOL*%
%ADD50C,0.0200*%
%ADD49C,0.0420*%
%ADD48C,0.0380*%
%ADD47C,0.0560*%
%ADD46C,0.0290*%
%ADD45C,0.1299*%
%ADD44C,0.0118*%
%ADD43C,0.2362*%
%ADD42C,0.0276*%
%ADD41R,0.0110X0.0110*%
%ADD40R,0.2200X0.2200*%
%ADD39R,0.0512X0.0512*%
%ADD38C,0.0360*%
%ADD37C,0.0720*%
%ADD36C,0.1200*%
%ADD35C,0.0500*%
%ADD34C,0.0600*%
%ADD33C,0.0001*%
%ADD32C,0.0250*%
%ADD31C,0.0079*%
%ADD30C,0.0079*%
G54D30*X94882Y168110D02*Y135433D01*
X92913Y161417D02*Y130315D01*
X84252Y146456D02*X89764Y146457D01*
X90945Y145276D01*
X74016Y146457D02*X84646Y146456D01*
X84252D02*Y156693D01*
X74016Y163780D02*X90551Y163779D01*
X92913Y161417D01*
G54D31*X98819Y175197D02*X62598D01*
G54D30*X94882Y135433D02*X98425Y131890D01*
X84252Y139370D02*Y129134D01*
X92913Y130315D02*X95275Y127953D01*
X90945Y127559D02*X92520Y125984D01*
X84645Y129134D02*X86614D01*
X91732Y124016D01*
X90945Y145276D02*Y127559D01*
G54D32*X46063Y140944D02*X50787D01*
G54D31*X62598Y175197D02*X16535Y129133D01*
G54D32*X46063Y130708D02*X49213Y127559D01*
G54D30*X98425Y131890D02*X118898D01*
X95275Y127953D02*X107480D01*
X92520Y125984D02*X107480D01*
X84252Y122048D02*X107480Y122047D01*
G54D31*Y129921D02*X116142D01*
X121260Y124803D01*
X107480Y120079D02*X93307D01*
X107480Y135827D02*X124015D01*
X125984Y133858D02*Y109842D01*
X124015Y135827D02*X125984Y133858D01*
Y109842D02*X127559Y108268D01*
X135433Y110236D02*X133464Y112205D01*
X133465Y112204D02*Y140157D01*
X114567Y182677D02*X122441D01*
X132283Y168504D02*Y164173D01*
X148031Y173622D02*Y168504D01*
X146063Y161024D02*Y168504D01*
X134252D02*Y161417D01*
X136220Y168504D02*Y159842D01*
X144094Y168504D02*Y159055D01*
X150000Y168504D02*Y162992D01*
X151968Y168504D02*Y163779D01*
X150000Y162992D02*X151181Y161811D01*
X100394Y173622D02*X98819Y175197D01*
X107480Y159448D02*X101575D01*
X133464Y140157D02*X148031Y154724D01*
X134252Y161417D02*X131495Y158661D01*
X128740Y152362D02*X136220Y159842D01*
X127559Y147244D02*X138189Y157874D01*
X148031Y154724D02*Y159055D01*
X146063Y161024D01*
X151181Y161811D02*Y157874D01*
X142126Y157087D02*X144094Y159055D01*
G54D32*X150000Y151574D02*Y134251D01*
X153937Y129133D02*Y146850D01*
X154724Y147637D01*
X158267D01*
G54D31*X248425Y183071D02*X253150Y178346D01*
X240945Y159449D02*X241338Y159842D01*
Y172835D01*
X236614Y177559D01*
X240551D02*Y182677D01*
X250000Y174016D02*X244488Y179528D01*
X253150Y178346D02*Y113779D01*
X256299Y216142D02*Y151968D01*
X250000Y140157D02*Y174016D01*
X240551Y177559D02*X244882Y173228D01*
X236614Y177559D02*Y187008D01*
X234252Y189370D01*
X244488Y179528D02*Y187402D01*
X242520Y191732D02*X249213Y198425D01*
Y207085D01*
X243700Y212598D01*
X231496Y198425D02*Y207480D01*
X236614Y212598D01*
X238583Y128347D02*Y167323D01*
X234646Y129921D02*Y176772D01*
X231496Y173622D02*Y135433D01*
X232677Y178740D02*X234646Y176772D01*
X244882Y173228D02*Y110630D01*
X227559Y131102D02*Y180315D01*
X223622Y128740D02*Y176378D01*
X219685Y125984D02*Y172047D01*
X215748Y123228D02*Y168110D01*
X211811Y119291D02*Y164173D01*
X207874Y119291D02*Y160630D01*
X199213Y161024D02*Y121653D01*
X283465Y181889D02*X288583Y176771D01*
X298425D01*
X300787Y174409D01*
Y124803D01*
X276772Y161811D02*X283465Y161810D01*
X274803Y170472D02*Y163779D01*
X276771Y161811D01*
X179134Y173622D02*X186614Y166142D01*
Y158661D01*
G54D30*X172834Y159449D02*Y166535D01*
G54D31*X201181Y182677D02*X215748Y168110D01*
X193307Y182677D02*X211811Y164173D01*
X207874Y160630D02*X185433Y183071D01*
X177559Y182677D02*X199213Y161023D01*
G54D30*X161811Y173622D02*X179134D01*
G54D32*X159842Y155118D02*Y159449D01*
X163779Y153149D02*Y159449D01*
G54D31*X161811Y161417D02*X159842Y159449D01*
Y168110D02*Y159449D01*
X163779Y168110D02*Y159449D01*
X172835D02*X163779D01*
X161811Y173622D02*Y161417D01*
G54D32*X150000Y151574D02*X156299D01*
X159842Y155118D01*
X158267Y147637D02*X163779Y153149D01*
G54D31*X172834Y147638D02*X163780Y147637D01*
X160630Y144487D01*
X183858Y147637D02*X181890Y145669D01*
G54D30*X153937Y174016D02*Y168504D01*
X155905Y175591D02*Y168504D01*
G54D31*X138189D02*Y157874D01*
X153937Y174016D02*X150787Y177165D01*
X151968Y163779D02*X155118Y160630D01*
Y157874D01*
G54D30*X152756Y178740D02*X155905Y175591D01*
G54D31*X124016Y189370D02*X152362D01*
X168504D02*X161811Y182677D01*
X153937D02*Y187795D01*
X152362Y189370D01*
X122441Y182677D02*Y187795D01*
X121654Y198425D02*Y207480D01*
X126772Y212598D01*
X122441Y187795D02*X124016Y189370D01*
X146063Y191732D02*X187402D01*
X139370Y198425D02*Y207086D01*
X133858Y212598D01*
X234252Y189370D02*X168504D01*
X227559Y180315D02*X224803Y183071D01*
X223622Y176378D02*X216929Y183071D01*
X232677Y182677D02*Y178740D01*
X200787Y191732D02*X242520D01*
X219685Y172047D02*X209055Y182677D01*
X187402Y191732D02*X194094Y198425D01*
X200787Y191732D01*
X194094Y198425D02*Y207086D01*
X188582Y212598D01*
X176378Y198425D02*Y207480D01*
X181496Y212598D01*
X13780Y188583D02*X10236Y185040D01*
X18898Y162047D02*X10472D01*
X10236Y161811D01*
Y185040D02*Y161811D01*
G54D30*X67716Y170079D02*X68504Y170866D01*
G54D31*X13780Y188582D02*X74409D01*
X84252Y198425D02*X74409Y188582D01*
X84252Y198425D02*X90945Y191732D01*
X84252Y198425D02*Y207086D01*
X78740Y212598D01*
X66536Y207480D02*X71654Y212598D01*
X66536Y198425D02*Y207480D01*
G54D30*X68504Y170866D02*X74016Y170867D01*
X92126Y170866D02*X94882Y168110D01*
G54D31*X152756Y178740D02*X25591D01*
X59449Y177165D02*X57480Y175196D01*
X25591Y178741D02*X18897Y172047D01*
X90945Y191732D02*X132677D01*
X139370Y198425D01*
X146063Y191732D01*
X150787Y177165D02*X59449D01*
X74016Y170866D02*X92126D01*
X110630Y170472D02*Y165748D01*
X100394Y160629D02*Y173622D01*
G54D30*X132283Y82677D02*X122441Y72835D01*
X128740Y83465D02*X125197D01*
X114567Y72835D01*
X126772Y85433D02*X119291D01*
X130315Y102362D02*Y85039D01*
X128346Y102362D02*Y87008D01*
X126378Y102362D02*Y88976D01*
X130315Y85039D02*X128740Y83465D01*
X128346Y87008D02*X126772Y85433D01*
X126378Y88976D02*X124803Y87402D01*
X119291Y85433D02*X106693Y72835D01*
X124803Y87402D02*X113386D01*
X98819Y72835D01*
X123228Y89370D02*X107480D01*
X124409Y102362D02*Y90551D01*
X123228Y89370D01*
X122441Y102362D02*Y92520D01*
X121260Y91339D01*
X120472Y102362D02*Y94488D01*
X119291Y93307D01*
X118504Y102362D02*Y96850D01*
X116929Y95276D01*
G54D31*X112992Y102756D02*X116535D01*
G54D30*X121260Y91339D02*X101575D01*
X119291Y93307D02*X95669D01*
X107480Y89370D02*X90945Y72835D01*
X101575Y91339D02*X83071Y72835D01*
X95669Y93307D02*X75197Y72835D01*
X116929Y95276D02*X89764D01*
X67323Y72835D01*
G54D32*X28346Y59055D02*X28345Y59056D01*
X28346Y51968D02*Y40551D01*
X31890Y37007D01*
X49211D01*
X49212Y37008D01*
X28345Y59056D02*Y77559D01*
G54D31*X16536Y58267D02*X16535Y129133D01*
G54D30*X73228Y118897D02*X68504D01*
X74016Y111812D02*X84252Y111811D01*
X68504Y104724D02*X84252Y104725D01*
X68504Y118897D02*X67716Y119685D01*
Y135433D01*
X68504Y136220D01*
X73228D01*
X68504D02*X67716Y137008D01*
X68504Y118897D02*X67716Y118110D01*
X84252Y122048D02*Y111811D01*
X74016Y129134D02*X84252D01*
X67716Y137008D02*Y152756D01*
Y154330D02*Y170079D01*
Y118110D02*Y105512D01*
X68504Y104724D01*
X67716Y152756D02*X68504Y153543D01*
X74016D01*
X68504D02*X67716Y154330D01*
G54D32*X49213Y29133D02*Y127165D01*
X50787Y140944D02*X55512Y136220D01*
Y87007D01*
G54D31*X132283Y164173D02*X130315Y162205D01*
X131496Y158661D02*X115748D01*
X110630Y165748D02*X114173Y162205D01*
X130315D01*
X121260Y129528D02*X118898Y131890D01*
X121653Y152362D02*X128740D01*
X121653Y147244D02*X127559D01*
X101575Y159448D02*X100394Y160629D01*
G54D30*X91732Y124016D02*X107480D01*
G54D31*X93307Y120079D02*X91338Y118110D01*
X95669D02*X94094Y116535D01*
X98031Y116142D02*X96457Y114567D01*
X91338Y118110D02*Y103150D01*
X94094Y116535D02*Y105118D01*
X96063Y103150D01*
X107480Y118110D02*X95669D01*
X107480Y116142D02*X98031D01*
X107480Y112205D02*X115748D01*
X107480Y114173D02*X103150D01*
X96457Y114567D02*Y107480D01*
X100787Y103150D01*
X103150Y114173D02*X100394Y111417D01*
G54D30*X140157Y102362D02*Y81890D01*
X136220Y102362D02*Y79134D01*
X134252Y102362D02*Y76772D01*
G54D31*X138189Y102362D02*Y80709D01*
Y77165D02*X136220Y79134D01*
G54D30*X142126Y102362D02*Y83071D01*
G54D31*X144094Y102362D02*Y84252D01*
X146063Y102362D02*Y85039D01*
X142126Y83071D02*X146457Y78740D01*
X144094Y84252D02*X147638Y80709D01*
X146063Y85039D02*X148425Y82677D01*
X148031Y86614D02*X150000Y84646D01*
G54D30*X132283Y102362D02*Y82677D01*
X150000Y76772D02*X153937Y72835D01*
X134252Y76772D02*X130315Y72835D01*
G54D31*X138189Y80709D02*X146063Y72835D01*
X138189D02*Y77165D01*
X140157Y81890D02*X145275Y76772D01*
X150000D01*
X146457Y78740D02*X155905D01*
X147638Y80709D02*X161811D01*
X148425Y82677D02*X167716D01*
X150000Y84646D02*X173622D01*
X155905Y78740D02*X161811Y72835D01*
Y80709D02*X169685Y72835D01*
X167716Y82677D02*X177559Y72835D01*
X127559Y108268D02*X172441D01*
X148031Y102362D02*Y86614D01*
X150000Y102362D02*Y88583D01*
X151968Y86614D01*
Y102362D02*Y90157D01*
X153543Y88583D01*
X153937Y92520D02*X155905Y90551D01*
Y94094D02*X157480Y92520D01*
X153937Y102362D02*Y92520D01*
X155905Y102362D02*Y94094D01*
X157874Y102362D02*Y96063D01*
X159449Y94488D01*
X159842Y102362D02*Y98031D01*
X161417Y96457D01*
X161811Y102362D02*Y100000D01*
X163386Y98425D01*
X174409Y100787D02*X172441Y102756D01*
X163779D01*
X253150Y113779D02*X246457Y107087D01*
X243307Y109055D02*X244882Y110630D01*
G54D30*X220472Y100787D02*X248425Y72835D01*
G54D31*X252362Y101181D02*Y81496D01*
X250394Y103150D02*X252362Y101181D01*
X209055Y96457D02*X232677Y72835D01*
X214961Y98425D02*X240551Y72835D01*
X268504Y65354D02*X252362Y81496D01*
G54D32*X264174Y15354D02*Y20866D01*
X268111Y15354D02*Y20866D01*
X264174Y15354D02*X268111D01*
X266142Y16929D02*Y20866D01*
G54D30*X172835Y143701D02*X181890D01*
Y145669D02*X172835D01*
G54D31*X183858Y141732D02*X181890Y143701D01*
X172835Y127953D02*X160630D01*
X172834Y137795D02*X160630D01*
X172715Y131889D02*X164961D01*
X172716Y135827D02*X161418D01*
X163780Y130708D02*X164961Y131889D01*
X161024Y133858D02*X172715D01*
X160630Y127953D02*X159449Y126772D01*
X160630Y137795D02*X158661Y139763D01*
X161418Y135827D02*X158268Y135826D01*
X161024Y133858D02*X158268Y131102D01*
X172835Y129921D02*X177166D01*
X178346Y128740D01*
X172716Y131890D02*X172715Y131889D01*
Y133858D02*X172716Y133859D01*
X177166Y129921D03*
X173622Y84646D02*X185433Y72835D01*
X151968Y86614D02*X179527D01*
X153543Y88583D02*X185433D01*
X155905Y90551D02*X191338D01*
X157480Y92520D02*X197244D01*
X159449Y94488D02*X203150D01*
X179527Y86614D02*X193307Y72835D01*
X185433Y88583D02*X201181Y72835D01*
X191338Y90551D02*X209055Y72835D01*
X197244Y92520D02*X216929Y72835D01*
X203150Y94488D02*X224803Y72835D01*
X161417Y96457D02*X209055D01*
X163386Y98425D02*X214961D01*
G54D30*X174409Y100787D02*X220472D01*
G54D31*X177559Y103150D02*X250394D01*
X180709Y105118D02*X255512D01*
X183858Y107087D02*X246457D01*
X187008Y109055D02*X243307D01*
X259055Y108661D02*X255512Y105118D01*
X175590Y110236D02*X180709Y105118D01*
X178740Y112205D02*X183858Y107087D01*
X181890Y114173D02*X187008Y109055D01*
X178346Y128740D02*Y120472D01*
X179528Y119291D01*
X187402D01*
X238583Y128347D02*X238582Y128346D01*
X231890Y126772D02*X227559Y131102D01*
X228346Y124016D02*X223622Y128740D01*
X224803Y120866D02*X219685Y125984D01*
X221260Y117716D02*X215748Y123228D01*
X211024Y112205D02*Y116142D01*
X207874Y119291D01*
X216142Y114961D02*X211811Y119291D01*
X259055Y116929D02*Y108661D01*
X167717Y116142D02*X193701D01*
X199213Y121653D01*
X300787Y124803D02*X297244Y121259D01*
X263386D01*
X259055Y116929D01*
X172835Y125984D02*X162992D01*
X172835Y124016D02*X163386D01*
X172835Y122047D02*X164173D01*
X172835Y120079D02*X164567D01*
X172835Y118110D02*X165355D01*
X162992Y125984D02*X161024Y124016D01*
X163386D02*X160630Y121260D01*
X164173Y122047D02*X160630Y118504D01*
X164567Y120079D02*X160236Y115748D01*
X165355Y118110D02*X160236Y112992D01*
X161024Y124016D02*X155512D01*
X160630Y121260D02*X151575D01*
X160630Y118504D02*X147638D01*
X160236Y115748D02*X143701D01*
X160236Y112992D02*X139764D01*
X175590Y110236D02*X135433D01*
X172441Y112205D02*X178740D01*
X172441Y108268D02*X177559Y103150D01*
X172441Y114173D02*X181890D01*
G54D33*G36*
X136370Y201425D02*Y195425D01*
X142370D01*
Y201425D01*
X136370D01*
G37*
G36*
Y227016D02*Y221016D01*
X142370D01*
Y227016D01*
X136370D01*
G37*
G54D34*X121654Y198425D03*
Y224016D03*
G54D33*G36*
X81252Y201425D02*Y195425D01*
X87252D01*
Y201425D01*
X81252D01*
G37*
G36*
Y227016D02*Y221016D01*
X87252D01*
Y227016D01*
X81252D01*
G37*
G54D34*X66536Y198425D03*
Y224016D03*
X176378Y198425D03*
Y224016D03*
G54D33*G36*
X64823Y75335D02*Y70335D01*
X69823D01*
Y75335D01*
X64823D01*
G37*
G54D35*X75197Y72835D03*
X83071D03*
X90945D03*
X98819D03*
X106693D03*
X114567D03*
X122441D03*
G54D33*G36*
X22345Y83559D02*Y71559D01*
X34345D01*
Y83559D01*
X22345D01*
G37*
G54D36*X28345Y97244D03*
G54D33*G36*
X43292Y133673D02*Y127673D01*
X49292D01*
Y133673D01*
X43292D01*
G37*
G54D34*X46292Y140673D03*
G54D35*X161811Y182835D03*
X153937D03*
X146063D03*
X138189D03*
X130315D03*
X122441D03*
X114567D03*
X106693D03*
X98819D03*
X90945D03*
X83071D03*
X75197D03*
X67323D03*
G54D33*G36*
X15298Y185647D02*Y178447D01*
X22498D01*
Y185647D01*
X15298D01*
G37*
G54D37*X18898Y172047D03*
Y162047D03*
G54D33*G36*
X191094Y201425D02*Y195425D01*
X197094D01*
Y201425D01*
X191094D01*
G37*
G54D34*X231497Y198425D03*
G54D33*G36*
X191094Y227016D02*Y221016D01*
X197094D01*
Y227016D01*
X191094D01*
G37*
G36*
X246213D02*Y221016D01*
X252213D01*
Y227016D01*
X246213D01*
G37*
G54D34*X231497Y224016D03*
G54D33*G36*
X246213Y201425D02*Y195425D01*
X252213D01*
Y201425D01*
X246213D01*
G37*
G54D35*X248425Y182835D03*
X240551D03*
X232677D03*
X130315Y72835D03*
X138189D03*
X146063D03*
X153937D03*
X161811D03*
X169685D03*
X177559D03*
X185433D03*
X193307D03*
X201181D03*
X209055D03*
X216929D03*
X224803D03*
X232677D03*
X240551D03*
X248425D03*
G54D34*X283465Y171732D03*
G54D33*G36*
X260780Y158905D02*Y152905D01*
X266780D01*
Y158905D01*
X260780D01*
G37*
G54D34*X293465Y171732D03*
Y161732D03*
Y151732D03*
Y141732D03*
Y131732D03*
X283465Y161732D03*
Y151732D03*
Y141732D03*
Y131732D03*
G54D33*G36*
X280465Y194732D02*Y188732D01*
X286465D01*
Y194732D01*
X280465D01*
G37*
G54D34*X293465Y191732D03*
X283465Y181732D03*
X293465D03*
G54D33*G36*
X265504Y108511D02*Y102511D01*
X271504D01*
Y108511D01*
X265504D01*
G37*
G54D34*X263780Y130314D03*
X268504Y95511D03*
Y85511D03*
Y75511D03*
Y65511D03*
Y55511D03*
G54D35*X224803Y182835D03*
X216929D03*
X209055D03*
X201181D03*
X193307D03*
X185433D03*
X177559D03*
X169685D03*
G54D38*X183858Y141732D03*
Y147732D03*
X203858Y138732D03*
Y150732D03*
G54D39*X126772Y212991D02*Y212205D01*
X133858Y212991D02*Y212205D01*
X181496Y212991D02*Y212205D01*
X188582Y212991D02*Y212205D01*
X236614Y212991D02*Y212205D01*
X243700Y212991D02*Y212205D01*
X71654Y212991D02*Y212205D01*
X78740Y212991D02*Y212205D01*
X27953Y59054D02*X28739D01*
X27953Y51968D02*X28739D01*
G54D40*X46712Y29134D02*X51712D01*
G54D39*X73623Y129134D02*X74409D01*
X73623Y163780D02*X74409D01*
X73623Y170866D02*X74409D01*
X83859Y163779D02*X84645D01*
X73623Y146457D02*X74409D01*
X73623Y153543D02*X74409D01*
X73623Y136220D02*X74409D01*
X83859Y156693D02*X84645D01*
X83859Y146456D02*X84645D01*
X83859Y139370D02*X84645D01*
X83859Y129134D02*X84645D01*
G54D41*X105149Y127953D02*X110047D01*
X105149Y129921D02*X110047D01*
X105149Y131890D02*X110047D01*
X105149Y133858D02*X110047D01*
G54D39*X73623Y111812D02*X74409D01*
X73623Y118898D02*X74409D01*
X83859Y111811D02*X84645D01*
X83859Y104725D02*X84645D01*
X83859Y122048D02*X84645D01*
G54D41*X146063Y105717D02*Y100819D01*
X144094Y105717D02*Y100819D01*
X142126Y105717D02*Y100819D01*
X140157Y105717D02*Y100819D01*
X138189Y105717D02*Y100819D01*
X136220Y105717D02*Y100819D01*
X134252Y105717D02*Y100819D01*
X132283Y105717D02*Y100819D01*
X130315Y105717D02*Y100819D01*
X128346Y105717D02*Y100819D01*
X126378Y105717D02*Y100819D01*
X124409Y105717D02*Y100819D01*
X122441Y105717D02*Y100819D01*
X120472Y105717D02*Y100819D01*
X118504Y105717D02*Y100819D01*
X116535Y105717D02*Y100819D01*
X105149Y112205D02*X110047D01*
X105149Y114173D02*X110047D01*
X105149Y116142D02*X110047D01*
X105149Y118110D02*X110047D01*
X105149Y120079D02*X110047D01*
X105149Y122047D02*X110047D01*
X105149Y124016D02*X110047D01*
X105149Y125984D02*X110047D01*
G54D40*X263812Y29134D02*X268812D01*
G54D41*X170267Y131890D02*X175165D01*
X170267Y129922D02*X175165D01*
X170267Y127953D02*X175165D01*
X170267Y125985D02*X175165D01*
X170267Y124016D02*X175165D01*
X170267Y122048D02*X175165D01*
X170267Y120079D02*X175165D01*
X170267Y118111D02*X175165D01*
X170267Y116142D02*X175165D01*
X170267Y114174D02*X175165D01*
X170267Y112205D02*X175165D01*
X163779Y105717D02*Y100819D01*
X161811Y105717D02*Y100819D01*
X159842Y105717D02*Y100819D01*
X157874Y105717D02*Y100819D01*
X155905Y105717D02*Y100819D01*
X153937Y105717D02*Y100819D01*
X151968Y105717D02*Y100819D01*
X150000Y105717D02*Y100819D01*
X148031Y105717D02*Y100819D01*
G54D39*X173622Y166536D02*X174408D01*
X173622Y173622D02*X174408D01*
G54D41*X170267Y159449D02*X175165D01*
X170267Y157481D02*X175165D01*
X170267Y155512D02*X175165D01*
X170267Y153544D02*X175165D01*
X170267Y151575D02*X175165D01*
X170267Y149607D02*X175165D01*
X170267Y147638D02*X175165D01*
X170267Y145670D02*X175165D01*
X170267Y143701D02*X175165D01*
X170267Y141733D02*X175165D01*
X170267Y139764D02*X175165D01*
X170267Y137796D02*X175165D01*
X170267Y135827D02*X175165D01*
X170267Y133859D02*X175165D01*
X105149Y135827D02*X110047D01*
X105149Y137795D02*X110047D01*
X105149Y139764D02*X110047D01*
X105149Y141732D02*X110047D01*
X105149Y143701D02*X110047D01*
X105149Y145669D02*X110047D01*
X105149Y147638D02*X110047D01*
X105149Y149606D02*X110047D01*
X105149Y151575D02*X110047D01*
X105149Y153543D02*X110047D01*
X105149Y155512D02*X110047D01*
X105149Y157480D02*X110047D01*
X105149Y159449D02*X110047D01*
X116535Y170835D02*Y165937D01*
X118503Y170835D02*Y165937D01*
X120472Y170835D02*Y165937D01*
X122440Y170835D02*Y165937D01*
X124409Y170835D02*Y165937D01*
X126377Y170835D02*Y165937D01*
X128346Y170835D02*Y165937D01*
X130314Y170835D02*Y165937D01*
X132283Y170835D02*Y165937D01*
X134251Y170835D02*Y165937D01*
X136220Y170835D02*Y165937D01*
X138188Y170835D02*Y165937D01*
X140157Y170835D02*Y165937D01*
X142125Y170835D02*Y165937D01*
X144094Y170835D02*Y165937D01*
X146062Y170835D02*Y165937D01*
X148031Y170835D02*Y165937D01*
X149999Y170835D02*Y165937D01*
X151968Y170835D02*Y165937D01*
X153936Y170835D02*Y165937D01*
X155905Y170835D02*Y165937D01*
X157873Y170835D02*Y165937D01*
X159842Y170835D02*Y165937D01*
X161810Y170835D02*Y165937D01*
X163779Y170835D02*Y165937D01*
G54D42*X115748Y158661D03*
X159842Y159449D03*
X142126Y157087D03*
X155118Y157874D03*
X151181D03*
X150000Y151574D03*
X148031Y173622D03*
X110630Y170472D03*
X161811Y173622D03*
X163779Y159449D03*
X186614Y158661D03*
X121260Y129528D03*
Y124803D03*
X100394Y111417D03*
X112992Y102756D03*
X100787Y103150D03*
X96063D03*
X91338D03*
X55512Y87007D03*
X121653Y152362D03*
X57480Y175197D03*
X121653Y147244D03*
X115748Y112205D03*
G54D43*X19685Y19685D03*
Y216535D03*
G54D42*X10236Y161811D03*
X16536Y58267D03*
X238582Y128346D03*
X238583Y144882D03*
X231496Y135433D03*
X235039Y129921D03*
X231890Y126772D03*
X250000Y140157D03*
X256299Y151968D03*
Y216142D03*
G54D43*X295276Y216535D03*
G54D42*X274803Y170472D03*
X231496Y173622D03*
X238583Y167716D03*
X241338Y159449D03*
X244488Y187402D03*
X228346Y124016D03*
G54D43*X295276Y19685D03*
G54D42*X268111Y15354D03*
X264174D03*
X224803Y120866D03*
X221260Y117716D03*
X216142Y114961D03*
X211024Y112205D03*
X187402Y119291D03*
X188976Y130708D03*
X160630Y144488D03*
X150000Y134251D03*
X158268Y135826D03*
X158661Y139763D03*
X153937Y129133D03*
X159449Y126772D03*
X155512Y124016D03*
X151575Y121260D03*
X163780Y130708D03*
X158268Y131102D03*
X147638Y118504D03*
X143701Y115748D03*
X139764Y112992D03*
G54D44*G54D45*G54D44*G54D45*G54D44*G54D45*G54D44*G54D46*G54D47*G54D48*G54D46*G54D49*G54D46*G54D48*G54D46*G54D48*G54D46*G54D48*G54D46*G54D50*M02*
