M48
INCH
T57C0.130
T56C0.012
T55C0.020
T54C0.042
T53C0.038
T52C0.056
T51C0.029
%
T56
X011575Y015866
X015984Y015945
X014213Y015709
X015512Y015787
X015118Y015787
X015000Y015157
X014803Y017362
X011063Y017047
X016181Y017362
X016378Y015945
X018661Y015866
X012126Y012953
X012126Y012480
X010039Y011142
X011299Y010276
X010079Y010315
X009606Y010315
X009134Y010315
X005551Y008701
X012165Y015236
X005748Y017520
X012165Y014724
X011575Y011220
X001024Y016181
X001654Y005827
X023858Y012835
X023858Y014488
X023150Y013543
X023504Y012992
X023189Y012677
X025000Y014016
X025630Y015197
X025630Y021614
X027480Y017047
X023150Y017362
X023858Y016772
X024134Y015945
X024449Y018740
X022835Y012402
X026811Y001535
X026417Y001535
X022480Y012087
X022126Y011772
X021614Y011496
X021102Y011220
X018740Y011929
X018898Y013071
X016063Y014449
X015000Y013425
X015827Y013583
X015866Y013976
X015394Y012913
X015945Y012677
X015551Y012402
X015158Y012126
X016378Y013071
X015827Y013110
X014764Y011850
X014370Y011575
X013976Y011299
T55
X018386Y014173
X018386Y014773
X020386Y013873
X020386Y015073
T51
X013937Y019842
X013937Y022402
X012165Y019842
X012165Y022402
X008425Y019842
X008425Y022402
X006654Y019842
X006654Y022402
X017638Y019842
X017638Y022402
X006732Y007284
X007520Y007284
X008307Y007284
X009094Y007284
X009882Y007284
X010669Y007284
X011457Y007284
X012244Y007284
X016181Y018284
X015394Y018284
X014606Y018284
X013819Y018284
X013032Y018284
X012244Y018284
X011457Y018284
X010669Y018284
X009882Y018284
X009094Y018284
X008307Y018284
X007520Y018284
X006732Y018284
X019409Y019842
X023150Y019842
X019409Y022402
X024921Y022402
X023150Y022402
X024921Y019842
X024842Y018284
X024055Y018284
X023268Y018284
X013032Y007284
X013819Y007284
X014606Y007284
X015394Y007284
X016181Y007284
X016968Y007284
X017756Y007284
X018543Y007284
X019331Y007284
X020118Y007284
X020906Y007284
X021693Y007284
X022480Y007284
X023268Y007284
X024055Y007284
X024842Y007284
X026378Y015590
X026378Y013031
X022480Y018284
X021693Y018284
X020906Y018284
X020118Y018284
X019331Y018284
X018543Y018284
X017756Y018284
X016968Y018284
T53
X004629Y013067
X004629Y014067
X028346Y017173
X029346Y017173
X029346Y016173
X029346Y015173
X029346Y014173
X029346Y013173
X028346Y016173
X028346Y015173
X028346Y014173
X028346Y013173
X028346Y019173
X029346Y019173
X028346Y018173
X029346Y018173
X026850Y010551
X026850Y009551
X026850Y008551
X026850Y007551
X026850Y006551
X026850Y005551
T54
X001890Y018205
X001890Y017205
X001890Y016205
T52
X002834Y007756
X002834Y009724
T57
X001968Y001968
X001968Y021654
X029528Y021654
X029528Y001968
M30
