G04 start of page 8 for group -4078 idx -4078 *
G04 Title: (unknown), bottomsilk *
G04 Creator: pcb 20110918 *
G04 CreationDate: Tue 11 Feb 2014 15:56:39 GMT UTC *
G04 For: russells *
G04 Format: Gerber/RS-274X *
G04 PCB-Dimensions: 314961 236220 *
G04 PCB-Coordinate-Origin: lower left *
%MOIN*%
%FSLAX25Y25*%
%LNPLS*%
%ADD93C,0.0080*%
%ADD92C,0.0100*%
%ADD91C,0.0040*%
%ADD90C,0.0039*%
G54D90*X156021Y92062D02*Y95462D01*
X154746Y93762D01*
X153471Y95462D01*
Y92062D02*Y95462D01*
X150751D02*X150326Y95037D01*
X150751Y95462D02*X152026D01*
X152451Y95037D02*X152026Y95462D01*
X152451Y94187D02*Y95037D01*
Y94187D02*X152026Y93762D01*
X150751D02*X152026D01*
X150751D02*X150326Y93337D01*
Y92487D02*Y93337D01*
X150751Y92062D02*X150326Y92487D01*
X150751Y92062D02*X152026D01*
X152451Y92487D02*X152026Y92062D01*
X148881D02*Y95462D01*
X147606D02*X149306D01*
X147606D02*X147181Y95037D01*
Y94187D02*Y95037D01*
X147606Y93762D02*X147181Y94187D01*
X147606Y93762D02*X148881D01*
X146161Y93337D02*X144461Y95462D01*
X144036Y93337D02*X146161D01*
X144461Y92062D02*Y95462D01*
X143016Y95037D02*X142591Y95462D01*
X141741D02*X142591D01*
X141741D02*X141316Y95037D01*
X141741Y92062D02*X141316Y92487D01*
X141741Y92062D02*X142591D01*
X143016Y92487D02*X142591Y92062D01*
X141741Y93932D02*X142591D01*
X141316Y94357D02*Y95037D01*
Y92487D02*Y93507D01*
X141741Y93932D01*
X141316Y94357D02*X141741Y93932D01*
X140296Y92487D02*X139871Y92062D01*
X140296Y92487D02*Y95037D01*
X139871Y95462D01*
X139021D02*X139871D01*
X139021D02*X138596Y95037D01*
Y92487D02*Y95037D01*
X139021Y92062D02*X138596Y92487D01*
X139021Y92062D02*X139871D01*
X140296Y92912D02*X138596Y94612D01*
X137576Y92062D02*Y95462D01*
X135876D02*X137576D01*
X136301Y93932D02*X137576D01*
X134856Y93337D02*X133156Y95462D01*
X132731Y93337D02*X134856D01*
X133156Y92062D02*Y95462D01*
X131711Y93337D02*X130011Y95462D01*
X129586Y93337D02*X131711D01*
X130011Y92062D02*Y95462D01*
X128141Y92062D02*X126866Y93762D01*
Y95037D01*
X127291Y95462D02*X126866Y95037D01*
X127291Y95462D02*X128141D01*
X128566Y95037D02*X128141Y95462D01*
X128566Y94187D02*Y95037D01*
Y94187D02*X128141Y93762D01*
X126866D02*X128141D01*
X124996Y95462D02*X125846D01*
X125421Y92062D02*Y95462D01*
X124996Y92062D02*X125846D01*
X123551D02*Y95462D01*
X122276D02*X123976D01*
X122276D02*X121851Y95037D01*
Y94187D02*Y95037D01*
X122276Y93762D02*X121851Y94187D01*
X122276Y93762D02*X123551D01*
X118706Y95462D02*X120831D01*
Y92062D02*X118706Y95462D01*
Y92062D02*X120831D01*
G54D91*X269260Y124196D02*X271260D01*
X269260D02*X268760Y123696D01*
Y122696D02*Y123696D01*
X269260Y122196D02*X268760Y122696D01*
X269260Y122196D02*X270760D01*
Y120196D02*Y124196D01*
X269960Y122196D02*X268760Y120196D01*
X266060Y122396D02*X267560D01*
X265560Y120196D02*X267560D01*
Y124196D01*
X265560D02*X267560D01*
X262360D02*X261860Y123696D01*
X262360Y124196D02*X263860D01*
X264360Y123696D02*X263860Y124196D01*
X264360Y122696D02*Y123696D01*
Y122696D02*X263860Y122196D01*
X262360D02*X263860D01*
X262360D02*X261860Y121696D01*
Y120696D02*Y121696D01*
X262360Y120196D02*X261860Y120696D01*
X262360Y120196D02*X263860D01*
X264360Y120696D02*X263860Y120196D01*
X259160Y122396D02*X260660D01*
X258660Y120196D02*X260660D01*
Y124196D01*
X258660D02*X260660D01*
X255460D02*X257460D01*
X256460Y120196D02*Y124196D01*
G54D92*X259843Y159842D02*X267717D01*
X259843D02*Y126377D01*
X267717D01*
Y159842D02*Y126377D01*
G54D93*X184646Y209843D02*X185432D01*
X184646Y215353D02*X185432D01*
X239764Y209843D02*X240550D01*
X239764Y215353D02*X240550D01*
X74804Y209843D02*X75590D01*
X74804Y215353D02*X75590D01*
X129922Y209843D02*X130708D01*
X129922Y215353D02*X130708D01*
X76771Y167716D02*Y166930D01*
X71261Y167716D02*Y166930D01*
X76771Y150393D02*Y149607D01*
X71261Y150393D02*Y149607D01*
X76771Y133070D02*Y132284D01*
X71261Y133070D02*Y132284D01*
X81497Y160629D02*Y159843D01*
X87007Y160629D02*Y159843D01*
X81497Y143306D02*Y142520D01*
X87007Y143306D02*Y142520D01*
X76771Y115748D02*Y114962D01*
X71261Y115748D02*Y114962D01*
X81497Y108661D02*Y107875D01*
X87007Y108661D02*Y107875D01*
X25591Y55904D02*Y55118D01*
X31101Y55904D02*Y55118D01*
X81497Y125984D02*Y125198D01*
X87007Y125984D02*Y125198D01*
X176770Y170472D02*Y169686D01*
X171260Y170472D02*Y169686D01*
X112998Y162986D02*X164416D01*
X112998D02*Y108668D01*
X167316D01*
Y160086D02*Y108668D01*
Y160086D02*X164416Y162986D01*
X165416Y160086D02*G75*G03X165416Y160086I-1000J0D01*G01*
G54D92*X49212Y41134D02*Y51134D01*
X44212Y46134D02*X54212D01*
X61712Y44134D02*Y54134D01*
X253712D01*
Y44134D01*
Y14134D02*Y4134D01*
X74212D01*
G54D90*X178533Y167454D02*Y168429D01*
X179058Y166929D02*X178533Y167454D01*
X179058Y166929D02*X181008D01*
X181533Y167454D01*
Y168429D01*
X181158Y169329D02*X181533Y169704D01*
Y170829D01*
X181158Y171204D01*
X180408D02*X181158D01*
X178533Y169329D02*X180408Y171204D01*
X178533Y169329D02*Y171204D01*
X183165Y220749D02*X183945D01*
X182745Y220329D02*X183165Y220749D01*
X182745Y218769D02*Y220329D01*
Y218769D02*X183165Y218349D01*
X183945D01*
X184665Y218829D02*X185145Y218349D01*
Y220749D01*
X184665D02*X185565D01*
X187185Y218349D02*X187485Y218649D01*
X186585Y218349D02*X187185D01*
X186285Y218649D02*X186585Y218349D01*
X186285Y218649D02*Y220449D01*
X186585Y220749D01*
X187185Y219429D02*X187485Y219729D01*
X186285Y219429D02*X187185D01*
X186585Y220749D02*X187185D01*
X187485Y220449D01*
Y219729D02*Y220449D01*
G54D91*X174492Y101244D02*Y104744D01*
Y101244D02*X173992Y100744D01*
X172992D02*X173992D01*
X172992D02*X172492Y101244D01*
Y104744D01*
X171292Y103944D02*X170492Y104744D01*
Y100744D02*Y104744D01*
X169792Y100744D02*X171292D01*
X255481Y147818D02*X254981Y147318D01*
X255481Y147818D02*X256981D01*
X257481Y147318D02*X256981Y147818D01*
X257481Y146318D02*Y147318D01*
Y146318D02*X256981Y145818D01*
X255481D02*X256981D01*
X255481D02*X254981Y145318D01*
Y144318D02*Y145318D01*
X255481Y143818D02*X254981Y144318D01*
X255481Y143818D02*X256981D01*
X257481Y144318D02*X256981Y143818D01*
X251781Y147818D02*X253781D01*
Y145818D02*Y147818D01*
Y145818D02*X253281Y146318D01*
X252281D02*X253281D01*
X252281D02*X251781Y145818D01*
Y144318D02*Y145818D01*
X252281Y143818D02*X251781Y144318D01*
X252281Y143818D02*X253281D01*
X253781Y144318D02*X253281Y143818D01*
G54D90*X73125Y220749D02*X73905D01*
X72705Y220329D02*X73125Y220749D01*
X72705Y218769D02*Y220329D01*
Y218769D02*X73125Y218349D01*
X73905D01*
X74625Y218829D02*X75105Y218349D01*
Y220749D01*
X74625D02*X75525D01*
X76245Y220449D02*X76545Y220749D01*
X76245Y219969D02*Y220449D01*
Y219969D02*X76665Y219549D01*
X77025D01*
X77445Y219969D01*
Y220449D01*
X77145Y220749D02*X77445Y220449D01*
X76545Y220749D02*X77145D01*
X76245Y219129D02*X76665Y219549D01*
X76245Y218649D02*Y219129D01*
Y218649D02*X76545Y218349D01*
X77145D01*
X77445Y218649D01*
Y219129D01*
X77025Y219549D02*X77445Y219129D01*
X128145Y220749D02*X128925D01*
X127725Y220329D02*X128145Y220749D01*
X127725Y218769D02*Y220329D01*
Y218769D02*X128145Y218349D01*
X128925D01*
X129645Y218829D02*X130125Y218349D01*
Y220749D01*
X129645D02*X130545D01*
X131565D02*X132765Y218349D01*
X131265D02*X132765D01*
G54D91*X65709Y165425D02*Y166725D01*
X66409Y164725D02*X65709Y165425D01*
X66409Y164725D02*X69009D01*
X69709Y165425D01*
Y166725D01*
Y167925D02*Y169925D01*
X67709Y167925D02*X69709D01*
X67709D02*X68209Y168425D01*
Y169425D01*
X67709Y169925D01*
X66209D02*X67709D01*
X65709Y169425D02*X66209Y169925D01*
X65709Y168425D02*Y169425D01*
X66209Y167925D02*X65709Y168425D01*
Y148180D02*Y149480D01*
X66409Y147480D02*X65709Y148180D01*
X66409Y147480D02*X69009D01*
X69709Y148180D01*
Y149480D01*
Y152180D02*X69209Y152680D01*
X69709Y151180D02*Y152180D01*
X69209Y150680D02*X69709Y151180D01*
X66209Y150680D02*X69209D01*
X66209D02*X65709Y151180D01*
X67909Y152180D02*X67409Y152680D01*
X67909Y150680D02*Y152180D01*
X65709Y151180D02*Y152180D01*
X66209Y152680D01*
X67409D01*
X65709Y130385D02*Y131685D01*
X66409Y129685D02*X65709Y130385D01*
X66409Y129685D02*X69009D01*
X69709Y130385D01*
Y131685D01*
X65709Y133385D02*X69709Y135385D01*
Y132885D02*Y135385D01*
X92701Y157480D02*Y159480D01*
X92201Y159980D01*
X91201D02*X92201D01*
X90701Y159480D02*X91201Y159980D01*
X90701Y157980D02*Y159480D01*
X88701Y157980D02*X92701D01*
X90701Y158780D02*X88701Y159980D01*
X92701Y161180D02*Y163180D01*
X90701Y161180D02*X92701D01*
X90701D02*X91201Y161680D01*
Y162680D01*
X90701Y163180D01*
X89201D02*X90701D01*
X88701Y162680D02*X89201Y163180D01*
X88701Y161680D02*Y162680D01*
X89201Y161180D02*X88701Y161680D01*
X92858Y139921D02*Y141921D01*
X92358Y142421D01*
X91358D02*X92358D01*
X90858Y141921D02*X91358Y142421D01*
X90858Y140421D02*Y141921D01*
X88858Y140421D02*X92858D01*
X90858Y141221D02*X88858Y142421D01*
X92858Y145121D02*X92358Y145621D01*
X92858Y144121D02*Y145121D01*
X92358Y143621D02*X92858Y144121D01*
X89358Y143621D02*X92358D01*
X89358D02*X88858Y144121D01*
X91058Y145121D02*X90558Y145621D01*
X91058Y143621D02*Y145121D01*
X88858Y144121D02*Y145121D01*
X89358Y145621D01*
X90558D01*
X92622Y122599D02*Y124599D01*
X92122Y125099D01*
X91122D02*X92122D01*
X90622Y124599D02*X91122Y125099D01*
X90622Y123099D02*Y124599D01*
X88622Y123099D02*X92622D01*
X90622Y123899D02*X88622Y125099D01*
Y126799D02*X92622Y128799D01*
Y126299D02*Y128799D01*
X65709Y113142D02*Y114442D01*
X66409Y112442D02*X65709Y113142D01*
X66409Y112442D02*X69009D01*
X69709Y113142D01*
Y114442D01*
X66209Y115642D02*X65709Y116142D01*
X66209Y115642D02*X67009D01*
X67709Y116342D01*
Y116942D01*
X67009Y117642D01*
X66209D02*X67009D01*
X65709Y117142D02*X66209Y117642D01*
X65709Y116142D02*Y117142D01*
X68409Y115642D02*X67709Y116342D01*
X68409Y115642D02*X69209D01*
X69709Y116142D01*
Y117142D01*
X69209Y117642D01*
X68409D02*X69209D01*
X67709Y116942D02*X68409Y117642D01*
X92465Y105433D02*Y107433D01*
X91965Y107933D01*
X90965D02*X91965D01*
X90465Y107433D02*X90965Y107933D01*
X90465Y105933D02*Y107433D01*
X88465Y105933D02*X92465D01*
X90465Y106733D02*X88465Y107933D01*
X88965Y109133D02*X88465Y109633D01*
X88965Y109133D02*X89765D01*
X90465Y109833D01*
Y110433D01*
X89765Y111133D01*
X88965D02*X89765D01*
X88465Y110633D02*X88965Y111133D01*
X88465Y109633D02*Y110633D01*
X91165Y109133D02*X90465Y109833D01*
X91165Y109133D02*X91965D01*
X92465Y109633D01*
Y110633D01*
X91965Y111133D01*
X91165D02*X91965D01*
X90465Y110433D02*X91165Y111133D01*
G54D90*X22810Y56287D02*X24410D01*
X22810D02*X22410Y55887D01*
Y55087D02*Y55887D01*
X22810Y54687D02*X22410Y55087D01*
X22810Y54687D02*X24010D01*
Y53087D02*Y56287D01*
X23370Y54687D02*X22410Y53087D01*
X21450Y55647D02*X20810Y56287D01*
Y53087D02*Y56287D01*
X20250Y53087D02*X21450D01*
X19290Y55887D02*X18890Y56287D01*
X17690D02*X18890D01*
X17690D02*X17290Y55887D01*
Y55087D02*Y55887D01*
X19290Y53087D02*X17290Y55087D01*
Y53087D02*X19290D01*
G54D91*X44212Y14134D02*X46212D01*
X46712Y13634D01*
Y12434D02*Y13634D01*
X46212Y11934D02*X46712Y12434D01*
X44712Y11934D02*X46212D01*
X44712Y10134D02*Y14134D01*
X44212Y10134D02*X46212D01*
X46712Y10634D01*
Y11434D01*
X46212Y11934D02*X46712Y11434D01*
X47912Y10934D02*X48712Y10134D01*
Y14134D01*
X47912D02*X49412D01*
G54D90*X237792Y220749D02*X238572D01*
X237372Y220329D02*X237792Y220749D01*
X237372Y218769D02*Y220329D01*
Y218769D02*X237792Y218349D01*
X238572D01*
X239292Y218829D02*X239772Y218349D01*
Y220749D01*
X239292D02*X240192D01*
X240912Y218349D02*X242112D01*
X240912D02*Y219549D01*
X241212Y219249D01*
X241812D01*
X242112Y219549D01*
Y220449D01*
X241812Y220749D02*X242112Y220449D01*
X241212Y220749D02*X241812D01*
X240912Y220449D02*X241212Y220749D01*
M02*
