G04 start of page 7 for group -4079 idx -4079 *
G04 Title: (unknown), topsilk *
G04 Creator: pcb 20110918 *
G04 CreationDate: Tue 11 Feb 2014 15:56:39 GMT UTC *
G04 For: russells *
G04 Format: Gerber/RS-274X *
G04 PCB-Dimensions: 314961 236220 *
G04 PCB-Coordinate-Origin: lower left *
%MOIN*%
%FSLAX25Y25*%
%LNPLC*%
%ADD89C,0.0100*%
%ADD88C,0.0080*%
%ADD87C,0.0039*%
%ADD86C,0.0056*%
%ADD85C,0.0082*%
%ADD84C,0.0094*%
%ADD83C,0.0043*%
%ADD82C,0.0040*%
%ADD81C,0.0048*%
%ADD80C,0.0250*%
%ADD79C,0.0079*%
G54D79*X11811Y55511D02*X3937D01*
X7874D02*Y59842D01*
X3937Y55511D02*X7874Y51574D01*
X11811Y55511D01*
X3937Y51574D02*X11811D01*
X7874D02*Y46850D01*
X11811Y45669D02*X8661Y42519D01*
Y44881D01*
X5118Y41338D01*
Y43700D01*
Y41338D02*X7480D01*
G54D80*X60630Y227952D02*X43307Y196850D01*
Y227952D02*X60630Y196850D01*
X275984Y227952D02*X262992Y196850D01*
X255906Y203937D01*
X151575Y227952D02*Y201574D01*
X164173Y227952D02*Y201574D01*
X151575Y227952D02*X145669Y222047D01*
X151575Y227952D02*X157480Y222047D01*
X164173Y201574D02*X158268Y207480D01*
X164173Y201574D02*X170079Y207480D01*
G54D81*X271706Y203524D02*X272666D01*
Y199324D01*
X272066Y198724D02*X272666Y199324D01*
X271466Y198724D02*X272066D01*
X270866Y199324D02*X271466Y198724D01*
X270866Y199924D02*Y199324D01*
X274106Y203524D02*X276506D01*
X275306D02*Y198724D01*
X277946Y202324D02*Y198724D01*
Y202324D02*X278786Y203524D01*
X280106D01*
X280946Y202324D01*
Y198724D01*
X277946Y201124D02*X280946D01*
X284786Y203524D02*X285386Y202924D01*
X282986Y203524D02*X284786D01*
X282386Y202924D02*X282986Y203524D01*
X282386Y202924D02*Y199324D01*
X282986Y198724D01*
X284786D01*
X285386Y199324D01*
Y200524D02*Y199324D01*
X284786Y201124D02*X285386Y200524D01*
X283586Y201124D02*X284786D01*
G54D82*X292913Y48212D02*Y44212D01*
Y48212D02*X294913D01*
X292913Y46412D02*X294413D01*
X296113Y48212D02*X298113D01*
X297113D02*Y44212D01*
X299813Y48212D02*Y44212D01*
X301113Y48212D02*X301813Y47512D01*
Y44912D01*
X301113Y44212D02*X301813Y44912D01*
X299313Y44212D02*X301113D01*
X299313Y48212D02*X301113D01*
X303013D02*X304013D01*
X303513D02*Y44212D01*
X303013D02*X304013D01*
G54D83*X274409Y193707D02*X275281Y194579D01*
Y190219D01*
X274409D02*X276044D01*
X267717Y116148D02*X268589Y117020D01*
Y112660D01*
X267717D02*X269352D01*
G54D84*X5118Y153555D02*Y144155D01*
X10993Y153555D02*Y144155D01*
X5118Y148855D02*X10993D01*
X13813Y147680D02*Y145330D01*
Y147680D02*X14988Y148855D01*
X17338D01*
X18513Y147680D01*
Y145330D01*
X17338Y144155D02*X18513Y145330D01*
X14988Y144155D02*X17338D01*
X13813Y145330D02*X14988Y144155D01*
X22508Y153555D02*Y145330D01*
X23683Y144155D01*
X21333Y150030D02*X23683D01*
X27208Y144155D02*X30733D01*
X31908Y145330D01*
X30733Y146505D02*X31908Y145330D01*
X27208Y146505D02*X30733D01*
X26033Y147680D02*X27208Y146505D01*
X26033Y147680D02*X27208Y148855D01*
X30733D01*
X31908Y147680D01*
X26033Y145330D02*X27208Y144155D01*
X6764Y119353D02*X9819D01*
X5119Y120998D02*X6764Y119353D01*
X5119Y127108D02*Y120998D01*
Y127108D02*X6764Y128753D01*
X9819D01*
X12639Y122878D02*Y120528D01*
Y122878D02*X13814Y124053D01*
X16164D01*
X17339Y122878D01*
Y120528D01*
X16164Y119353D02*X17339Y120528D01*
X13814Y119353D02*X16164D01*
X12639Y120528D02*X13814Y119353D01*
X20159Y128753D02*Y120528D01*
X21334Y119353D01*
X28384Y128753D02*Y119353D01*
X27209D02*X28384Y120528D01*
X24859Y119353D02*X27209D01*
X23684Y120528D02*X24859Y119353D01*
X23684Y122878D02*Y120528D01*
Y122878D02*X24859Y124053D01*
X27209D01*
X28384Y122878D01*
X32379Y119353D02*X35904D01*
X37079Y120528D01*
X35904Y121703D02*X37079Y120528D01*
X32379Y121703D02*X35904D01*
X31204Y122878D02*X32379Y121703D01*
X31204Y122878D02*X32379Y124053D01*
X35904D01*
X37079Y122878D01*
X31204Y120528D02*X32379Y119353D01*
G54D85*X9768Y136763D02*X10793Y135738D01*
X7718Y136763D02*X9768D01*
X6693Y135738D02*X7718Y136763D01*
X6693Y135738D02*Y133688D01*
X7718Y132663D01*
X10793Y136763D02*Y133688D01*
X11818Y132663D01*
X7718D02*X9768D01*
X10793Y133688D01*
X15303Y135738D02*Y132663D01*
Y135738D02*X16328Y136763D01*
X17353D01*
X18378Y135738D01*
Y132663D01*
X14278Y136763D02*X15303Y135738D01*
X24938Y140863D02*Y132663D01*
X23913D02*X24938Y133688D01*
X21863Y132663D02*X23913D01*
X20838Y133688D02*X21863Y132663D01*
X20838Y135738D02*Y133688D01*
Y135738D02*X21863Y136763D01*
X23913D01*
X24938Y135738D01*
G54D83*X57874Y74022D02*X58746Y74894D01*
Y70534D01*
X57874D02*X59509D01*
G54D86*X35434Y9973D02*X36834Y7173D01*
X38234Y9973D02*X36834Y7173D01*
X39914Y11653D02*X41034Y12773D01*
Y7173D01*
X39914D02*X42014D01*
X43694D02*X44394D01*
X46074Y11653D02*X47194Y12773D01*
Y7173D01*
X46074D02*X48174D01*
G54D83*X24016Y184258D02*X24888Y185130D01*
Y180770D01*
X24016D02*X25651D01*
G54D87*X8661Y194131D02*X10161D01*
X9411D02*Y191131D01*
X11436D02*X12561D01*
X11061Y191506D02*X11436Y191131D01*
X11061Y192256D02*Y191506D01*
Y192256D02*X11436Y192631D01*
X12186D01*
X12561Y192256D01*
X11061Y191881D02*X12561D01*
Y192256D02*Y191881D01*
X13836Y192256D02*Y191131D01*
Y192256D02*X14211Y192631D01*
X14586D01*
X14961Y192256D01*
Y191131D01*
Y192256D02*X15336Y192631D01*
X15711D01*
X16086Y192256D01*
Y191131D01*
X13461Y192631D02*X13836Y192256D01*
X17361D02*Y190006D01*
X16986Y192631D02*X17361Y192256D01*
X17736Y192631D01*
X18486D01*
X18861Y192256D01*
Y191506D01*
X18486Y191131D02*X18861Y191506D01*
X17736Y191131D02*X18486D01*
X17361Y191506D02*X17736Y191131D01*
X20136D02*X21261D01*
X19761Y191506D02*X20136Y191131D01*
X19761Y192256D02*Y191506D01*
Y192256D02*X20136Y192631D01*
X20886D01*
X21261Y192256D01*
X19761Y191881D02*X21261D01*
Y192256D02*Y191881D01*
X22536Y192256D02*Y191131D01*
Y192256D02*X22911Y192631D01*
X23661D01*
X22161D02*X22536Y192256D01*
X25686Y192631D02*X26061Y192256D01*
X24936Y192631D02*X25686D01*
X24561Y192256D02*X24936Y192631D01*
X24561Y192256D02*Y191506D01*
X24936Y191131D01*
X26061Y192631D02*Y191506D01*
X26436Y191131D01*
X24936D02*X25686D01*
X26061Y191506D01*
X27711Y194131D02*Y191506D01*
X28086Y191131D01*
X27336Y193006D02*X28086D01*
X28836Y192631D02*Y191506D01*
X29211Y191131D01*
X29961D01*
X30336Y191506D01*
Y192631D02*Y191506D01*
X31611Y192256D02*Y191131D01*
Y192256D02*X31986Y192631D01*
X32736D01*
X31236D02*X31611Y192256D01*
X34011Y191131D02*X35136D01*
X33636Y191506D02*X34011Y191131D01*
X33636Y192256D02*Y191506D01*
Y192256D02*X34011Y192631D01*
X34761D01*
X35136Y192256D01*
X33636Y191881D02*X35136D01*
Y192256D02*Y191881D01*
X10161Y189407D02*X10536Y189032D01*
X9036Y189407D02*X10161D01*
X8661Y189032D02*X9036Y189407D01*
X8661Y189032D02*Y188282D01*
X9036Y187907D01*
X10161D01*
X10536Y187532D01*
Y186782D01*
X10161Y186407D02*X10536Y186782D01*
X9036Y186407D02*X10161D01*
X8661Y186782D02*X9036Y186407D01*
X11811D02*X12936D01*
X11436Y186782D02*X11811Y186407D01*
X11436Y187532D02*Y186782D01*
Y187532D02*X11811Y187907D01*
X12561D01*
X12936Y187532D01*
X11436Y187157D02*X12936D01*
Y187532D02*Y187157D01*
X14211Y187532D02*Y186407D01*
Y187532D02*X14586Y187907D01*
X14961D01*
X15336Y187532D01*
Y186407D01*
X13836Y187907D02*X14211Y187532D01*
X16611Y186407D02*X17736D01*
X18111Y186782D01*
X17736Y187157D02*X18111Y186782D01*
X16611Y187157D02*X17736D01*
X16236Y187532D02*X16611Y187157D01*
X16236Y187532D02*X16611Y187907D01*
X17736D01*
X18111Y187532D01*
X16236Y186782D02*X16611Y186407D01*
X19011Y187532D02*Y186782D01*
Y187532D02*X19386Y187907D01*
X20136D01*
X20511Y187532D01*
Y186782D01*
X20136Y186407D02*X20511Y186782D01*
X19386Y186407D02*X20136D01*
X19011Y186782D02*X19386Y186407D01*
X21786Y187532D02*Y186407D01*
Y187532D02*X22161Y187907D01*
X22911D01*
X21411D02*X21786Y187532D01*
G54D88*X246849Y148818D02*Y148032D01*
X241339Y148818D02*Y148032D01*
Y132283D02*Y131497D01*
X246849Y132283D02*Y131497D01*
G54D89*X278465Y196732D02*Y126732D01*
X298465D01*
Y196732D01*
X278465D01*
Y186732D02*X288465D01*
Y196732D01*
X172440Y194488D02*X198031D01*
X172440Y227953D02*Y194488D01*
Y227953D02*X198031D01*
Y194488D01*
X227559D02*X253150D01*
X227559Y227953D02*Y194488D01*
Y227953D02*X253150D01*
Y194488D01*
X263504Y110511D02*X308504D01*
Y50511D01*
X263504D01*
Y110511D01*
X273504D02*Y50511D01*
G54D88*X211416Y212991D02*Y212205D01*
X205906Y212991D02*Y212205D01*
X220865Y212991D02*Y212205D01*
X215355Y212991D02*Y212205D01*
X185040Y150788D02*X185826D01*
X185040Y156298D02*X185826D01*
X185040Y133071D02*X185826D01*
X185040Y138581D02*X185826D01*
G54D89*X193858Y141732D02*X213858D01*
X193858Y147732D02*X213858D01*
Y141732D01*
G54D88*X100393Y212991D02*Y212205D01*
X94883Y212991D02*Y212205D01*
G54D89*X62598Y194488D02*X88189D01*
X62598Y227953D02*Y194488D01*
Y227953D02*X88189D01*
Y194488D01*
G54D88*X111023Y212991D02*Y212205D01*
X105513Y212991D02*Y212205D01*
G54D89*X117716Y194488D02*X143307D01*
X117716Y227953D02*Y194488D01*
Y227953D02*X143307D01*
Y194488D01*
G54D88*X35434Y163778D02*Y162992D01*
X40944Y163778D02*Y162992D01*
G54D89*X41292Y125673D02*X51292D01*
Y145673D02*Y125673D01*
X41292Y145673D02*X51292D01*
X41292D02*Y125673D01*
X51292Y135673D02*Y125673D01*
X41292Y135673D02*X51292D01*
G54D88*X40944Y179134D02*Y178348D01*
X35434Y179134D02*Y178348D01*
X69463Y92449D02*Y91663D01*
X74973Y92449D02*Y91663D01*
G54D89*X28345Y61811D02*G75*G03X28345Y61811I0J25591D01*G01*
G54D88*X125591Y129527D02*Y128741D01*
X131101Y129527D02*Y128741D01*
G54D89*X62323Y67835D02*X253425D01*
Y187835D02*Y67835D01*
X62323Y187835D02*X253425D01*
X62323D02*Y67835D01*
X71323Y77835D02*Y67835D01*
X62323Y77835D02*X71323D01*
G54D88*X146062Y148424D02*Y147638D01*
X140552Y148424D02*Y147638D01*
X138188Y148424D02*Y147638D01*
X132678Y148424D02*Y147638D01*
G54D89*X266141Y51134D02*Y41134D01*
X261141Y46134D02*X271141D01*
X253641Y54134D02*Y44134D01*
X61641Y54134D02*X253641D01*
X61641D02*Y44134D01*
Y14134D02*Y4134D01*
X241141D01*
X11898Y179047D02*Y165047D01*
X11827Y164976D02*G75*G03X11827Y179118I7071J7071D01*G01*
G54D88*X25591Y48818D02*Y48032D01*
X31101Y48818D02*Y48032D01*
X19290Y48818D02*Y48032D01*
X13780Y48818D02*Y48032D01*
G54D87*X240051Y151181D02*Y150181D01*
X239801Y149931D01*
X239301D02*X239801D01*
X239051Y150181D02*X239301Y149931D01*
X239051Y150931D02*Y150181D01*
X238051Y150931D02*X240051D01*
X239051Y150531D02*X238051Y149931D01*
Y149081D02*X239051Y148331D01*
X239801D01*
X240051Y148581D02*X239801Y148331D01*
X240051Y149081D02*Y148581D01*
X239801Y149331D02*X240051Y149081D01*
X239301Y149331D02*X239801D01*
X239301D02*X239051Y149081D01*
Y148331D01*
X249743Y129346D02*Y128696D01*
X249393Y128346D02*X249743Y128696D01*
X248093Y128346D02*X249393D01*
X248093D02*X247743Y128696D01*
Y129346D02*Y128696D01*
X248143Y129946D02*X247743Y130346D01*
X249743D01*
Y130696D02*Y129946D01*
X248993Y131296D02*X247743Y132296D01*
X248993Y132546D02*Y131296D01*
X247743Y132296D02*X249743D01*
G54D82*X210251Y149534D02*X206251Y152034D01*
Y149534D02*X210251Y152034D01*
X207051Y153234D02*X206251Y154034D01*
X210251D01*
Y154734D02*Y153234D01*
G54D87*X181611Y157972D02*X182261D01*
X181261Y158322D02*X181611Y157972D01*
X181261Y159622D02*Y158322D01*
Y159622D02*X181611Y159972D01*
X182261D01*
X183111Y157972D02*X183861Y158972D01*
Y159722D02*Y158972D01*
X183611Y159972D02*X183861Y159722D01*
X183111Y159972D02*X183611D01*
X182861Y159722D02*X183111Y159972D01*
X182861Y159722D02*Y159222D01*
X183111Y158972D01*
X183861D01*
X183263Y130019D02*X183913D01*
X182913Y130369D02*X183263Y130019D01*
X182913Y131669D02*Y130369D01*
Y131669D02*X183263Y132019D01*
X183913D01*
X184513Y131619D02*X184913Y132019D01*
Y130019D01*
X184513D02*X185263D01*
X185863Y130269D02*X186113Y130019D01*
X185863Y131769D02*Y130269D01*
Y131769D02*X186113Y132019D01*
X186613D01*
X186863Y131769D01*
Y130269D01*
X186613Y130019D02*X186863Y130269D01*
X186113Y130019D02*X186613D01*
X185863Y130519D02*X186863Y131519D01*
G54D82*X279047Y90668D02*X280347D01*
X278347Y91368D02*X279047Y90668D01*
X278347Y93968D02*Y91368D01*
Y93968D02*X279047Y94668D01*
X280347D01*
X281547Y94168D02*Y91168D01*
Y94168D02*X282047Y94668D01*
X283047D01*
X283547Y94168D01*
Y91168D01*
X283047Y90668D02*X283547Y91168D01*
X282047Y90668D02*X283047D01*
X281547Y91168D02*X282047Y90668D01*
X284747Y94668D02*Y90668D01*
Y94668D02*X287247Y90668D01*
Y94668D02*Y90668D01*
X288447Y94668D02*Y90668D01*
Y94668D02*X290947Y90668D01*
Y94668D02*Y90668D01*
X292147Y94168D02*X292647Y94668D01*
X294147D01*
X294647Y94168D01*
Y93168D01*
X292147Y90668D02*X294647Y93168D01*
X292147Y90668D02*X294647D01*
X281269Y31521D02*X283269D01*
X283769Y32021D01*
Y33221D02*Y32021D01*
X283269Y33721D02*X283769Y33221D01*
X281769Y33721D02*X283269D01*
X281769Y35521D02*Y31521D01*
X281269Y35521D02*X283269D01*
X283769Y35021D01*
Y34221D01*
X283269Y33721D02*X283769Y34221D01*
X284969Y35021D02*X285469Y35521D01*
X286969D01*
X287469Y35021D01*
Y34021D01*
X284969Y31521D02*X287469Y34021D01*
X284969Y31521D02*X287469D01*
G54D87*X99500Y205118D02*Y204118D01*
X99250Y203868D01*
X98750D02*X99250D01*
X98500Y204118D02*X98750Y203868D01*
X98500Y204868D02*Y204118D01*
X97500Y204868D02*X99500D01*
X98500Y204468D02*X97500Y203868D01*
X98250Y203268D02*X99500Y202268D01*
X98250Y203268D02*Y202018D01*
X97500Y202268D02*X99500D01*
G54D82*X91764Y199000D02*X92264Y198500D01*
X90264Y199000D02*X91764D01*
X89764Y198500D02*X90264Y199000D01*
X89764Y198500D02*Y197500D01*
X90264Y197000D01*
X91764D01*
X92264Y196500D01*
Y195500D01*
X91764Y195000D02*X92264Y195500D01*
X90264Y195000D02*X91764D01*
X89764Y195500D02*X90264Y195000D01*
X93464Y196500D02*X95464Y199000D01*
X93464Y196500D02*X95964D01*
X95464Y199000D02*Y195000D01*
G54D87*X110130Y205118D02*Y204118D01*
X109880Y203868D01*
X109380D02*X109880D01*
X109130Y204118D02*X109380Y203868D01*
X109130Y204868D02*Y204118D01*
X108130Y204868D02*X110130D01*
X109130Y204468D02*X108130Y203868D01*
X109880Y203268D02*X110130Y203018D01*
Y202518D01*
X109880Y202268D01*
X108130Y202518D02*X108380Y202268D01*
X108130Y203018D02*Y202518D01*
X108380Y203268D02*X108130Y203018D01*
X109230D02*Y202518D01*
X109480Y202268D02*X109880D01*
X108380D02*X108980D01*
X109230Y202518D01*
X109480Y202268D02*X109230Y202518D01*
G54D82*X111449Y199000D02*X111949Y198500D01*
X109949Y199000D02*X111449D01*
X109449Y198500D02*X109949Y199000D01*
X109449Y198500D02*Y197500D01*
X109949Y197000D01*
X111449D01*
X111949Y196500D01*
Y195500D01*
X111449Y195000D02*X111949Y195500D01*
X109949Y195000D02*X111449D01*
X109449Y195500D02*X109949Y195000D01*
X113149Y198500D02*X113649Y199000D01*
X114649D01*
X115149Y198500D01*
X114649Y195000D02*X115149Y195500D01*
X113649Y195000D02*X114649D01*
X113149Y195500D02*X113649Y195000D01*
Y197200D02*X114649D01*
X115149Y198500D02*Y197700D01*
Y196700D02*Y195500D01*
Y196700D02*X114649Y197200D01*
X115149Y197700D02*X114649Y197200D01*
G54D87*X134653Y127263D02*Y126483D01*
X134233Y126063D02*X134653Y126483D01*
X132673Y126063D02*X134233D01*
X132673D02*X132253Y126483D01*
Y127263D02*Y126483D01*
X132553Y127983D02*X132253Y128283D01*
Y128883D02*Y128283D01*
Y128883D02*X132553Y129183D01*
X134653Y128883D02*X134353Y129183D01*
X134653Y128883D02*Y128283D01*
X134353Y127983D02*X134653Y128283D01*
X133333Y128883D02*Y128283D01*
X132553Y129183D02*X133033D01*
X133633D02*X134353D01*
X133633D02*X133333Y128883D01*
X133033Y129183D02*X133333Y128883D01*
X139075Y140122D02*Y139472D01*
X139425Y140472D02*X139075Y140122D01*
X139425Y140472D02*X140725D01*
X141075Y140122D01*
Y139472D01*
X140675Y138872D02*X141075Y138472D01*
X139075D02*X141075D01*
X139075Y138872D02*Y138122D01*
X140675Y137522D02*X141075Y137122D01*
X139075D02*X141075D01*
X139075Y137522D02*Y136772D01*
X134350Y140201D02*Y139551D01*
X134700Y140551D02*X134350Y140201D01*
X134700Y140551D02*X136000D01*
X136350Y140201D01*
Y139551D01*
X135950Y138951D02*X136350Y138551D01*
X134350D02*X136350D01*
X134350Y138951D02*Y138201D01*
X136100Y137601D02*X136350Y137351D01*
Y136601D01*
X136100Y136351D01*
X135600D02*X136100D01*
X134350Y137601D02*X135600Y136351D01*
X134350Y137601D02*Y136351D01*
X32251Y165861D02*Y165341D01*
X32531Y166141D02*X32251Y165861D01*
X32531Y166141D02*X33571D01*
X33851Y165861D01*
Y165341D01*
X33531Y164861D02*X33851Y164541D01*
X32251D02*X33851D01*
X32251Y164861D02*Y164261D01*
X33651Y163781D02*X33851Y163581D01*
Y163181D01*
X33651Y162981D01*
X32251Y163181D02*X32451Y162981D01*
X32251Y163581D02*Y163181D01*
X32451Y163781D02*X32251Y163581D01*
X33131D02*Y163181D01*
X33331Y162981D02*X33651D01*
X32451D02*X32931D01*
X33131Y163181D01*
X33331Y162981D02*X33131Y163181D01*
G54D82*X6898Y163047D02*X10398D01*
X10898Y163547D01*
Y164547D02*Y163547D01*
Y164547D02*X10398Y165047D01*
X6898D02*X10398D01*
X7398Y166247D02*X6898Y166747D01*
Y167747D02*Y166747D01*
Y167747D02*X7398Y168247D01*
X10898Y167747D02*X10398Y168247D01*
X10898Y167747D02*Y166747D01*
X10398Y166247D02*X10898Y166747D01*
X8698Y167747D02*Y166747D01*
X7398Y168247D02*X8198D01*
X9198D02*X10398D01*
X9198D02*X8698Y167747D01*
X8198Y168247D02*X8698Y167747D01*
G54D87*X34167Y180473D02*Y179673D01*
X33967Y179473D01*
X33567D02*X33967D01*
X33367Y179673D02*X33567Y179473D01*
X33367Y180273D02*Y179673D01*
X32567Y180273D02*X34167D01*
X33367Y179953D02*X32567Y179473D01*
X33847Y178993D02*X34167Y178673D01*
X32567D02*X34167D01*
X32567Y178993D02*Y178393D01*
X32767Y177913D02*X32567Y177713D01*
X32767Y177913D02*X33967D01*
X34167Y177713D01*
Y177313D01*
X33967Y177113D01*
X32767D02*X33967D01*
X32567Y177313D02*X32767Y177113D01*
X32567Y177713D02*Y177313D01*
X32967Y177913D02*X33767Y177113D01*
X78283Y91684D02*Y91034D01*
X77933Y90684D02*X78283Y91034D01*
X76633Y90684D02*X77933D01*
X76633D02*X76283Y91034D01*
Y91684D02*Y91034D01*
X77533Y92284D02*X76283Y93284D01*
X77533Y93534D02*Y92284D01*
X76283Y93284D02*X78283D01*
G54D82*X54786Y115649D02*Y112149D01*
X55286Y111649D01*
X56286D01*
X56786Y112149D01*
Y115649D02*Y112149D01*
X57986Y115149D02*X58486Y115649D01*
X59986D01*
X60486Y115149D01*
Y114149D01*
X57986Y111649D02*X60486Y114149D01*
X57986Y111649D02*X60486D01*
X47887Y63817D02*X49187D01*
X47187Y64517D02*X47887Y63817D01*
X47187Y67117D02*Y64517D01*
Y67117D02*X47887Y67817D01*
X49187D01*
X50387Y67017D02*X51187Y67817D01*
Y63817D01*
X50387D02*X51887D01*
X44487Y123593D02*X45287D01*
Y120093D01*
X44787Y119593D02*X45287Y120093D01*
X44287Y119593D02*X44787D01*
X43787Y120093D02*X44287Y119593D01*
X43787Y120593D02*Y120093D01*
X46487Y122793D02*X47287Y123593D01*
Y119593D01*
X46487D02*X47987D01*
G54D87*X25196Y41032D02*X26596D01*
X26946Y40682D01*
Y39982D01*
X26596Y39632D02*X26946Y39982D01*
X25546Y39632D02*X26596D01*
X25546Y41032D02*Y38232D01*
X26106Y39632D02*X26946Y38232D01*
X27786Y40472D02*X28346Y41032D01*
Y38232D01*
X27786D02*X28836D01*
X29676Y40472D02*X30236Y41032D01*
Y38232D01*
X29676D02*X30726D01*
X13499Y40691D02*Y38291D01*
X14699D01*
X15419Y39611D02*X16319D01*
X15419Y38291D02*X16619D01*
X15419Y40691D02*Y38291D01*
Y40691D02*X16619D01*
X17639D02*Y38291D01*
X18419Y40691D02*X18839Y40271D01*
Y38711D01*
X18419Y38291D02*X18839Y38711D01*
X17339Y38291D02*X18419D01*
X17339Y40691D02*X18419D01*
X19559Y40211D02*X20039Y40691D01*
Y38291D01*
X19559D02*X20459D01*
G54D82*X202174Y199157D02*X202674Y198657D01*
X200674Y199157D02*X202174D01*
X200174Y198657D02*X200674Y199157D01*
X200174Y198657D02*Y197657D01*
X200674Y197157D01*
X202174D01*
X202674Y196657D01*
Y195657D01*
X202174Y195157D02*X202674Y195657D01*
X200674Y195157D02*X202174D01*
X200174Y195657D02*X200674Y195157D01*
X203874Y198657D02*X204374Y199157D01*
X205874D01*
X206374Y198657D01*
Y197657D01*
X203874Y195157D02*X206374Y197657D01*
X203874Y195157D02*X206374D01*
X299465Y196032D02*Y194732D01*
X300165Y196732D02*X299465Y196032D01*
X300165Y196732D02*X302765D01*
X303465Y196032D01*
Y194732D01*
X299965Y193532D02*X302965D01*
X303465Y193032D01*
Y192032D01*
X302965Y191532D01*
X299965D02*X302965D01*
X299465Y192032D02*X299965Y191532D01*
X299465Y193032D02*Y192032D01*
X299965Y193532D02*X299465Y193032D01*
Y190332D02*X303465D01*
X299465Y187832D01*
X303465D01*
X299465Y186632D02*X303465D01*
X299465Y184132D01*
X303465D01*
X302665Y182932D02*X303465Y182132D01*
X299465D02*X303465D01*
X299465Y182932D02*Y181432D01*
G54D87*X210524Y205118D02*Y204118D01*
X210274Y203868D01*
X209774D02*X210274D01*
X209524Y204118D02*X209774Y203868D01*
X209524Y204868D02*Y204118D01*
X208524Y204868D02*X210524D01*
X209524Y204468D02*X208524Y203868D01*
X210274Y203268D02*X210524Y203018D01*
Y202268D01*
X210274Y202018D01*
X209774D02*X210274D01*
X208524Y203268D02*X209774Y202018D01*
X208524Y203268D02*Y202018D01*
X219972Y205118D02*Y204118D01*
X219722Y203868D01*
X219222D02*X219722D01*
X218972Y204118D02*X219222Y203868D01*
X218972Y204868D02*Y204118D01*
X217972Y204868D02*X219972D01*
X218972Y204468D02*X217972Y203868D01*
X219572Y203268D02*X219972Y202868D01*
X217972D02*X219972D01*
X217972Y203268D02*Y202518D01*
G54D82*X222079Y199000D02*X222579Y198500D01*
X220579Y199000D02*X222079D01*
X220079Y198500D02*X220579Y199000D01*
X220079Y198500D02*Y197500D01*
X220579Y197000D01*
X222079D01*
X222579Y196500D01*
Y195500D01*
X222079Y195000D02*X222579Y195500D01*
X220579Y195000D02*X222079D01*
X220079Y195500D02*X220579Y195000D01*
X223779Y198200D02*X224579Y199000D01*
Y195000D01*
X223779D02*X225279D01*
M02*
