G04 start of page 11 for group -3984 idx -3984 *
G04 Title: (unknown), fab *
G04 Creator: pcb 20110918 *
G04 CreationDate: Tue 11 Feb 2014 15:56:39 GMT UTC *
G04 For: russells *
G04 Format: Gerber/RS-274X *
G04 PCB-Dimensions: 314961 236220 *
G04 PCB-Coordinate-Origin: lower left *
%MOIN*%
%FSLAX25Y25*%
%LNFAB*%
%ADD102C,0.0100*%
%ADD101C,0.0075*%
%ADD100C,0.0060*%
%ADD99R,0.0080X0.0080*%
G54D99*X295276Y22885D02*Y16485D01*
X292076Y19685D02*X298476D01*
X293676Y21285D02*X296876D01*
X293676D02*Y18085D01*
X296876D01*
Y21285D02*Y18085D01*
X19685Y22885D02*Y16485D01*
X16485Y19685D02*X22885D01*
X18085Y21285D02*X21285D01*
X18085D02*Y18085D01*
X21285D01*
Y21285D02*Y18085D01*
X19685Y219735D02*Y213335D01*
X16485Y216535D02*X22885D01*
X18085Y218135D02*X21285D01*
X18085D02*Y214935D01*
X21285D01*
Y218135D02*Y214935D01*
X295276Y219735D02*Y213335D01*
X292076Y216535D02*X298476D01*
X293676Y218135D02*X296876D01*
X293676D02*Y214935D01*
X296876D01*
Y218135D02*Y214935D01*
X15000Y250670D02*Y244270D01*
X11800Y247470D02*X18200D01*
X13400Y249070D02*X16600D01*
X13400D02*Y245870D01*
X16600D01*
Y249070D02*Y245870D01*
G54D100*X135000Y249720D02*X136500Y246720D01*
X138000Y249720D01*
X136500Y246720D02*Y243720D01*
X139800Y247020D02*X142050D01*
X139800Y243720D02*X142800D01*
X139800Y249720D02*Y243720D01*
Y249720D02*X142800D01*
X147600D02*X148350Y248970D01*
X145350Y249720D02*X147600D01*
X144600Y248970D02*X145350Y249720D01*
X144600Y248970D02*Y247470D01*
X145350Y246720D01*
X147600D01*
X148350Y245970D01*
Y244470D01*
X147600Y243720D02*X148350Y244470D01*
X145350Y243720D02*X147600D01*
X144600Y244470D02*X145350Y243720D01*
X98000Y245970D02*X101000Y249720D01*
X98000Y245970D02*X101750D01*
X101000Y249720D02*Y243720D01*
X45000Y244470D02*X45750Y243720D01*
X45000Y248970D02*Y244470D01*
Y248970D02*X45750Y249720D01*
X47250D01*
X48000Y248970D01*
Y244470D01*
X47250Y243720D02*X48000Y244470D01*
X45750Y243720D02*X47250D01*
X45000Y245220D02*X48000Y248220D01*
X49800Y243720D02*X50550D01*
X52350Y248520D02*X53550Y249720D01*
Y243720D01*
X52350D02*X54600D01*
X56400Y248970D02*X57150Y249720D01*
X58650D01*
X59400Y248970D01*
X58650Y243720D02*X59400Y244470D01*
X57150Y243720D02*X58650D01*
X56400Y244470D02*X57150Y243720D01*
Y247020D02*X58650D01*
X59400Y248970D02*Y247770D01*
Y246270D02*Y244470D01*
Y246270D02*X58650Y247020D01*
X59400Y247770D02*X58650Y247020D01*
X61200Y244470D02*X61950Y243720D01*
X61200Y248970D02*Y244470D01*
Y248970D02*X61950Y249720D01*
X63450D01*
X64200Y248970D01*
Y244470D01*
X63450Y243720D02*X64200Y244470D01*
X61950Y243720D02*X63450D01*
X61200Y245220D02*X64200Y248220D01*
X28345Y77559D02*Y74359D01*
Y77559D02*X31118Y79159D01*
X28345Y77559D02*X25572Y79159D01*
X26745Y77559D02*G75*G03X29945Y77559I1600J0D01*G01*
G75*G03X26745Y77559I-1600J0D01*G01*
X28345Y97244D02*Y94044D01*
Y97244D02*X31118Y98844D01*
X28345Y97244D02*X25572Y98844D01*
X26745Y97244D02*G75*G03X29945Y97244I1600J0D01*G01*
G75*G03X26745Y97244I-1600J0D01*G01*
X15000Y262470D02*Y259270D01*
Y262470D02*X17773Y264070D01*
X15000Y262470D02*X12227Y264070D01*
X13400Y262470D02*G75*G03X16600Y262470I1600J0D01*G01*
G75*G03X13400Y262470I-1600J0D01*G01*
X135000Y264720D02*X136500Y261720D01*
X138000Y264720D01*
X136500Y261720D02*Y258720D01*
X139800Y262020D02*X142050D01*
X139800Y258720D02*X142800D01*
X139800Y264720D02*Y258720D01*
Y264720D02*X142800D01*
X147600D02*X148350Y263970D01*
X145350Y264720D02*X147600D01*
X144600Y263970D02*X145350Y264720D01*
X144600Y263970D02*Y262470D01*
X145350Y261720D01*
X147600D01*
X148350Y260970D01*
Y259470D01*
X147600Y258720D02*X148350Y259470D01*
X145350Y258720D02*X147600D01*
X144600Y259470D02*X145350Y258720D01*
X98000Y263970D02*X98750Y264720D01*
X101000D01*
X101750Y263970D01*
Y262470D01*
X98000Y258720D02*X101750Y262470D01*
X98000Y258720D02*X101750D01*
X45000Y259470D02*X45750Y258720D01*
X45000Y263970D02*Y259470D01*
Y263970D02*X45750Y264720D01*
X47250D01*
X48000Y263970D01*
Y259470D01*
X47250Y258720D02*X48000Y259470D01*
X45750Y258720D02*X47250D01*
X45000Y260220D02*X48000Y263220D01*
X49800Y258720D02*X50550D01*
X52350Y259470D02*X53100Y258720D01*
X52350Y263970D02*Y259470D01*
Y263970D02*X53100Y264720D01*
X54600D01*
X55350Y263970D01*
Y259470D01*
X54600Y258720D02*X55350Y259470D01*
X53100Y258720D02*X54600D01*
X52350Y260220D02*X55350Y263220D01*
X57150Y264720D02*X60150D01*
X57150D02*Y261720D01*
X57900Y262470D01*
X59400D01*
X60150Y261720D01*
Y259470D01*
X59400Y258720D02*X60150Y259470D01*
X57900Y258720D02*X59400D01*
X57150Y259470D02*X57900Y258720D01*
X64200Y264720D02*X64950Y263970D01*
X62700Y264720D02*X64200D01*
X61950Y263970D02*X62700Y264720D01*
X61950Y263970D02*Y259470D01*
X62700Y258720D01*
X64200Y262020D02*X64950Y261270D01*
X61950Y262020D02*X64200D01*
X62700Y258720D02*X64200D01*
X64950Y259470D01*
Y261270D02*Y259470D01*
X17298Y183647D02*X20498D01*
X17298D02*Y180447D01*
X20498D01*
Y183647D02*Y180447D01*
X17298Y173647D02*X20498D01*
X17298D02*Y170447D01*
X20498D01*
Y173647D02*Y170447D01*
X17298Y163647D02*X20498D01*
X17298D02*Y160447D01*
X20498D01*
Y163647D02*Y160447D01*
X13400Y279070D02*X16600D01*
X13400D02*Y275870D01*
X16600D01*
Y279070D02*Y275870D01*
X135000Y279720D02*X136500Y276720D01*
X138000Y279720D01*
X136500Y276720D02*Y273720D01*
X139800Y277020D02*X142050D01*
X139800Y273720D02*X142800D01*
X139800Y279720D02*Y273720D01*
Y279720D02*X142800D01*
X147600D02*X148350Y278970D01*
X145350Y279720D02*X147600D01*
X144600Y278970D02*X145350Y279720D01*
X144600Y278970D02*Y277470D01*
X145350Y276720D01*
X147600D01*
X148350Y275970D01*
Y274470D01*
X147600Y273720D02*X148350Y274470D01*
X145350Y273720D02*X147600D01*
X144600Y274470D02*X145350Y273720D01*
X98000Y278970D02*X98750Y279720D01*
X100250D01*
X101000Y278970D01*
X100250Y273720D02*X101000Y274470D01*
X98750Y273720D02*X100250D01*
X98000Y274470D02*X98750Y273720D01*
Y277020D02*X100250D01*
X101000Y278970D02*Y277770D01*
Y276270D02*Y274470D01*
Y276270D02*X100250Y277020D01*
X101000Y277770D02*X100250Y277020D01*
X45000Y274470D02*X45750Y273720D01*
X45000Y278970D02*Y274470D01*
Y278970D02*X45750Y279720D01*
X47250D01*
X48000Y278970D01*
Y274470D01*
X47250Y273720D02*X48000Y274470D01*
X45750Y273720D02*X47250D01*
X45000Y275220D02*X48000Y278220D01*
X49800Y273720D02*X50550D01*
X52350Y274470D02*X53100Y273720D01*
X52350Y278970D02*Y274470D01*
Y278970D02*X53100Y279720D01*
X54600D01*
X55350Y278970D01*
Y274470D01*
X54600Y273720D02*X55350Y274470D01*
X53100Y273720D02*X54600D01*
X52350Y275220D02*X55350Y278220D01*
X57150Y275970D02*X60150Y279720D01*
X57150Y275970D02*X60900D01*
X60150Y279720D02*Y273720D01*
X62700Y278970D02*X63450Y279720D01*
X65700D01*
X66450Y278970D01*
Y277470D01*
X62700Y273720D02*X66450Y277470D01*
X62700Y273720D02*X66450D01*
X282665Y191732D02*G75*G03X284265Y191732I800J0D01*G01*
G75*G03X282665Y191732I-800J0D01*G01*
X292665D02*G75*G03X294265Y191732I800J0D01*G01*
G75*G03X292665Y191732I-800J0D01*G01*
X282665Y181732D02*G75*G03X284265Y181732I800J0D01*G01*
G75*G03X282665Y181732I-800J0D01*G01*
X292665D02*G75*G03X294265Y181732I800J0D01*G01*
G75*G03X292665Y181732I-800J0D01*G01*
X282665Y171732D02*G75*G03X284265Y171732I800J0D01*G01*
G75*G03X282665Y171732I-800J0D01*G01*
X292665D02*G75*G03X294265Y171732I800J0D01*G01*
G75*G03X292665Y171732I-800J0D01*G01*
X282665Y161732D02*G75*G03X284265Y161732I800J0D01*G01*
G75*G03X282665Y161732I-800J0D01*G01*
X292665D02*G75*G03X294265Y161732I800J0D01*G01*
G75*G03X292665Y161732I-800J0D01*G01*
X282665Y151732D02*G75*G03X284265Y151732I800J0D01*G01*
G75*G03X282665Y151732I-800J0D01*G01*
X292665D02*G75*G03X294265Y151732I800J0D01*G01*
G75*G03X292665Y151732I-800J0D01*G01*
X282665Y141732D02*G75*G03X284265Y141732I800J0D01*G01*
G75*G03X282665Y141732I-800J0D01*G01*
X292665D02*G75*G03X294265Y141732I800J0D01*G01*
G75*G03X292665Y141732I-800J0D01*G01*
X282665Y131732D02*G75*G03X284265Y131732I800J0D01*G01*
G75*G03X282665Y131732I-800J0D01*G01*
X292665D02*G75*G03X294265Y131732I800J0D01*G01*
G75*G03X292665Y131732I-800J0D01*G01*
X267704Y105511D02*G75*G03X269304Y105511I800J0D01*G01*
G75*G03X267704Y105511I-800J0D01*G01*
Y95511D02*G75*G03X269304Y95511I800J0D01*G01*
G75*G03X267704Y95511I-800J0D01*G01*
Y85511D02*G75*G03X269304Y85511I800J0D01*G01*
G75*G03X267704Y85511I-800J0D01*G01*
Y75511D02*G75*G03X269304Y75511I800J0D01*G01*
G75*G03X267704Y75511I-800J0D01*G01*
Y65511D02*G75*G03X269304Y65511I800J0D01*G01*
G75*G03X267704Y65511I-800J0D01*G01*
Y55511D02*G75*G03X269304Y55511I800J0D01*G01*
G75*G03X267704Y55511I-800J0D01*G01*
X45492Y130673D02*G75*G03X47092Y130673I800J0D01*G01*
G75*G03X45492Y130673I-800J0D01*G01*
Y140673D02*G75*G03X47092Y140673I800J0D01*G01*
G75*G03X45492Y140673I-800J0D01*G01*
X14200Y292470D02*G75*G03X15800Y292470I800J0D01*G01*
G75*G03X14200Y292470I-800J0D01*G01*
X135000Y294720D02*X136500Y291720D01*
X138000Y294720D01*
X136500Y291720D02*Y288720D01*
X139800Y292020D02*X142050D01*
X139800Y288720D02*X142800D01*
X139800Y294720D02*Y288720D01*
Y294720D02*X142800D01*
X147600D02*X148350Y293970D01*
X145350Y294720D02*X147600D01*
X144600Y293970D02*X145350Y294720D01*
X144600Y293970D02*Y292470D01*
X145350Y291720D01*
X147600D01*
X148350Y290970D01*
Y289470D01*
X147600Y288720D02*X148350Y289470D01*
X145350Y288720D02*X147600D01*
X144600Y289470D02*X145350Y288720D01*
X98000Y293970D02*X98750Y294720D01*
X101000D01*
X101750Y293970D01*
Y292470D01*
X98000Y288720D02*X101750Y292470D01*
X98000Y288720D02*X101750D01*
X103550Y293970D02*X104300Y294720D01*
X106550D01*
X107300Y293970D01*
Y292470D01*
X103550Y288720D02*X107300Y292470D01*
X103550Y288720D02*X107300D01*
X45000Y289470D02*X45750Y288720D01*
X45000Y293970D02*Y289470D01*
Y293970D02*X45750Y294720D01*
X47250D01*
X48000Y293970D01*
Y289470D01*
X47250Y288720D02*X48000Y289470D01*
X45750Y288720D02*X47250D01*
X45000Y290220D02*X48000Y293220D01*
X49800Y288720D02*X50550D01*
X52350Y289470D02*X53100Y288720D01*
X52350Y293970D02*Y289470D01*
Y293970D02*X53100Y294720D01*
X54600D01*
X55350Y293970D01*
Y289470D01*
X54600Y288720D02*X55350Y289470D01*
X53100Y288720D02*X54600D01*
X52350Y290220D02*X55350Y293220D01*
X57150Y293970D02*X57900Y294720D01*
X59400D01*
X60150Y293970D01*
X59400Y288720D02*X60150Y289470D01*
X57900Y288720D02*X59400D01*
X57150Y289470D02*X57900Y288720D01*
Y292020D02*X59400D01*
X60150Y293970D02*Y292770D01*
Y291270D02*Y289470D01*
Y291270D02*X59400Y292020D01*
X60150Y292770D02*X59400Y292020D01*
X61950Y289470D02*X62700Y288720D01*
X61950Y290670D02*Y289470D01*
Y290670D02*X63000Y291720D01*
X63900D01*
X64950Y290670D01*
Y289470D01*
X64200Y288720D02*X64950Y289470D01*
X62700Y288720D02*X64200D01*
X61950Y292770D02*X63000Y291720D01*
X61950Y293970D02*Y292770D01*
Y293970D02*X62700Y294720D01*
X64200D01*
X64950Y293970D01*
Y292770D01*
X63900Y291720D02*X64950Y292770D01*
X83052Y199625D02*X85452Y197225D01*
X83052D02*X85452Y199625D01*
X83052Y225216D02*X85452Y222816D01*
X83052D02*X85452Y225216D01*
X65336Y199625D02*X67736Y197225D01*
X65336D02*X67736Y199625D01*
X65336Y225216D02*X67736Y222816D01*
X65336D02*X67736Y225216D01*
X138170Y199625D02*X140570Y197225D01*
X138170D02*X140570Y199625D01*
X138170Y225216D02*X140570Y222816D01*
X138170D02*X140570Y225216D01*
X120454Y199625D02*X122854Y197225D01*
X120454D02*X122854Y199625D01*
X120454Y225216D02*X122854Y222816D01*
X120454D02*X122854Y225216D01*
X192894Y199625D02*X195294Y197225D01*
X192894D02*X195294Y199625D01*
X192894Y225216D02*X195294Y222816D01*
X192894D02*X195294Y225216D01*
X175178Y199625D02*X177578Y197225D01*
X175178D02*X177578Y199625D01*
X175178Y225216D02*X177578Y222816D01*
X175178D02*X177578Y225216D01*
X248013Y199625D02*X250413Y197225D01*
X248013D02*X250413Y199625D01*
X248013Y225216D02*X250413Y222816D01*
X248013D02*X250413Y225216D01*
X230297Y199625D02*X232697Y197225D01*
X230297D02*X232697Y199625D01*
X230297Y225216D02*X232697Y222816D01*
X230297D02*X232697Y225216D01*
X66123Y74035D02*X68523Y71635D01*
X66123D02*X68523Y74035D01*
X73997D02*X76397Y71635D01*
X73997D02*X76397Y74035D01*
X81871D02*X84271Y71635D01*
X81871D02*X84271Y74035D01*
X89745D02*X92145Y71635D01*
X89745D02*X92145Y74035D01*
X97619D02*X100019Y71635D01*
X97619D02*X100019Y74035D01*
X105493D02*X107893Y71635D01*
X105493D02*X107893Y74035D01*
X113367D02*X115767Y71635D01*
X113367D02*X115767Y74035D01*
X121241D02*X123641Y71635D01*
X121241D02*X123641Y74035D01*
X129115D02*X131515Y71635D01*
X129115D02*X131515Y74035D01*
X136989D02*X139389Y71635D01*
X136989D02*X139389Y74035D01*
X144863D02*X147263Y71635D01*
X144863D02*X147263Y74035D01*
X152737D02*X155137Y71635D01*
X152737D02*X155137Y74035D01*
X160611D02*X163011Y71635D01*
X160611D02*X163011Y74035D01*
X168485D02*X170885Y71635D01*
X168485D02*X170885Y74035D01*
X176359D02*X178759Y71635D01*
X176359D02*X178759Y74035D01*
X184233D02*X186633Y71635D01*
X184233D02*X186633Y74035D01*
X192107D02*X194507Y71635D01*
X192107D02*X194507Y74035D01*
X199981D02*X202381Y71635D01*
X199981D02*X202381Y74035D01*
X207855D02*X210255Y71635D01*
X207855D02*X210255Y74035D01*
X215729D02*X218129Y71635D01*
X215729D02*X218129Y74035D01*
X223603D02*X226003Y71635D01*
X223603D02*X226003Y74035D01*
X231477D02*X233877Y71635D01*
X231477D02*X233877Y74035D01*
X239351D02*X241751Y71635D01*
X239351D02*X241751Y74035D01*
X247225D02*X249625Y71635D01*
X247225D02*X249625Y74035D01*
X247225Y184035D02*X249625Y181635D01*
X247225D02*X249625Y184035D01*
X239351D02*X241751Y181635D01*
X239351D02*X241751Y184035D01*
X231477D02*X233877Y181635D01*
X231477D02*X233877Y184035D01*
X223603D02*X226003Y181635D01*
X223603D02*X226003Y184035D01*
X215729D02*X218129Y181635D01*
X215729D02*X218129Y184035D01*
X207855D02*X210255Y181635D01*
X207855D02*X210255Y184035D01*
X199981D02*X202381Y181635D01*
X199981D02*X202381Y184035D01*
X192107D02*X194507Y181635D01*
X192107D02*X194507Y184035D01*
X184233D02*X186633Y181635D01*
X184233D02*X186633Y184035D01*
X176359D02*X178759Y181635D01*
X176359D02*X178759Y184035D01*
X168485D02*X170885Y181635D01*
X168485D02*X170885Y184035D01*
X160611D02*X163011Y181635D01*
X160611D02*X163011Y184035D01*
X152737D02*X155137Y181635D01*
X152737D02*X155137Y184035D01*
X144863D02*X147263Y181635D01*
X144863D02*X147263Y184035D01*
X136989D02*X139389Y181635D01*
X136989D02*X139389Y184035D01*
X129115D02*X131515Y181635D01*
X129115D02*X131515Y184035D01*
X121241D02*X123641Y181635D01*
X121241D02*X123641Y184035D01*
X113367D02*X115767Y181635D01*
X113367D02*X115767Y184035D01*
X105493D02*X107893Y181635D01*
X105493D02*X107893Y184035D01*
X97619D02*X100019Y181635D01*
X97619D02*X100019Y184035D01*
X89745D02*X92145Y181635D01*
X89745D02*X92145Y184035D01*
X81871D02*X84271Y181635D01*
X81871D02*X84271Y184035D01*
X73997D02*X76397Y181635D01*
X73997D02*X76397Y184035D01*
X66123D02*X68523Y181635D01*
X66123D02*X68523Y184035D01*
X262580Y157105D02*X264980Y154705D01*
X262580D02*X264980Y157105D01*
X262580Y131514D02*X264980Y129114D01*
X262580D02*X264980Y131514D01*
X13800Y308670D02*X16200Y306270D01*
X13800D02*X16200Y308670D01*
X135000Y309720D02*X136500Y306720D01*
X138000Y309720D01*
X136500Y306720D02*Y303720D01*
X139800Y307020D02*X142050D01*
X139800Y303720D02*X142800D01*
X139800Y309720D02*Y303720D01*
Y309720D02*X142800D01*
X147600D02*X148350Y308970D01*
X145350Y309720D02*X147600D01*
X144600Y308970D02*X145350Y309720D01*
X144600Y308970D02*Y307470D01*
X145350Y306720D01*
X147600D01*
X148350Y305970D01*
Y304470D01*
X147600Y303720D02*X148350Y304470D01*
X145350Y303720D02*X147600D01*
X144600Y304470D02*X145350Y303720D01*
X100250Y309720D02*X101000Y308970D01*
X98750Y309720D02*X100250D01*
X98000Y308970D02*X98750Y309720D01*
X98000Y308970D02*Y304470D01*
X98750Y303720D01*
X100250Y307020D02*X101000Y306270D01*
X98000Y307020D02*X100250D01*
X98750Y303720D02*X100250D01*
X101000Y304470D01*
Y306270D02*Y304470D01*
X105050Y309720D02*X105800Y308970D01*
X103550Y309720D02*X105050D01*
X102800Y308970D02*X103550Y309720D01*
X102800Y308970D02*Y304470D01*
X103550Y303720D01*
X105050Y307020D02*X105800Y306270D01*
X102800Y307020D02*X105050D01*
X103550Y303720D02*X105050D01*
X105800Y304470D01*
Y306270D02*Y304470D01*
X45000D02*X45750Y303720D01*
X45000Y308970D02*Y304470D01*
Y308970D02*X45750Y309720D01*
X47250D01*
X48000Y308970D01*
Y304470D01*
X47250Y303720D02*X48000Y304470D01*
X45750Y303720D02*X47250D01*
X45000Y305220D02*X48000Y308220D01*
X49800Y303720D02*X50550D01*
X52350Y304470D02*X53100Y303720D01*
X52350Y308970D02*Y304470D01*
Y308970D02*X53100Y309720D01*
X54600D01*
X55350Y308970D01*
Y304470D01*
X54600Y303720D02*X55350Y304470D01*
X53100Y303720D02*X54600D01*
X52350Y305220D02*X55350Y308220D01*
X57150Y308970D02*X57900Y309720D01*
X60150D01*
X60900Y308970D01*
Y307470D01*
X57150Y303720D02*X60900Y307470D01*
X57150Y303720D02*X60900D01*
X63450D02*X65700Y306720D01*
Y308970D02*Y306720D01*
X64950Y309720D02*X65700Y308970D01*
X63450Y309720D02*X64950D01*
X62700Y308970D02*X63450Y309720D01*
X62700Y308970D02*Y307470D01*
X63450Y306720D01*
X65700D01*
X183858Y143332D02*Y140132D01*
X182258Y141732D02*X185458D01*
X183858Y149332D02*Y146132D01*
X182258Y147732D02*X185458D01*
X203858Y140332D02*Y137132D01*
X202258Y138732D02*X205458D01*
X203858Y152332D02*Y149132D01*
X202258Y150732D02*X205458D01*
X15000Y324070D02*Y320870D01*
X13400Y322470D02*X16600D01*
X135000Y324720D02*X136500Y321720D01*
X138000Y324720D01*
X136500Y321720D02*Y318720D01*
X139800Y322020D02*X142050D01*
X139800Y318720D02*X142800D01*
X139800Y324720D02*Y318720D01*
Y324720D02*X142800D01*
X147600D02*X148350Y323970D01*
X145350Y324720D02*X147600D01*
X144600Y323970D02*X145350Y324720D01*
X144600Y323970D02*Y322470D01*
X145350Y321720D01*
X147600D01*
X148350Y320970D01*
Y319470D01*
X147600Y318720D02*X148350Y319470D01*
X145350Y318720D02*X147600D01*
X144600Y319470D02*X145350Y318720D01*
X98000Y320970D02*X101000Y324720D01*
X98000Y320970D02*X101750D01*
X101000Y324720D02*Y318720D01*
X45000Y319470D02*X45750Y318720D01*
X45000Y323970D02*Y319470D01*
Y323970D02*X45750Y324720D01*
X47250D01*
X48000Y323970D01*
Y319470D01*
X47250Y318720D02*X48000Y319470D01*
X45750Y318720D02*X47250D01*
X45000Y320220D02*X48000Y323220D01*
X49800Y318720D02*X50550D01*
X52350Y319470D02*X53100Y318720D01*
X52350Y323970D02*Y319470D01*
Y323970D02*X53100Y324720D01*
X54600D01*
X55350Y323970D01*
Y319470D01*
X54600Y318720D02*X55350Y319470D01*
X53100Y318720D02*X54600D01*
X52350Y320220D02*X55350Y323220D01*
X57150Y323970D02*X57900Y324720D01*
X60150D01*
X60900Y323970D01*
Y322470D01*
X57150Y318720D02*X60900Y322470D01*
X57150Y318720D02*X60900D01*
X62700Y319470D02*X63450Y318720D01*
X62700Y323970D02*Y319470D01*
Y323970D02*X63450Y324720D01*
X64950D01*
X65700Y323970D01*
Y319470D01*
X64950Y318720D02*X65700Y319470D01*
X63450Y318720D02*X64950D01*
X62700Y320220D02*X65700Y323220D01*
X100394Y111417D02*Y109817D01*
Y111417D02*X101781Y112217D01*
X100394Y111417D02*X99007Y112217D01*
X112992Y102756D02*Y101156D01*
Y102756D02*X114379Y103556D01*
X112992Y102756D02*X111605Y103556D01*
X100787Y103150D02*Y101550D01*
Y103150D02*X102174Y103950D01*
X100787Y103150D02*X99400Y103950D01*
X96063Y103150D02*Y101550D01*
Y103150D02*X97450Y103950D01*
X96063Y103150D02*X94676Y103950D01*
X91338Y103150D02*Y101550D01*
Y103150D02*X92725Y103950D01*
X91338Y103150D02*X89951Y103950D01*
X121260Y129528D02*Y127928D01*
Y129528D02*X122647Y130328D01*
X121260Y129528D02*X119873Y130328D01*
X121260Y124803D02*Y123203D01*
Y124803D02*X122647Y125603D01*
X121260Y124803D02*X119873Y125603D01*
X115748Y158661D02*Y157061D01*
Y158661D02*X117135Y159461D01*
X115748Y158661D02*X114361Y159461D01*
X121653Y152362D02*Y150762D01*
Y152362D02*X123040Y153162D01*
X121653Y152362D02*X120266Y153162D01*
X121653Y147244D02*Y145644D01*
Y147244D02*X123040Y148044D01*
X121653Y147244D02*X120266Y148044D01*
X238582Y128346D02*Y126746D01*
Y128346D02*X239969Y129146D01*
X238582Y128346D02*X237195Y129146D01*
X238583Y144882D02*Y143282D01*
Y144882D02*X239970Y145682D01*
X238583Y144882D02*X237196Y145682D01*
X231496Y135433D02*Y133833D01*
Y135433D02*X232883Y136233D01*
X231496Y135433D02*X230109Y136233D01*
X159842Y159449D02*Y157849D01*
Y159449D02*X161229Y160249D01*
X159842Y159449D02*X158455Y160249D01*
X142126Y157087D02*Y155487D01*
Y157087D02*X143513Y157887D01*
X142126Y157087D02*X140739Y157887D01*
X187402Y119291D02*Y117691D01*
Y119291D02*X188789Y120091D01*
X187402Y119291D02*X186015Y120091D01*
X231496Y173622D02*Y172022D01*
Y173622D02*X232883Y174422D01*
X231496Y173622D02*X230109Y174422D01*
X150000Y134251D02*Y132651D01*
Y134251D02*X151387Y135051D01*
X150000Y134251D02*X148613Y135051D01*
X158268Y135826D02*Y134226D01*
Y135826D02*X159655Y136626D01*
X158268Y135826D02*X156881Y136626D01*
X158661Y139763D02*Y138163D01*
Y139763D02*X160048Y140563D01*
X158661Y139763D02*X157274Y140563D01*
X155118Y157874D02*Y156274D01*
Y157874D02*X156505Y158674D01*
X155118Y157874D02*X153731Y158674D01*
X238583Y167716D02*Y166116D01*
Y167716D02*X239970Y168516D01*
X238583Y167716D02*X237196Y168516D01*
X151181Y157874D02*Y156274D01*
Y157874D02*X152568Y158674D01*
X151181Y157874D02*X149794Y158674D01*
X153937Y129133D02*Y127533D01*
Y129133D02*X155324Y129933D01*
X153937Y129133D02*X152550Y129933D01*
X160630Y144488D02*Y142888D01*
Y144488D02*X162017Y145288D01*
X160630Y144488D02*X159243Y145288D01*
X150000Y151574D02*Y149974D01*
Y151574D02*X151387Y152374D01*
X150000Y151574D02*X148613Y152374D01*
X256299Y151968D02*Y150368D01*
Y151968D02*X257686Y152768D01*
X256299Y151968D02*X254912Y152768D01*
X256299Y216142D02*Y214542D01*
Y216142D02*X257686Y216942D01*
X256299Y216142D02*X254912Y216942D01*
X235039Y129921D02*Y128321D01*
Y129921D02*X236426Y130721D01*
X235039Y129921D02*X233652Y130721D01*
X231890Y126772D02*Y125172D01*
Y126772D02*X233277Y127572D01*
X231890Y126772D02*X230503Y127572D01*
X228346Y124016D02*Y122416D01*
Y124016D02*X229733Y124816D01*
X228346Y124016D02*X226959Y124816D01*
X224803Y120866D02*Y119266D01*
Y120866D02*X226190Y121666D01*
X224803Y120866D02*X223416Y121666D01*
X221260Y117716D02*Y116116D01*
Y117716D02*X222647Y118516D01*
X221260Y117716D02*X219873Y118516D01*
X216142Y114961D02*Y113361D01*
Y114961D02*X217529Y115761D01*
X216142Y114961D02*X214755Y115761D01*
X211024Y112205D02*Y110605D01*
Y112205D02*X212411Y113005D01*
X211024Y112205D02*X209637Y113005D01*
X148031Y173622D02*Y172022D01*
Y173622D02*X149418Y174422D01*
X148031Y173622D02*X146644Y174422D01*
X241338Y159449D02*Y157849D01*
Y159449D02*X242725Y160249D01*
X241338Y159449D02*X239951Y160249D01*
X250000Y140157D02*Y138557D01*
Y140157D02*X251387Y140957D01*
X250000Y140157D02*X248613Y140957D01*
X244488Y187402D02*Y185802D01*
Y187402D02*X245875Y188202D01*
X244488Y187402D02*X243101Y188202D01*
X159449Y126772D02*Y125172D01*
Y126772D02*X160836Y127572D01*
X159449Y126772D02*X158062Y127572D01*
X155512Y124016D02*Y122416D01*
Y124016D02*X156899Y124816D01*
X155512Y124016D02*X154125Y124816D01*
X151575Y121260D02*Y119660D01*
Y121260D02*X152962Y122060D01*
X151575Y121260D02*X150188Y122060D01*
X147638Y118504D02*Y116904D01*
Y118504D02*X149025Y119304D01*
X147638Y118504D02*X146251Y119304D01*
X143701Y115748D02*Y114148D01*
Y115748D02*X145088Y116548D01*
X143701Y115748D02*X142314Y116548D01*
X139764Y112992D02*Y111392D01*
Y112992D02*X141151Y113792D01*
X139764Y112992D02*X138377Y113792D01*
X110630Y170472D02*Y168872D01*
Y170472D02*X112017Y171272D01*
X110630Y170472D02*X109243Y171272D01*
X161811Y173622D02*Y172022D01*
Y173622D02*X163198Y174422D01*
X161811Y173622D02*X160424Y174422D01*
X163779Y159449D02*Y157849D01*
Y159449D02*X165166Y160249D01*
X163779Y159449D02*X162392Y160249D01*
X115748Y112205D02*Y110605D01*
Y112205D02*X117135Y113005D01*
X115748Y112205D02*X114361Y113005D01*
X274803Y170472D02*Y168872D01*
Y170472D02*X276190Y171272D01*
X274803Y170472D02*X273416Y171272D01*
X55512Y87007D02*Y85407D01*
Y87007D02*X56899Y87807D01*
X55512Y87007D02*X54125Y87807D01*
X268111Y15354D02*Y13754D01*
Y15354D02*X269498Y16154D01*
X268111Y15354D02*X266724Y16154D01*
X264174Y15354D02*Y13754D01*
Y15354D02*X265561Y16154D01*
X264174Y15354D02*X262787Y16154D01*
X10236Y161811D02*Y160211D01*
Y161811D02*X11623Y162611D01*
X10236Y161811D02*X8849Y162611D01*
X57480Y175197D02*Y173597D01*
Y175197D02*X58867Y175997D01*
X57480Y175197D02*X56093Y175997D01*
X163780Y130708D02*Y129108D01*
Y130708D02*X165167Y131508D01*
X163780Y130708D02*X162393Y131508D01*
X158268Y131102D02*Y129502D01*
Y131102D02*X159655Y131902D01*
X158268Y131102D02*X156881Y131902D01*
X186614Y158661D02*Y157061D01*
Y158661D02*X188001Y159461D01*
X186614Y158661D02*X185227Y159461D01*
X16536Y58267D02*Y56667D01*
Y58267D02*X17923Y59067D01*
X16536Y58267D02*X15149Y59067D01*
X188976Y130708D02*Y129108D01*
Y130708D02*X190363Y131508D01*
X188976Y130708D02*X187589Y131508D01*
X15000Y337470D02*Y335870D01*
Y337470D02*X16387Y338270D01*
X15000Y337470D02*X13613Y338270D01*
X135000Y339720D02*X136500Y336720D01*
X138000Y339720D01*
X136500Y336720D02*Y333720D01*
X139800Y337020D02*X142050D01*
X139800Y333720D02*X142800D01*
X139800Y339720D02*Y333720D01*
Y339720D02*X142800D01*
X147600D02*X148350Y338970D01*
X145350Y339720D02*X147600D01*
X144600Y338970D02*X145350Y339720D01*
X144600Y338970D02*Y337470D01*
X145350Y336720D01*
X147600D01*
X148350Y335970D01*
Y334470D01*
X147600Y333720D02*X148350Y334470D01*
X145350Y333720D02*X147600D01*
X144600Y334470D02*X145350Y333720D01*
X100250Y339720D02*X101000Y338970D01*
X98750Y339720D02*X100250D01*
X98000Y338970D02*X98750Y339720D01*
X98000Y338970D02*Y334470D01*
X98750Y333720D01*
X100250Y337020D02*X101000Y336270D01*
X98000Y337020D02*X100250D01*
X98750Y333720D02*X100250D01*
X101000Y334470D01*
Y336270D02*Y334470D01*
X102800D02*X103550Y333720D01*
X102800Y338970D02*Y334470D01*
Y338970D02*X103550Y339720D01*
X105050D01*
X105800Y338970D01*
Y334470D01*
X105050Y333720D02*X105800Y334470D01*
X103550Y333720D02*X105050D01*
X102800Y335220D02*X105800Y338220D01*
X45000Y334470D02*X45750Y333720D01*
X45000Y338970D02*Y334470D01*
Y338970D02*X45750Y339720D01*
X47250D01*
X48000Y338970D01*
Y334470D01*
X47250Y333720D02*X48000Y334470D01*
X45750Y333720D02*X47250D01*
X45000Y335220D02*X48000Y338220D01*
X49800Y333720D02*X50550D01*
X52350Y334470D02*X53100Y333720D01*
X52350Y338970D02*Y334470D01*
Y338970D02*X53100Y339720D01*
X54600D01*
X55350Y338970D01*
Y334470D01*
X54600Y333720D02*X55350Y334470D01*
X53100Y333720D02*X54600D01*
X52350Y335220D02*X55350Y338220D01*
X57150Y338520D02*X58350Y339720D01*
Y333720D01*
X57150D02*X59400D01*
X61200Y338970D02*X61950Y339720D01*
X64200D01*
X64950Y338970D01*
Y337470D01*
X61200Y333720D02*X64950Y337470D01*
X61200Y333720D02*X64950D01*
X3000Y354720D02*X3750Y353970D01*
X750Y354720D02*X3000D01*
X0Y353970D02*X750Y354720D01*
X0Y353970D02*Y352470D01*
X750Y351720D01*
X3000D01*
X3750Y350970D01*
Y349470D01*
X3000Y348720D02*X3750Y349470D01*
X750Y348720D02*X3000D01*
X0Y349470D02*X750Y348720D01*
X5550Y351720D02*Y349470D01*
X6300Y348720D01*
X8550Y351720D02*Y347220D01*
X7800Y346470D02*X8550Y347220D01*
X6300Y346470D02*X7800D01*
X5550Y347220D02*X6300Y346470D01*
Y348720D02*X7800D01*
X8550Y349470D01*
X11100Y350970D02*Y348720D01*
Y350970D02*X11850Y351720D01*
X12600D01*
X13350Y350970D01*
Y348720D01*
Y350970D02*X14100Y351720D01*
X14850D01*
X15600Y350970D01*
Y348720D01*
X10350Y351720D02*X11100Y350970D01*
X17400Y354720D02*Y348720D01*
Y349470D02*X18150Y348720D01*
X19650D01*
X20400Y349470D01*
Y350970D02*Y349470D01*
X19650Y351720D02*X20400Y350970D01*
X18150Y351720D02*X19650D01*
X17400Y350970D02*X18150Y351720D01*
X22200Y350970D02*Y349470D01*
Y350970D02*X22950Y351720D01*
X24450D01*
X25200Y350970D01*
Y349470D01*
X24450Y348720D02*X25200Y349470D01*
X22950Y348720D02*X24450D01*
X22200Y349470D02*X22950Y348720D01*
X27000Y354720D02*Y349470D01*
X27750Y348720D01*
X0Y345470D02*X29250D01*
X41750Y354720D02*Y348720D01*
X43700Y354720D02*X44750Y353670D01*
Y349770D01*
X43700Y348720D02*X44750Y349770D01*
X41000Y348720D02*X43700D01*
X41000Y354720D02*X43700D01*
G54D101*X46550Y353220D02*Y353070D01*
G54D100*Y350970D02*Y348720D01*
X50300Y351720D02*X51050Y350970D01*
X48800Y351720D02*X50300D01*
X48050Y350970D02*X48800Y351720D01*
X48050Y350970D02*Y349470D01*
X48800Y348720D01*
X51050Y351720D02*Y349470D01*
X51800Y348720D01*
X48800D02*X50300D01*
X51050Y349470D01*
X54350Y350970D02*Y348720D01*
Y350970D02*X55100Y351720D01*
X55850D01*
X56600Y350970D01*
Y348720D01*
Y350970D02*X57350Y351720D01*
X58100D01*
X58850Y350970D01*
Y348720D01*
X53600Y351720D02*X54350Y350970D01*
X60650Y348720D02*X61400D01*
X65900Y349470D02*X66650Y348720D01*
X65900Y353970D02*X66650Y354720D01*
X65900Y353970D02*Y349470D01*
X68450Y354720D02*X69950D01*
X69200D02*Y348720D01*
X68450D02*X69950D01*
X72500Y350970D02*Y348720D01*
Y350970D02*X73250Y351720D01*
X74000D01*
X74750Y350970D01*
Y348720D01*
X71750Y351720D02*X72500Y350970D01*
X77300Y351720D02*X79550D01*
X76550Y350970D02*X77300Y351720D01*
X76550Y350970D02*Y349470D01*
X77300Y348720D01*
X79550D01*
X81350Y354720D02*Y348720D01*
Y350970D02*X82100Y351720D01*
X83600D01*
X84350Y350970D01*
Y348720D01*
X86150Y354720D02*X86900Y353970D01*
Y349470D01*
X86150Y348720D02*X86900Y349470D01*
X41000Y345470D02*X88700D01*
X96050Y348720D02*X98000D01*
X95000Y349770D02*X96050Y348720D01*
X95000Y353670D02*Y349770D01*
Y353670D02*X96050Y354720D01*
X98000D01*
X99800Y350970D02*Y349470D01*
Y350970D02*X100550Y351720D01*
X102050D01*
X102800Y350970D01*
Y349470D01*
X102050Y348720D02*X102800Y349470D01*
X100550Y348720D02*X102050D01*
X99800Y349470D02*X100550Y348720D01*
X104600Y351720D02*Y349470D01*
X105350Y348720D01*
X106850D01*
X107600Y349470D01*
Y351720D02*Y349470D01*
X110150Y350970D02*Y348720D01*
Y350970D02*X110900Y351720D01*
X111650D01*
X112400Y350970D01*
Y348720D01*
X109400Y351720D02*X110150Y350970D01*
X114950Y354720D02*Y349470D01*
X115700Y348720D01*
X114200Y352470D02*X115700D01*
X95000Y345470D02*X117200D01*
X130750Y354720D02*Y348720D01*
X130000Y354720D02*X133000D01*
X133750Y353970D01*
Y352470D01*
X133000Y351720D02*X133750Y352470D01*
X130750Y351720D02*X133000D01*
X135550Y354720D02*Y349470D01*
X136300Y348720D01*
X140050Y351720D02*X140800Y350970D01*
X138550Y351720D02*X140050D01*
X137800Y350970D02*X138550Y351720D01*
X137800Y350970D02*Y349470D01*
X138550Y348720D01*
X140800Y351720D02*Y349470D01*
X141550Y348720D01*
X138550D02*X140050D01*
X140800Y349470D01*
X144100Y354720D02*Y349470D01*
X144850Y348720D01*
X143350Y352470D02*X144850D01*
X147100Y348720D02*X149350D01*
X146350Y349470D02*X147100Y348720D01*
X146350Y350970D02*Y349470D01*
Y350970D02*X147100Y351720D01*
X148600D01*
X149350Y350970D01*
X146350Y350220D02*X149350D01*
Y350970D02*Y350220D01*
X154150Y354720D02*Y348720D01*
X153400D02*X154150Y349470D01*
X151900Y348720D02*X153400D01*
X151150Y349470D02*X151900Y348720D01*
X151150Y350970D02*Y349470D01*
Y350970D02*X151900Y351720D01*
X153400D01*
X154150Y350970D01*
X157450Y351720D02*Y350970D01*
Y349470D02*Y348720D01*
X155950Y353970D02*Y353220D01*
Y353970D02*X156700Y354720D01*
X158200D01*
X158950Y353970D01*
Y353220D01*
X157450Y351720D02*X158950Y353220D01*
X130000Y345470D02*X160750D01*
X0Y369720D02*X3000D01*
X1500D02*Y363720D01*
X4800Y369720D02*Y363720D01*
Y365970D02*X5550Y366720D01*
X7050D01*
X7800Y365970D01*
Y363720D01*
X10350D02*X12600D01*
X9600Y364470D02*X10350Y363720D01*
X9600Y365970D02*Y364470D01*
Y365970D02*X10350Y366720D01*
X11850D01*
X12600Y365970D01*
X9600Y365220D02*X12600D01*
Y365970D02*Y365220D01*
X15150Y365970D02*Y363720D01*
Y365970D02*X15900Y366720D01*
X17400D01*
X14400D02*X15150Y365970D01*
X19950Y363720D02*X22200D01*
X19200Y364470D02*X19950Y363720D01*
X19200Y365970D02*Y364470D01*
Y365970D02*X19950Y366720D01*
X21450D01*
X22200Y365970D01*
X19200Y365220D02*X22200D01*
Y365970D02*Y365220D01*
X28950Y366720D02*X29700Y365970D01*
X27450Y366720D02*X28950D01*
X26700Y365970D02*X27450Y366720D01*
X26700Y365970D02*Y364470D01*
X27450Y363720D01*
X29700Y366720D02*Y364470D01*
X30450Y363720D01*
X27450D02*X28950D01*
X29700Y364470D01*
X33000Y365970D02*Y363720D01*
Y365970D02*X33750Y366720D01*
X35250D01*
X32250D02*X33000Y365970D01*
X37800Y363720D02*X40050D01*
X37050Y364470D02*X37800Y363720D01*
X37050Y365970D02*Y364470D01*
Y365970D02*X37800Y366720D01*
X39300D01*
X40050Y365970D01*
X37050Y365220D02*X40050D01*
Y365970D02*Y365220D01*
X45300Y363720D02*X48300Y369720D01*
X44550D02*X48300D01*
X55800D02*Y363720D01*
X55050D02*X55800Y364470D01*
X53550Y363720D02*X55050D01*
X52800Y364470D02*X53550Y363720D01*
X52800Y365970D02*Y364470D01*
Y365970D02*X53550Y366720D01*
X55050D01*
X55800Y365970D01*
G54D101*X57600Y368220D02*Y368070D01*
G54D100*Y365970D02*Y363720D01*
X59850Y368970D02*Y363720D01*
Y368970D02*X60600Y369720D01*
X61350D01*
X59100Y366720D02*X60600D01*
X63600Y368970D02*Y363720D01*
Y368970D02*X64350Y369720D01*
X65100D01*
X62850Y366720D02*X64350D01*
X67350Y363720D02*X69600D01*
X66600Y364470D02*X67350Y363720D01*
X66600Y365970D02*Y364470D01*
Y365970D02*X67350Y366720D01*
X68850D01*
X69600Y365970D01*
X66600Y365220D02*X69600D01*
Y365970D02*Y365220D01*
X72150Y365970D02*Y363720D01*
Y365970D02*X72900Y366720D01*
X74400D01*
X71400D02*X72150Y365970D01*
X76950Y363720D02*X79200D01*
X76200Y364470D02*X76950Y363720D01*
X76200Y365970D02*Y364470D01*
Y365970D02*X76950Y366720D01*
X78450D01*
X79200Y365970D01*
X76200Y365220D02*X79200D01*
Y365970D02*Y365220D01*
X81750Y365970D02*Y363720D01*
Y365970D02*X82500Y366720D01*
X83250D01*
X84000Y365970D01*
Y363720D01*
X81000Y366720D02*X81750Y365970D01*
X86550Y369720D02*Y364470D01*
X87300Y363720D01*
X85800Y367470D02*X87300D01*
X94500Y369720D02*Y363720D01*
X93750D02*X94500Y364470D01*
X92250Y363720D02*X93750D01*
X91500Y364470D02*X92250Y363720D01*
X91500Y365970D02*Y364470D01*
Y365970D02*X92250Y366720D01*
X93750D01*
X94500Y365970D01*
X97050D02*Y363720D01*
Y365970D02*X97800Y366720D01*
X99300D01*
X96300D02*X97050Y365970D01*
G54D101*X101100Y368220D02*Y368070D01*
G54D100*Y365970D02*Y363720D01*
X102600Y369720D02*Y364470D01*
X103350Y363720D01*
X104850Y369720D02*Y364470D01*
X105600Y363720D01*
X110550D02*X112800D01*
X113550Y364470D01*
X112800Y365220D02*X113550Y364470D01*
X110550Y365220D02*X112800D01*
X109800Y365970D02*X110550Y365220D01*
X109800Y365970D02*X110550Y366720D01*
X112800D01*
X113550Y365970D01*
X109800Y364470D02*X110550Y363720D01*
G54D101*X115350Y368220D02*Y368070D01*
G54D100*Y365970D02*Y363720D01*
X116850Y366720D02*X119850D01*
X116850Y363720D02*X119850Y366720D01*
X116850Y363720D02*X119850D01*
X122400D02*X124650D01*
X121650Y364470D02*X122400Y363720D01*
X121650Y365970D02*Y364470D01*
Y365970D02*X122400Y366720D01*
X123900D01*
X124650Y365970D01*
X121650Y365220D02*X124650D01*
Y365970D02*Y365220D01*
X127200Y363720D02*X129450D01*
X130200Y364470D01*
X129450Y365220D02*X130200Y364470D01*
X127200Y365220D02*X129450D01*
X126450Y365970D02*X127200Y365220D01*
X126450Y365970D02*X127200Y366720D01*
X129450D01*
X130200Y365970D01*
X126450Y364470D02*X127200Y363720D01*
X134700Y366720D02*Y364470D01*
X135450Y363720D01*
X136950D01*
X137700Y364470D01*
Y366720D02*Y364470D01*
X140250Y363720D02*X142500D01*
X143250Y364470D01*
X142500Y365220D02*X143250Y364470D01*
X140250Y365220D02*X142500D01*
X139500Y365970D02*X140250Y365220D01*
X139500Y365970D02*X140250Y366720D01*
X142500D01*
X143250Y365970D01*
X139500Y364470D02*X140250Y363720D01*
X145800D02*X148050D01*
X145050Y364470D02*X145800Y363720D01*
X145050Y365970D02*Y364470D01*
Y365970D02*X145800Y366720D01*
X147300D01*
X148050Y365970D01*
X145050Y365220D02*X148050D01*
Y365970D02*Y365220D01*
X152850Y369720D02*Y363720D01*
X152100D02*X152850Y364470D01*
X150600Y363720D02*X152100D01*
X149850Y364470D02*X150600Y363720D01*
X149850Y365970D02*Y364470D01*
Y365970D02*X150600Y366720D01*
X152100D01*
X152850Y365970D01*
G54D101*X157350Y368220D02*Y368070D01*
G54D100*Y365970D02*Y363720D01*
X159600Y365970D02*Y363720D01*
Y365970D02*X160350Y366720D01*
X161100D01*
X161850Y365970D01*
Y363720D01*
X158850Y366720D02*X159600Y365970D01*
X167100Y369720D02*Y364470D01*
X167850Y363720D01*
X166350Y367470D02*X167850D01*
X169350Y369720D02*Y363720D01*
Y365970D02*X170100Y366720D01*
X171600D01*
X172350Y365970D01*
Y363720D01*
G54D101*X174150Y368220D02*Y368070D01*
G54D100*Y365970D02*Y363720D01*
X176400D02*X178650D01*
X179400Y364470D01*
X178650Y365220D02*X179400Y364470D01*
X176400Y365220D02*X178650D01*
X175650Y365970D02*X176400Y365220D01*
X175650Y365970D02*X176400Y366720D01*
X178650D01*
X179400Y365970D01*
X175650Y364470D02*X176400Y363720D01*
X183900Y369720D02*Y364470D01*
X184650Y363720D01*
X188400Y366720D02*X189150Y365970D01*
X186900Y366720D02*X188400D01*
X186150Y365970D02*X186900Y366720D01*
X186150Y365970D02*Y364470D01*
X186900Y363720D01*
X189150Y366720D02*Y364470D01*
X189900Y363720D01*
X186900D02*X188400D01*
X189150Y364470D01*
X191700Y366720D02*Y364470D01*
X192450Y363720D01*
X194700Y366720D02*Y362220D01*
X193950Y361470D02*X194700Y362220D01*
X192450Y361470D02*X193950D01*
X191700Y362220D02*X192450Y361470D01*
Y363720D02*X193950D01*
X194700Y364470D01*
X196500Y365970D02*Y364470D01*
Y365970D02*X197250Y366720D01*
X198750D01*
X199500Y365970D01*
Y364470D01*
X198750Y363720D02*X199500Y364470D01*
X197250Y363720D02*X198750D01*
X196500Y364470D02*X197250Y363720D01*
X201300Y366720D02*Y364470D01*
X202050Y363720D01*
X203550D01*
X204300Y364470D01*
Y366720D02*Y364470D01*
X206850Y369720D02*Y364470D01*
X207600Y363720D01*
X206100Y367470D02*X207600D01*
X209100Y362220D02*X210600Y363720D01*
X215100Y368520D02*X216300Y369720D01*
Y363720D01*
X215100D02*X217350D01*
X221400Y369720D02*X222150Y368970D01*
X219900Y369720D02*X221400D01*
X219150Y368970D02*X219900Y369720D01*
X219150Y368970D02*Y364470D01*
X219900Y363720D01*
X221400Y367020D02*X222150Y366270D01*
X219150Y367020D02*X221400D01*
X219900Y363720D02*X221400D01*
X222150Y364470D01*
Y366270D02*Y364470D01*
X223950Y368520D02*X225150Y369720D01*
Y363720D01*
X223950D02*X226200D01*
X230700Y369720D02*Y363720D01*
Y365970D02*X231450Y366720D01*
X232950D01*
X233700Y365970D01*
Y363720D01*
X235500Y365970D02*Y364470D01*
Y365970D02*X236250Y366720D01*
X237750D01*
X238500Y365970D01*
Y364470D01*
X237750Y363720D02*X238500Y364470D01*
X236250Y363720D02*X237750D01*
X235500Y364470D02*X236250Y363720D01*
X240300Y369720D02*Y364470D01*
X241050Y363720D01*
X243300D02*X245550D01*
X242550Y364470D02*X243300Y363720D01*
X242550Y365970D02*Y364470D01*
Y365970D02*X243300Y366720D01*
X244800D01*
X245550Y365970D01*
X242550Y365220D02*X245550D01*
Y365970D02*Y365220D01*
X248100Y363720D02*X250350D01*
X251100Y364470D01*
X250350Y365220D02*X251100Y364470D01*
X248100Y365220D02*X250350D01*
X247350Y365970D02*X248100Y365220D01*
X247350Y365970D02*X248100Y366720D01*
X250350D01*
X251100Y365970D01*
X247350Y364470D02*X248100Y363720D01*
X256350Y369720D02*Y364470D01*
X257100Y363720D01*
X255600Y367470D02*X257100D01*
X258600Y365970D02*Y364470D01*
Y365970D02*X259350Y366720D01*
X260850D01*
X261600Y365970D01*
Y364470D01*
X260850Y363720D02*X261600Y364470D01*
X259350Y363720D02*X260850D01*
X258600Y364470D02*X259350Y363720D01*
X264150Y369720D02*Y364470D01*
X264900Y363720D01*
X263400Y367470D02*X264900D01*
X268650Y366720D02*X269400Y365970D01*
X267150Y366720D02*X268650D01*
X266400Y365970D02*X267150Y366720D01*
X266400Y365970D02*Y364470D01*
X267150Y363720D01*
X269400Y366720D02*Y364470D01*
X270150Y363720D01*
X267150D02*X268650D01*
X269400Y364470D01*
X271950Y369720D02*Y364470D01*
X272700Y363720D01*
G54D102*X0Y236220D02*X314961D01*
X0D02*Y0D01*
X314961Y236220D02*Y0D01*
X0D02*X314961D01*
G54D100*X200000Y249720D02*Y243720D01*
Y249720D02*X202250Y246720D01*
X204500Y249720D01*
Y243720D01*
X208550Y246720D02*X209300Y245970D01*
X207050Y246720D02*X208550D01*
X206300Y245970D02*X207050Y246720D01*
X206300Y245970D02*Y244470D01*
X207050Y243720D01*
X209300Y246720D02*Y244470D01*
X210050Y243720D01*
X207050D02*X208550D01*
X209300Y244470D01*
X211850Y246720D02*X214850Y243720D01*
X211850D02*X214850Y246720D01*
G54D101*X216650Y248220D02*Y248070D01*
G54D100*Y245970D02*Y243720D01*
X218900Y245970D02*Y243720D01*
Y245970D02*X219650Y246720D01*
X220400D01*
X221150Y245970D01*
Y243720D01*
Y245970D02*X221900Y246720D01*
X222650D01*
X223400Y245970D01*
Y243720D01*
X218150Y246720D02*X218900Y245970D01*
X225200Y246720D02*Y244470D01*
X225950Y243720D01*
X227450D01*
X228200Y244470D01*
Y246720D02*Y244470D01*
X230750Y245970D02*Y243720D01*
Y245970D02*X231500Y246720D01*
X232250D01*
X233000Y245970D01*
Y243720D01*
Y245970D02*X233750Y246720D01*
X234500D01*
X235250Y245970D01*
Y243720D01*
X230000Y246720D02*X230750Y245970D01*
X240500Y249720D02*Y243720D01*
X242450Y249720D02*X243500Y248670D01*
Y244770D01*
X242450Y243720D02*X243500Y244770D01*
X239750Y243720D02*X242450D01*
X239750Y249720D02*X242450D01*
G54D101*X245300Y248220D02*Y248070D01*
G54D100*Y245970D02*Y243720D01*
X247550Y245970D02*Y243720D01*
Y245970D02*X248300Y246720D01*
X249050D01*
X249800Y245970D01*
Y243720D01*
Y245970D02*X250550Y246720D01*
X251300D01*
X252050Y245970D01*
Y243720D01*
X246800Y246720D02*X247550Y245970D01*
X254600Y243720D02*X256850D01*
X253850Y244470D02*X254600Y243720D01*
X253850Y245970D02*Y244470D01*
Y245970D02*X254600Y246720D01*
X256100D01*
X256850Y245970D01*
X253850Y245220D02*X256850D01*
Y245970D02*Y245220D01*
X259400Y245970D02*Y243720D01*
Y245970D02*X260150Y246720D01*
X260900D01*
X261650Y245970D01*
Y243720D01*
X258650Y246720D02*X259400Y245970D01*
X264200Y243720D02*X266450D01*
X267200Y244470D01*
X266450Y245220D02*X267200Y244470D01*
X264200Y245220D02*X266450D01*
X263450Y245970D02*X264200Y245220D01*
X263450Y245970D02*X264200Y246720D01*
X266450D01*
X267200Y245970D01*
X263450Y244470D02*X264200Y243720D01*
G54D101*X269000Y248220D02*Y248070D01*
G54D100*Y245970D02*Y243720D01*
X270500Y245970D02*Y244470D01*
Y245970D02*X271250Y246720D01*
X272750D01*
X273500Y245970D01*
Y244470D01*
X272750Y243720D02*X273500Y244470D01*
X271250Y243720D02*X272750D01*
X270500Y244470D02*X271250Y243720D01*
X276050Y245970D02*Y243720D01*
Y245970D02*X276800Y246720D01*
X277550D01*
X278300Y245970D01*
Y243720D01*
X275300Y246720D02*X276050Y245970D01*
X280850Y243720D02*X283100D01*
X283850Y244470D01*
X283100Y245220D02*X283850Y244470D01*
X280850Y245220D02*X283100D01*
X280100Y245970D02*X280850Y245220D01*
X280100Y245970D02*X280850Y246720D01*
X283100D01*
X283850Y245970D01*
X280100Y244470D02*X280850Y243720D01*
X285650Y247470D02*X286400D01*
X285650Y245970D02*X286400D01*
X290900Y248970D02*X291650Y249720D01*
X293150D01*
X293900Y248970D01*
X293150Y243720D02*X293900Y244470D01*
X291650Y243720D02*X293150D01*
X290900Y244470D02*X291650Y243720D01*
Y247020D02*X293150D01*
X293900Y248970D02*Y247770D01*
Y246270D02*Y244470D01*
Y246270D02*X293150Y247020D01*
X293900Y247770D02*X293150Y247020D01*
X295700Y248520D02*X296900Y249720D01*
Y243720D01*
X295700D02*X297950D01*
X299750Y245970D02*X302750Y249720D01*
X299750Y245970D02*X303500D01*
X302750Y249720D02*Y243720D01*
X306050D02*X308300Y246720D01*
Y248970D02*Y246720D01*
X307550Y249720D02*X308300Y248970D01*
X306050Y249720D02*X307550D01*
X305300Y248970D02*X306050Y249720D01*
X305300Y248970D02*Y247470D01*
X306050Y246720D01*
X308300D01*
X310100Y243720D02*X310850D01*
X314900Y249720D02*X315650Y248970D01*
X313400Y249720D02*X314900D01*
X312650Y248970D02*X313400Y249720D01*
X312650Y248970D02*Y244470D01*
X313400Y243720D01*
X314900Y247020D02*X315650Y246270D01*
X312650Y247020D02*X314900D01*
X313400Y243720D02*X314900D01*
X315650Y244470D01*
Y246270D02*Y244470D01*
X317450Y248520D02*X318650Y249720D01*
Y243720D01*
X317450D02*X319700D01*
X321500Y244470D02*X322250Y243720D01*
X321500Y248970D02*Y244470D01*
Y248970D02*X322250Y249720D01*
X323750D01*
X324500Y248970D01*
Y244470D01*
X323750Y243720D02*X324500Y244470D01*
X322250Y243720D02*X323750D01*
X321500Y245220D02*X324500Y248220D01*
X326300Y244470D02*X327050Y243720D01*
X326300Y248970D02*Y244470D01*
Y248970D02*X327050Y249720D01*
X328550D01*
X329300Y248970D01*
Y244470D01*
X328550Y243720D02*X329300Y244470D01*
X327050Y243720D02*X328550D01*
X326300Y245220D02*X329300Y248220D01*
X331100Y244470D02*X331850Y243720D01*
X331100Y248970D02*Y244470D01*
Y248970D02*X331850Y249720D01*
X333350D01*
X334100Y248970D01*
Y244470D01*
X333350Y243720D02*X334100Y244470D01*
X331850Y243720D02*X333350D01*
X331100Y245220D02*X334100Y248220D01*
X335900Y244470D02*X336650Y243720D01*
X335900Y248970D02*Y244470D01*
Y248970D02*X336650Y249720D01*
X338150D01*
X338900Y248970D01*
Y244470D01*
X338150Y243720D02*X338900Y244470D01*
X336650Y243720D02*X338150D01*
X335900Y245220D02*X338900Y248220D01*
X344150Y245970D02*Y243720D01*
Y245970D02*X344900Y246720D01*
X345650D01*
X346400Y245970D01*
Y243720D01*
Y245970D02*X347150Y246720D01*
X347900D01*
X348650Y245970D01*
Y243720D01*
X343400Y246720D02*X344150Y245970D01*
G54D101*X350450Y248220D02*Y248070D01*
G54D100*Y245970D02*Y243720D01*
X351950Y249720D02*Y244470D01*
X352700Y243720D01*
X354950D02*X357200D01*
X357950Y244470D01*
X357200Y245220D02*X357950Y244470D01*
X354950Y245220D02*X357200D01*
X354200Y245970D02*X354950Y245220D01*
X354200Y245970D02*X354950Y246720D01*
X357200D01*
X357950Y245970D01*
X354200Y244470D02*X354950Y243720D01*
X362450Y246720D02*Y244470D01*
X363200Y243720D01*
X363950D01*
X364700Y244470D01*
Y246720D02*Y244470D01*
X365450Y243720D01*
X366200D01*
X366950Y244470D01*
Y246720D02*Y244470D01*
G54D101*X368750Y248220D02*Y248070D01*
G54D100*Y245970D02*Y243720D01*
X373250Y249720D02*Y243720D01*
X372500D02*X373250Y244470D01*
X371000Y243720D02*X372500D01*
X370250Y244470D02*X371000Y243720D01*
X370250Y245970D02*Y244470D01*
Y245970D02*X371000Y246720D01*
X372500D01*
X373250Y245970D01*
X375800Y243720D02*X378050D01*
X375050Y244470D02*X375800Y243720D01*
X375050Y245970D02*Y244470D01*
Y245970D02*X375800Y246720D01*
X377300D01*
X378050Y245970D01*
X375050Y245220D02*X378050D01*
Y245970D02*Y245220D01*
X379850Y242220D02*X381350Y243720D01*
X385850Y248970D02*X386600Y249720D01*
X388850D01*
X389600Y248970D01*
Y247470D01*
X385850Y243720D02*X389600Y247470D01*
X385850Y243720D02*X389600D01*
X391400Y248970D02*X392150Y249720D01*
X393650D01*
X394400Y248970D01*
X393650Y243720D02*X394400Y244470D01*
X392150Y243720D02*X393650D01*
X391400Y244470D02*X392150Y243720D01*
Y247020D02*X393650D01*
X394400Y248970D02*Y247770D01*
Y246270D02*Y244470D01*
Y246270D02*X393650Y247020D01*
X394400Y247770D02*X393650Y247020D01*
X398450Y249720D02*X399200Y248970D01*
X396950Y249720D02*X398450D01*
X396200Y248970D02*X396950Y249720D01*
X396200Y248970D02*Y244470D01*
X396950Y243720D01*
X398450Y247020D02*X399200Y246270D01*
X396200Y247020D02*X398450D01*
X396950Y243720D02*X398450D01*
X399200Y244470D01*
Y246270D02*Y244470D01*
X401000Y248970D02*X401750Y249720D01*
X404000D01*
X404750Y248970D01*
Y247470D01*
X401000Y243720D02*X404750Y247470D01*
X401000Y243720D02*X404750D01*
X406550D02*X407300D01*
X409100Y248970D02*X409850Y249720D01*
X412100D01*
X412850Y248970D01*
Y247470D01*
X409100Y243720D02*X412850Y247470D01*
X409100Y243720D02*X412850D01*
X414650Y244470D02*X415400Y243720D01*
X414650Y248970D02*Y244470D01*
Y248970D02*X415400Y249720D01*
X416900D01*
X417650Y248970D01*
Y244470D01*
X416900Y243720D02*X417650Y244470D01*
X415400Y243720D02*X416900D01*
X414650Y245220D02*X417650Y248220D01*
X419450Y244470D02*X420200Y243720D01*
X419450Y248970D02*Y244470D01*
Y248970D02*X420200Y249720D01*
X421700D01*
X422450Y248970D01*
Y244470D01*
X421700Y243720D02*X422450Y244470D01*
X420200Y243720D02*X421700D01*
X419450Y245220D02*X422450Y248220D01*
X424250Y244470D02*X425000Y243720D01*
X424250Y248970D02*Y244470D01*
Y248970D02*X425000Y249720D01*
X426500D01*
X427250Y248970D01*
Y244470D01*
X426500Y243720D02*X427250Y244470D01*
X425000Y243720D02*X426500D01*
X424250Y245220D02*X427250Y248220D01*
X429050Y244470D02*X429800Y243720D01*
X429050Y248970D02*Y244470D01*
Y248970D02*X429800Y249720D01*
X431300D01*
X432050Y248970D01*
Y244470D01*
X431300Y243720D02*X432050Y244470D01*
X429800Y243720D02*X431300D01*
X429050Y245220D02*X432050Y248220D01*
X433850Y244470D02*X434600Y243720D01*
X433850Y248970D02*Y244470D01*
Y248970D02*X434600Y249720D01*
X436100D01*
X436850Y248970D01*
Y244470D01*
X436100Y243720D02*X436850Y244470D01*
X434600Y243720D02*X436100D01*
X433850Y245220D02*X436850Y248220D01*
X442100Y245970D02*Y243720D01*
Y245970D02*X442850Y246720D01*
X443600D01*
X444350Y245970D01*
Y243720D01*
Y245970D02*X445100Y246720D01*
X445850D01*
X446600Y245970D01*
Y243720D01*
X441350Y246720D02*X442100Y245970D01*
G54D101*X448400Y248220D02*Y248070D01*
G54D100*Y245970D02*Y243720D01*
X449900Y249720D02*Y244470D01*
X450650Y243720D01*
X452900D02*X455150D01*
X455900Y244470D01*
X455150Y245220D02*X455900Y244470D01*
X452900Y245220D02*X455150D01*
X452150Y245970D02*X452900Y245220D01*
X452150Y245970D02*X452900Y246720D01*
X455150D01*
X455900Y245970D01*
X452150Y244470D02*X452900Y243720D01*
X460400Y249720D02*Y243720D01*
Y245970D02*X461150Y246720D01*
X462650D01*
X463400Y245970D01*
Y243720D01*
G54D101*X465200Y248220D02*Y248070D01*
G54D100*Y245970D02*Y243720D01*
X468950Y246720D02*X469700Y245970D01*
X467450Y246720D02*X468950D01*
X466700Y245970D02*X467450Y246720D01*
X466700Y245970D02*Y244470D01*
X467450Y243720D01*
X468950D01*
X469700Y244470D01*
X466700Y242220D02*X467450Y241470D01*
X468950D01*
X469700Y242220D01*
Y246720D02*Y242220D01*
X471500Y249720D02*Y243720D01*
Y245970D02*X472250Y246720D01*
X473750D01*
X474500Y245970D01*
Y243720D01*
X0Y-9500D02*X3000D01*
X3750Y-8750D01*
Y-6950D02*Y-8750D01*
X3000Y-6200D02*X3750Y-6950D01*
X750Y-6200D02*X3000D01*
X750Y-3500D02*Y-9500D01*
X0Y-3500D02*X3000D01*
X3750Y-4250D01*
Y-5450D01*
X3000Y-6200D02*X3750Y-5450D01*
X5550Y-7250D02*Y-8750D01*
Y-7250D02*X6300Y-6500D01*
X7800D01*
X8550Y-7250D01*
Y-8750D01*
X7800Y-9500D02*X8550Y-8750D01*
X6300Y-9500D02*X7800D01*
X5550Y-8750D02*X6300Y-9500D01*
X12600Y-6500D02*X13350Y-7250D01*
X11100Y-6500D02*X12600D01*
X10350Y-7250D02*X11100Y-6500D01*
X10350Y-7250D02*Y-8750D01*
X11100Y-9500D01*
X13350Y-6500D02*Y-8750D01*
X14100Y-9500D01*
X11100D02*X12600D01*
X13350Y-8750D01*
X16650Y-7250D02*Y-9500D01*
Y-7250D02*X17400Y-6500D01*
X18900D01*
X15900D02*X16650Y-7250D01*
X23700Y-3500D02*Y-9500D01*
X22950D02*X23700Y-8750D01*
X21450Y-9500D02*X22950D01*
X20700Y-8750D02*X21450Y-9500D01*
X20700Y-7250D02*Y-8750D01*
Y-7250D02*X21450Y-6500D01*
X22950D01*
X23700Y-7250D01*
X28200D02*Y-8750D01*
Y-7250D02*X28950Y-6500D01*
X30450D01*
X31200Y-7250D01*
Y-8750D01*
X30450Y-9500D02*X31200Y-8750D01*
X28950Y-9500D02*X30450D01*
X28200Y-8750D02*X28950Y-9500D01*
X33000Y-6500D02*Y-8750D01*
X33750Y-9500D01*
X35250D01*
X36000Y-8750D01*
Y-6500D02*Y-8750D01*
X38550Y-3500D02*Y-8750D01*
X39300Y-9500D01*
X37800Y-5750D02*X39300D01*
X40800Y-3500D02*Y-8750D01*
X41550Y-9500D01*
G54D101*X43050Y-5000D02*Y-5150D01*
G54D100*Y-7250D02*Y-9500D01*
X45300Y-7250D02*Y-9500D01*
Y-7250D02*X46050Y-6500D01*
X46800D01*
X47550Y-7250D01*
Y-9500D01*
X44550Y-6500D02*X45300Y-7250D01*
X50100Y-9500D02*X52350D01*
X49350Y-8750D02*X50100Y-9500D01*
X49350Y-7250D02*Y-8750D01*
Y-7250D02*X50100Y-6500D01*
X51600D01*
X52350Y-7250D01*
X49350Y-8000D02*X52350D01*
Y-7250D02*Y-8000D01*
G54D101*X56850Y-5000D02*Y-5150D01*
G54D100*Y-7250D02*Y-9500D01*
X59100D02*X61350D01*
X62100Y-8750D01*
X61350Y-8000D02*X62100Y-8750D01*
X59100Y-8000D02*X61350D01*
X58350Y-7250D02*X59100Y-8000D01*
X58350Y-7250D02*X59100Y-6500D01*
X61350D01*
X62100Y-7250D01*
X58350Y-8750D02*X59100Y-9500D01*
X67350Y-3500D02*Y-8750D01*
X68100Y-9500D01*
X66600Y-5750D02*X68100D01*
X69600Y-3500D02*Y-9500D01*
Y-7250D02*X70350Y-6500D01*
X71850D01*
X72600Y-7250D01*
Y-9500D01*
X75150D02*X77400D01*
X74400Y-8750D02*X75150Y-9500D01*
X74400Y-7250D02*Y-8750D01*
Y-7250D02*X75150Y-6500D01*
X76650D01*
X77400Y-7250D01*
X74400Y-8000D02*X77400D01*
Y-7250D02*Y-8000D01*
X82650Y-6500D02*X84900D01*
X81900Y-7250D02*X82650Y-6500D01*
X81900Y-7250D02*Y-8750D01*
X82650Y-9500D01*
X84900D01*
X87450D02*X89700D01*
X86700Y-8750D02*X87450Y-9500D01*
X86700Y-7250D02*Y-8750D01*
Y-7250D02*X87450Y-6500D01*
X88950D01*
X89700Y-7250D01*
X86700Y-8000D02*X89700D01*
Y-7250D02*Y-8000D01*
X92250Y-7250D02*Y-9500D01*
Y-7250D02*X93000Y-6500D01*
X93750D01*
X94500Y-7250D01*
Y-9500D01*
X91500Y-6500D02*X92250Y-7250D01*
X97050Y-3500D02*Y-8750D01*
X97800Y-9500D01*
X96300Y-5750D02*X97800D01*
X100050Y-9500D02*X102300D01*
X99300Y-8750D02*X100050Y-9500D01*
X99300Y-7250D02*Y-8750D01*
Y-7250D02*X100050Y-6500D01*
X101550D01*
X102300Y-7250D01*
X99300Y-8000D02*X102300D01*
Y-7250D02*Y-8000D01*
X104850Y-7250D02*Y-9500D01*
Y-7250D02*X105600Y-6500D01*
X107100D01*
X104100D02*X104850Y-7250D01*
X108900Y-3500D02*Y-8750D01*
X109650Y-9500D01*
G54D101*X111150Y-5000D02*Y-5150D01*
G54D100*Y-7250D02*Y-9500D01*
X113400Y-7250D02*Y-9500D01*
Y-7250D02*X114150Y-6500D01*
X114900D01*
X115650Y-7250D01*
Y-9500D01*
X112650Y-6500D02*X113400Y-7250D01*
X118200Y-9500D02*X120450D01*
X117450Y-8750D02*X118200Y-9500D01*
X117450Y-7250D02*Y-8750D01*
Y-7250D02*X118200Y-6500D01*
X119700D01*
X120450Y-7250D01*
X117450Y-8000D02*X120450D01*
Y-7250D02*Y-8000D01*
X124950Y-7250D02*Y-8750D01*
Y-7250D02*X125700Y-6500D01*
X127200D01*
X127950Y-7250D01*
Y-8750D01*
X127200Y-9500D02*X127950Y-8750D01*
X125700Y-9500D02*X127200D01*
X124950Y-8750D02*X125700Y-9500D01*
X130500Y-4250D02*Y-9500D01*
Y-4250D02*X131250Y-3500D01*
X132000D01*
X129750Y-6500D02*X131250D01*
X136950Y-3500D02*Y-8750D01*
X137700Y-9500D01*
X136200Y-5750D02*X137700D01*
X139200Y-3500D02*Y-9500D01*
Y-7250D02*X139950Y-6500D01*
X141450D01*
X142200Y-7250D01*
Y-9500D01*
G54D101*X144000Y-5000D02*Y-5150D01*
G54D100*Y-7250D02*Y-9500D01*
X146250D02*X148500D01*
X149250Y-8750D01*
X148500Y-8000D02*X149250Y-8750D01*
X146250Y-8000D02*X148500D01*
X145500Y-7250D02*X146250Y-8000D01*
X145500Y-7250D02*X146250Y-6500D01*
X148500D01*
X149250Y-7250D01*
X145500Y-8750D02*X146250Y-9500D01*
X153750Y-8750D02*X154500Y-9500D01*
X153750Y-7550D02*Y-8750D01*
Y-7550D02*X154800Y-6500D01*
X155700D01*
X156750Y-7550D01*
Y-8750D01*
X156000Y-9500D02*X156750Y-8750D01*
X154500Y-9500D02*X156000D01*
X153750Y-5450D02*X154800Y-6500D01*
X153750Y-4250D02*Y-5450D01*
Y-4250D02*X154500Y-3500D01*
X156000D01*
X156750Y-4250D01*
Y-5450D01*
X155700Y-6500D02*X156750Y-5450D01*
X158550Y-9500D02*X159300D01*
X161100Y-8750D02*X161850Y-9500D01*
X161100Y-4250D02*Y-8750D01*
Y-4250D02*X161850Y-3500D01*
X163350D01*
X164100Y-4250D01*
Y-8750D01*
X163350Y-9500D02*X164100Y-8750D01*
X161850Y-9500D02*X163350D01*
X161100Y-8000D02*X164100Y-5000D01*
X165900Y-8750D02*X166650Y-9500D01*
X165900Y-4250D02*Y-8750D01*
Y-4250D02*X166650Y-3500D01*
X168150D01*
X168900Y-4250D01*
Y-8750D01*
X168150Y-9500D02*X168900Y-8750D01*
X166650Y-9500D02*X168150D01*
X165900Y-8000D02*X168900Y-5000D01*
X170700Y-8750D02*X171450Y-9500D01*
X170700Y-4250D02*Y-8750D01*
Y-4250D02*X171450Y-3500D01*
X172950D01*
X173700Y-4250D01*
Y-8750D01*
X172950Y-9500D02*X173700Y-8750D01*
X171450Y-9500D02*X172950D01*
X170700Y-8000D02*X173700Y-5000D01*
X175500Y-8750D02*X176250Y-9500D01*
X175500Y-4250D02*Y-8750D01*
Y-4250D02*X176250Y-3500D01*
X177750D01*
X178500Y-4250D01*
Y-8750D01*
X177750Y-9500D02*X178500Y-8750D01*
X176250Y-9500D02*X177750D01*
X175500Y-8000D02*X178500Y-5000D01*
X180300Y-8750D02*X181050Y-9500D01*
X180300Y-4250D02*Y-8750D01*
Y-4250D02*X181050Y-3500D01*
X182550D01*
X183300Y-4250D01*
Y-8750D01*
X182550Y-9500D02*X183300Y-8750D01*
X181050Y-9500D02*X182550D01*
X180300Y-8000D02*X183300Y-5000D01*
X185100Y-8750D02*X185850Y-9500D01*
X185100Y-4250D02*Y-8750D01*
Y-4250D02*X185850Y-3500D01*
X187350D01*
X188100Y-4250D01*
Y-8750D01*
X187350Y-9500D02*X188100Y-8750D01*
X185850Y-9500D02*X187350D01*
X185100Y-8000D02*X188100Y-5000D01*
X193350Y-7250D02*Y-9500D01*
Y-7250D02*X194100Y-6500D01*
X194850D01*
X195600Y-7250D01*
Y-9500D01*
Y-7250D02*X196350Y-6500D01*
X197100D01*
X197850Y-7250D01*
Y-9500D01*
X192600Y-6500D02*X193350Y-7250D01*
G54D101*X199650Y-5000D02*Y-5150D01*
G54D100*Y-7250D02*Y-9500D01*
X201150Y-3500D02*Y-8750D01*
X201900Y-9500D01*
X206850Y-7250D02*Y-9500D01*
Y-7250D02*X207600Y-6500D01*
X209100D01*
X206100D02*X206850Y-7250D01*
X211650Y-9500D02*X213900D01*
X210900Y-8750D02*X211650Y-9500D01*
X210900Y-7250D02*Y-8750D01*
Y-7250D02*X211650Y-6500D01*
X213150D01*
X213900Y-7250D01*
X210900Y-8000D02*X213900D01*
Y-7250D02*Y-8000D01*
X216450Y-6500D02*X218700D01*
X215700Y-7250D02*X216450Y-6500D01*
X215700Y-7250D02*Y-8750D01*
X216450Y-9500D01*
X218700D01*
X221250Y-3500D02*Y-8750D01*
X222000Y-9500D01*
X220500Y-5750D02*X222000D01*
X225750Y-6500D02*X226500Y-7250D01*
X224250Y-6500D02*X225750D01*
X223500Y-7250D02*X224250Y-6500D01*
X223500Y-7250D02*Y-8750D01*
X224250Y-9500D01*
X226500Y-6500D02*Y-8750D01*
X227250Y-9500D01*
X224250D02*X225750D01*
X226500Y-8750D01*
X229800Y-7250D02*Y-9500D01*
Y-7250D02*X230550Y-6500D01*
X231300D01*
X232050Y-7250D01*
Y-9500D01*
X229050Y-6500D02*X229800Y-7250D01*
X236100Y-6500D02*X236850Y-7250D01*
X234600Y-6500D02*X236100D01*
X233850Y-7250D02*X234600Y-6500D01*
X233850Y-7250D02*Y-8750D01*
X234600Y-9500D01*
X236100D01*
X236850Y-8750D01*
X233850Y-11000D02*X234600Y-11750D01*
X236100D01*
X236850Y-11000D01*
Y-6500D02*Y-11000D01*
X238650Y-3500D02*Y-8750D01*
X239400Y-9500D01*
X241650D02*X243900D01*
X240900Y-8750D02*X241650Y-9500D01*
X240900Y-7250D02*Y-8750D01*
Y-7250D02*X241650Y-6500D01*
X243150D01*
X243900Y-7250D01*
X240900Y-8000D02*X243900D01*
Y-7250D02*Y-8000D01*
X248400Y-6500D02*X251400D01*
X255900Y-8750D02*X256650Y-9500D01*
X255900Y-4250D02*Y-8750D01*
Y-4250D02*X256650Y-3500D01*
X258150D01*
X258900Y-4250D01*
Y-8750D01*
X258150Y-9500D02*X258900Y-8750D01*
X256650Y-9500D02*X258150D01*
X255900Y-8000D02*X258900Y-5000D01*
X260700Y-11000D02*X262200Y-9500D01*
X264000Y-8750D02*X264750Y-9500D01*
X264000Y-4250D02*Y-8750D01*
Y-4250D02*X264750Y-3500D01*
X266250D01*
X267000Y-4250D01*
Y-8750D01*
X266250Y-9500D02*X267000Y-8750D01*
X264750Y-9500D02*X266250D01*
X264000Y-8000D02*X267000Y-5000D01*
X272250Y-3500D02*Y-8750D01*
X273000Y-9500D01*
X271500Y-5750D02*X273000D01*
X274500Y-7250D02*Y-8750D01*
Y-7250D02*X275250Y-6500D01*
X276750D01*
X277500Y-7250D01*
Y-8750D01*
X276750Y-9500D02*X277500Y-8750D01*
X275250Y-9500D02*X276750D01*
X274500Y-8750D02*X275250Y-9500D01*
X282000Y-4250D02*X282750Y-3500D01*
X284250D01*
X285000Y-4250D01*
X284250Y-9500D02*X285000Y-8750D01*
X282750Y-9500D02*X284250D01*
X282000Y-8750D02*X282750Y-9500D01*
Y-6200D02*X284250D01*
X285000Y-4250D02*Y-5450D01*
Y-6950D02*Y-8750D01*
Y-6950D02*X284250Y-6200D01*
X285000Y-5450D02*X284250Y-6200D01*
X286800Y-4700D02*X288000Y-3500D01*
Y-9500D01*
X286800D02*X289050D01*
X290850Y-7250D02*X293850Y-3500D01*
X290850Y-7250D02*X294600D01*
X293850Y-3500D02*Y-9500D01*
X297150D02*X299400Y-6500D01*
Y-4250D02*Y-6500D01*
X298650Y-3500D02*X299400Y-4250D01*
X297150Y-3500D02*X298650D01*
X296400Y-4250D02*X297150Y-3500D01*
X296400Y-4250D02*Y-5750D01*
X297150Y-6500D01*
X299400D01*
X301200Y-9500D02*X301950D01*
X306000Y-3500D02*X306750Y-4250D01*
X304500Y-3500D02*X306000D01*
X303750Y-4250D02*X304500Y-3500D01*
X303750Y-4250D02*Y-8750D01*
X304500Y-9500D01*
X306000Y-6200D02*X306750Y-6950D01*
X303750Y-6200D02*X306000D01*
X304500Y-9500D02*X306000D01*
X306750Y-8750D01*
Y-6950D02*Y-8750D01*
X308550Y-4700D02*X309750Y-3500D01*
Y-9500D01*
X308550D02*X310800D01*
X312600Y-8750D02*X313350Y-9500D01*
X312600Y-4250D02*Y-8750D01*
Y-4250D02*X313350Y-3500D01*
X314850D01*
X315600Y-4250D01*
Y-8750D01*
X314850Y-9500D02*X315600Y-8750D01*
X313350Y-9500D02*X314850D01*
X312600Y-8000D02*X315600Y-5000D01*
X317400Y-8750D02*X318150Y-9500D01*
X317400Y-4250D02*Y-8750D01*
Y-4250D02*X318150Y-3500D01*
X319650D01*
X320400Y-4250D01*
Y-8750D01*
X319650Y-9500D02*X320400Y-8750D01*
X318150Y-9500D02*X319650D01*
X317400Y-8000D02*X320400Y-5000D01*
X322200Y-8750D02*X322950Y-9500D01*
X322200Y-4250D02*Y-8750D01*
Y-4250D02*X322950Y-3500D01*
X324450D01*
X325200Y-4250D01*
Y-8750D01*
X324450Y-9500D02*X325200Y-8750D01*
X322950Y-9500D02*X324450D01*
X322200Y-8000D02*X325200Y-5000D01*
X327000Y-8750D02*X327750Y-9500D01*
X327000Y-4250D02*Y-8750D01*
Y-4250D02*X327750Y-3500D01*
X329250D01*
X330000Y-4250D01*
Y-8750D01*
X329250Y-9500D02*X330000Y-8750D01*
X327750Y-9500D02*X329250D01*
X327000Y-8000D02*X330000Y-5000D01*
X331800Y-11000D02*X333300Y-9500D01*
X335100Y-4250D02*X335850Y-3500D01*
X338100D01*
X338850Y-4250D01*
Y-5750D01*
X335100Y-9500D02*X338850Y-5750D01*
X335100Y-9500D02*X338850D01*
X340650Y-4250D02*X341400Y-3500D01*
X342900D01*
X343650Y-4250D01*
X342900Y-9500D02*X343650Y-8750D01*
X341400Y-9500D02*X342900D01*
X340650Y-8750D02*X341400Y-9500D01*
Y-6200D02*X342900D01*
X343650Y-4250D02*Y-5450D01*
Y-6950D02*Y-8750D01*
Y-6950D02*X342900Y-6200D01*
X343650Y-5450D02*X342900Y-6200D01*
X347700Y-3500D02*X348450Y-4250D01*
X346200Y-3500D02*X347700D01*
X345450Y-4250D02*X346200Y-3500D01*
X345450Y-4250D02*Y-8750D01*
X346200Y-9500D01*
X347700Y-6200D02*X348450Y-6950D01*
X345450Y-6200D02*X347700D01*
X346200Y-9500D02*X347700D01*
X348450Y-8750D01*
Y-6950D02*Y-8750D01*
X350250Y-4250D02*X351000Y-3500D01*
X353250D01*
X354000Y-4250D01*
Y-5750D01*
X350250Y-9500D02*X354000Y-5750D01*
X350250Y-9500D02*X354000D01*
X355800D02*X356550D01*
X358350Y-4250D02*X359100Y-3500D01*
X361350D01*
X362100Y-4250D01*
Y-5750D01*
X358350Y-9500D02*X362100Y-5750D01*
X358350Y-9500D02*X362100D01*
X363900Y-8750D02*X364650Y-9500D01*
X363900Y-4250D02*Y-8750D01*
Y-4250D02*X364650Y-3500D01*
X366150D01*
X366900Y-4250D01*
Y-8750D01*
X366150Y-9500D02*X366900Y-8750D01*
X364650Y-9500D02*X366150D01*
X363900Y-8000D02*X366900Y-5000D01*
X368700Y-8750D02*X369450Y-9500D01*
X368700Y-4250D02*Y-8750D01*
Y-4250D02*X369450Y-3500D01*
X370950D01*
X371700Y-4250D01*
Y-8750D01*
X370950Y-9500D02*X371700Y-8750D01*
X369450Y-9500D02*X370950D01*
X368700Y-8000D02*X371700Y-5000D01*
X373500Y-8750D02*X374250Y-9500D01*
X373500Y-4250D02*Y-8750D01*
Y-4250D02*X374250Y-3500D01*
X375750D01*
X376500Y-4250D01*
Y-8750D01*
X375750Y-9500D02*X376500Y-8750D01*
X374250Y-9500D02*X375750D01*
X373500Y-8000D02*X376500Y-5000D01*
X378300Y-8750D02*X379050Y-9500D01*
X378300Y-4250D02*Y-8750D01*
Y-4250D02*X379050Y-3500D01*
X380550D01*
X381300Y-4250D01*
Y-8750D01*
X380550Y-9500D02*X381300Y-8750D01*
X379050Y-9500D02*X380550D01*
X378300Y-8000D02*X381300Y-5000D01*
X383100Y-8750D02*X383850Y-9500D01*
X383100Y-4250D02*Y-8750D01*
Y-4250D02*X383850Y-3500D01*
X385350D01*
X386100Y-4250D01*
Y-8750D01*
X385350Y-9500D02*X386100Y-8750D01*
X383850Y-9500D02*X385350D01*
X383100Y-8000D02*X386100Y-5000D01*
X391350Y-7250D02*Y-9500D01*
Y-7250D02*X392100Y-6500D01*
X392850D01*
X393600Y-7250D01*
Y-9500D01*
Y-7250D02*X394350Y-6500D01*
X395100D01*
X395850Y-7250D01*
Y-9500D01*
X390600Y-6500D02*X391350Y-7250D01*
G54D101*X397650Y-5000D02*Y-5150D01*
G54D100*Y-7250D02*Y-9500D01*
X399150Y-3500D02*Y-8750D01*
X399900Y-9500D01*
X402150D02*X404400D01*
X405150Y-8750D01*
X404400Y-8000D02*X405150Y-8750D01*
X402150Y-8000D02*X404400D01*
X401400Y-7250D02*X402150Y-8000D01*
X401400Y-7250D02*X402150Y-6500D01*
X404400D01*
X405150Y-7250D01*
X401400Y-8750D02*X402150Y-9500D01*
X200750Y264720D02*Y258720D01*
X202700Y264720D02*X203750Y263670D01*
Y259770D01*
X202700Y258720D02*X203750Y259770D01*
X200000Y258720D02*X202700D01*
X200000Y264720D02*X202700D01*
X207800Y261720D02*X208550Y260970D01*
X206300Y261720D02*X207800D01*
X205550Y260970D02*X206300Y261720D01*
X205550Y260970D02*Y259470D01*
X206300Y258720D01*
X208550Y261720D02*Y259470D01*
X209300Y258720D01*
X206300D02*X207800D01*
X208550Y259470D01*
X211850Y264720D02*Y259470D01*
X212600Y258720D01*
X211100Y262470D02*X212600D01*
X214850Y258720D02*X217100D01*
X214100Y259470D02*X214850Y258720D01*
X214100Y260970D02*Y259470D01*
Y260970D02*X214850Y261720D01*
X216350D01*
X217100Y260970D01*
X214100Y260220D02*X217100D01*
Y260970D02*Y260220D01*
X218900Y262470D02*X219650D01*
X218900Y260970D02*X219650D01*
X224150Y264720D02*X227150D01*
X225650D02*Y258720D01*
X228950Y261720D02*Y259470D01*
X229700Y258720D01*
X231200D01*
X231950Y259470D01*
Y261720D02*Y259470D01*
X234500Y258720D02*X236750D01*
X233750Y259470D02*X234500Y258720D01*
X233750Y260970D02*Y259470D01*
Y260970D02*X234500Y261720D01*
X236000D01*
X236750Y260970D01*
X233750Y260220D02*X236750D01*
Y260970D02*Y260220D01*
X241250Y263520D02*X242450Y264720D01*
Y258720D01*
X241250D02*X243500D01*
X245300Y263520D02*X246500Y264720D01*
Y258720D01*
X245300D02*X247550D01*
X252050Y264720D02*Y258720D01*
Y264720D02*X255050D01*
X252050Y262020D02*X254300D01*
X257600Y258720D02*X259850D01*
X256850Y259470D02*X257600Y258720D01*
X256850Y260970D02*Y259470D01*
Y260970D02*X257600Y261720D01*
X259100D01*
X259850Y260970D01*
X256850Y260220D02*X259850D01*
Y260970D02*Y260220D01*
X261650Y264720D02*Y258720D01*
Y259470D02*X262400Y258720D01*
X263900D01*
X264650Y259470D01*
Y260970D02*Y259470D01*
X263900Y261720D02*X264650Y260970D01*
X262400Y261720D02*X263900D01*
X261650Y260970D02*X262400Y261720D01*
X269150Y263970D02*X269900Y264720D01*
X272150D01*
X272900Y263970D01*
Y262470D01*
X269150Y258720D02*X272900Y262470D01*
X269150Y258720D02*X272900D01*
X274700Y259470D02*X275450Y258720D01*
X274700Y263970D02*Y259470D01*
Y263970D02*X275450Y264720D01*
X276950D01*
X277700Y263970D01*
Y259470D01*
X276950Y258720D02*X277700Y259470D01*
X275450Y258720D02*X276950D01*
X274700Y260220D02*X277700Y263220D01*
X279500Y263520D02*X280700Y264720D01*
Y258720D01*
X279500D02*X281750D01*
X283550Y260970D02*X286550Y264720D01*
X283550Y260970D02*X287300D01*
X286550Y264720D02*Y258720D01*
X291800Y263520D02*X293000Y264720D01*
Y258720D01*
X291800D02*X294050D01*
X295850Y264720D02*X298850D01*
X295850D02*Y261720D01*
X296600Y262470D01*
X298100D01*
X298850Y261720D01*
Y259470D01*
X298100Y258720D02*X298850Y259470D01*
X296600Y258720D02*X298100D01*
X295850Y259470D02*X296600Y258720D01*
X300650Y262470D02*X301400D01*
X300650Y260970D02*X301400D01*
X303200Y264720D02*X306200D01*
X303200D02*Y261720D01*
X303950Y262470D01*
X305450D01*
X306200Y261720D01*
Y259470D01*
X305450Y258720D02*X306200Y259470D01*
X303950Y258720D02*X305450D01*
X303200Y259470D02*X303950Y258720D01*
X310250Y264720D02*X311000Y263970D01*
X308750Y264720D02*X310250D01*
X308000Y263970D02*X308750Y264720D01*
X308000Y263970D02*Y259470D01*
X308750Y258720D01*
X310250Y262020D02*X311000Y261270D01*
X308000Y262020D02*X310250D01*
X308750Y258720D02*X310250D01*
X311000Y259470D01*
Y261270D02*Y259470D01*
X312800Y262470D02*X313550D01*
X312800Y260970D02*X313550D01*
X315350Y263970D02*X316100Y264720D01*
X317600D01*
X318350Y263970D01*
X317600Y258720D02*X318350Y259470D01*
X316100Y258720D02*X317600D01*
X315350Y259470D02*X316100Y258720D01*
Y262020D02*X317600D01*
X318350Y263970D02*Y262770D01*
Y261270D02*Y259470D01*
Y261270D02*X317600Y262020D01*
X318350Y262770D02*X317600Y262020D01*
X320900Y258720D02*X323150Y261720D01*
Y263970D02*Y261720D01*
X322400Y264720D02*X323150Y263970D01*
X320900Y264720D02*X322400D01*
X320150Y263970D02*X320900Y264720D01*
X320150Y263970D02*Y262470D01*
X320900Y261720D01*
X323150D01*
X330650Y264720D02*X331400Y263970D01*
X328400Y264720D02*X330650D01*
X327650Y263970D02*X328400Y264720D01*
X327650Y263970D02*Y259470D01*
X328400Y258720D01*
X330650D01*
X331400Y259470D01*
Y260970D02*Y259470D01*
X330650Y261720D02*X331400Y260970D01*
X329150Y261720D02*X330650D01*
X333200Y264720D02*Y258720D01*
Y264720D02*X335450Y261720D01*
X337700Y264720D01*
Y258720D01*
X339500Y264720D02*X342500D01*
X341000D02*Y258720D01*
X347000Y264720D02*Y259470D01*
X347750Y258720D01*
X349250D01*
X350000Y259470D01*
Y264720D02*Y259470D01*
X351800Y264720D02*X354800D01*
X353300D02*Y258720D01*
X357650D02*X359600D01*
X356600Y259770D02*X357650Y258720D01*
X356600Y263670D02*Y259770D01*
Y263670D02*X357650Y264720D01*
X359600D01*
X200000Y278220D02*Y273720D01*
Y278220D02*X201050Y279720D01*
X202700D01*
X203750Y278220D01*
Y273720D01*
X200000Y276720D02*X203750D01*
X205550D02*Y274470D01*
X206300Y273720D01*
X207800D01*
X208550Y274470D01*
Y276720D02*Y274470D01*
X211100Y279720D02*Y274470D01*
X211850Y273720D01*
X210350Y277470D02*X211850D01*
X213350Y279720D02*Y273720D01*
Y275970D02*X214100Y276720D01*
X215600D01*
X216350Y275970D01*
Y273720D01*
X218150Y275970D02*Y274470D01*
Y275970D02*X218900Y276720D01*
X220400D01*
X221150Y275970D01*
Y274470D01*
X220400Y273720D02*X221150Y274470D01*
X218900Y273720D02*X220400D01*
X218150Y274470D02*X218900Y273720D01*
X223700Y275970D02*Y273720D01*
Y275970D02*X224450Y276720D01*
X225950D01*
X222950D02*X223700Y275970D01*
X227750Y277470D02*X228500D01*
X227750Y275970D02*X228500D01*
X233000Y279720D02*X236000D01*
X236750Y278970D01*
Y277470D01*
X236000Y276720D02*X236750Y277470D01*
X233750Y276720D02*X236000D01*
X233750Y279720D02*Y273720D01*
X234950Y276720D02*X236750Y273720D01*
X238550Y276720D02*Y274470D01*
X239300Y273720D01*
X240800D01*
X241550Y274470D01*
Y276720D02*Y274470D01*
X244100Y273720D02*X246350D01*
X247100Y274470D01*
X246350Y275220D02*X247100Y274470D01*
X244100Y275220D02*X246350D01*
X243350Y275970D02*X244100Y275220D01*
X243350Y275970D02*X244100Y276720D01*
X246350D01*
X247100Y275970D01*
X243350Y274470D02*X244100Y273720D01*
X249650D02*X251900D01*
X252650Y274470D01*
X251900Y275220D02*X252650Y274470D01*
X249650Y275220D02*X251900D01*
X248900Y275970D02*X249650Y275220D01*
X248900Y275970D02*X249650Y276720D01*
X251900D01*
X252650Y275970D01*
X248900Y274470D02*X249650Y273720D01*
X255200D02*X257450D01*
X254450Y274470D02*X255200Y273720D01*
X254450Y275970D02*Y274470D01*
Y275970D02*X255200Y276720D01*
X256700D01*
X257450Y275970D01*
X254450Y275220D02*X257450D01*
Y275970D02*Y275220D01*
X259250Y279720D02*Y274470D01*
X260000Y273720D01*
X261500Y279720D02*Y274470D01*
X262250Y273720D01*
X200000Y294720D02*X203000D01*
X201500D02*Y288720D01*
G54D101*X204800Y293220D02*Y293070D01*
G54D100*Y290970D02*Y288720D01*
X207050Y294720D02*Y289470D01*
X207800Y288720D01*
X206300Y292470D02*X207800D01*
X209300Y294720D02*Y289470D01*
X210050Y288720D01*
X212300D02*X214550D01*
X211550Y289470D02*X212300Y288720D01*
X211550Y290970D02*Y289470D01*
Y290970D02*X212300Y291720D01*
X213800D01*
X214550Y290970D01*
X211550Y290220D02*X214550D01*
Y290970D02*Y290220D01*
X216350Y292470D02*X217100D01*
X216350Y290970D02*X217100D01*
X221600Y289470D02*X222350Y288720D01*
X221600Y293970D02*X222350Y294720D01*
X221600Y293970D02*Y289470D01*
X224150Y291720D02*Y289470D01*
X224900Y288720D01*
X226400D01*
X227150Y289470D01*
Y291720D02*Y289470D01*
X229700Y290970D02*Y288720D01*
Y290970D02*X230450Y291720D01*
X231200D01*
X231950Y290970D01*
Y288720D01*
X228950Y291720D02*X229700Y290970D01*
X233750Y294720D02*Y288720D01*
Y290970D02*X236000Y288720D01*
X233750Y290970D02*X235250Y292470D01*
X238550Y290970D02*Y288720D01*
Y290970D02*X239300Y291720D01*
X240050D01*
X240800Y290970D01*
Y288720D01*
X237800Y291720D02*X238550Y290970D01*
X242600D02*Y289470D01*
Y290970D02*X243350Y291720D01*
X244850D01*
X245600Y290970D01*
Y289470D01*
X244850Y288720D02*X245600Y289470D01*
X243350Y288720D02*X244850D01*
X242600Y289470D02*X243350Y288720D01*
X247400Y291720D02*Y289470D01*
X248150Y288720D01*
X248900D01*
X249650Y289470D01*
Y291720D02*Y289470D01*
X250400Y288720D01*
X251150D01*
X251900Y289470D01*
Y291720D02*Y289470D01*
X254450Y290970D02*Y288720D01*
Y290970D02*X255200Y291720D01*
X255950D01*
X256700Y290970D01*
Y288720D01*
X253700Y291720D02*X254450Y290970D01*
X258500Y294720D02*X259250Y293970D01*
Y289470D01*
X258500Y288720D02*X259250Y289470D01*
X263750Y291720D02*X266750D01*
X271250Y294720D02*Y288720D01*
Y294720D02*X274250D01*
X271250Y292020D02*X273500D01*
X278300Y291720D02*X279050Y290970D01*
X276800Y291720D02*X278300D01*
X276050Y290970D02*X276800Y291720D01*
X276050Y290970D02*Y289470D01*
X276800Y288720D01*
X279050Y291720D02*Y289470D01*
X279800Y288720D01*
X276800D02*X278300D01*
X279050Y289470D01*
X281600Y294720D02*Y288720D01*
Y289470D02*X282350Y288720D01*
X283850D01*
X284600Y289470D01*
Y290970D02*Y289470D01*
X283850Y291720D02*X284600Y290970D01*
X282350Y291720D02*X283850D01*
X281600Y290970D02*X282350Y291720D01*
X287150Y290970D02*Y288720D01*
Y290970D02*X287900Y291720D01*
X289400D01*
X286400D02*X287150Y290970D01*
G54D101*X291200Y293220D02*Y293070D01*
G54D100*Y290970D02*Y288720D01*
X293450Y291720D02*X295700D01*
X292700Y290970D02*X293450Y291720D01*
X292700Y290970D02*Y289470D01*
X293450Y288720D01*
X295700D01*
X299750Y291720D02*X300500Y290970D01*
X298250Y291720D02*X299750D01*
X297500Y290970D02*X298250Y291720D01*
X297500Y290970D02*Y289470D01*
X298250Y288720D01*
X300500Y291720D02*Y289470D01*
X301250Y288720D01*
X298250D02*X299750D01*
X300500Y289470D01*
X303800Y294720D02*Y289470D01*
X304550Y288720D01*
X303050Y292470D02*X304550D01*
G54D101*X306050Y293220D02*Y293070D01*
G54D100*Y290970D02*Y288720D01*
X307550Y290970D02*Y289470D01*
Y290970D02*X308300Y291720D01*
X309800D01*
X310550Y290970D01*
Y289470D01*
X309800Y288720D02*X310550Y289470D01*
X308300Y288720D02*X309800D01*
X307550Y289470D02*X308300Y288720D01*
X313100Y290970D02*Y288720D01*
Y290970D02*X313850Y291720D01*
X314600D01*
X315350Y290970D01*
Y288720D01*
X312350Y291720D02*X313100Y290970D01*
X320600Y294720D02*Y288720D01*
X322550Y294720D02*X323600Y293670D01*
Y289770D01*
X322550Y288720D02*X323600Y289770D01*
X319850Y288720D02*X322550D01*
X319850Y294720D02*X322550D01*
X326150Y290970D02*Y288720D01*
Y290970D02*X326900Y291720D01*
X328400D01*
X325400D02*X326150Y290970D01*
X332450Y291720D02*X333200Y290970D01*
X330950Y291720D02*X332450D01*
X330200Y290970D02*X330950Y291720D01*
X330200Y290970D02*Y289470D01*
X330950Y288720D01*
X333200Y291720D02*Y289470D01*
X333950Y288720D01*
X330950D02*X332450D01*
X333200Y289470D01*
X335750Y291720D02*Y289470D01*
X336500Y288720D01*
X337250D01*
X338000Y289470D01*
Y291720D02*Y289470D01*
X338750Y288720D01*
X339500D01*
X340250Y289470D01*
Y291720D02*Y289470D01*
G54D101*X342050Y293220D02*Y293070D01*
G54D100*Y290970D02*Y288720D01*
X344300Y290970D02*Y288720D01*
Y290970D02*X345050Y291720D01*
X345800D01*
X346550Y290970D01*
Y288720D01*
X343550Y291720D02*X344300Y290970D01*
X350600Y291720D02*X351350Y290970D01*
X349100Y291720D02*X350600D01*
X348350Y290970D02*X349100Y291720D01*
X348350Y290970D02*Y289470D01*
X349100Y288720D01*
X350600D01*
X351350Y289470D01*
X348350Y287220D02*X349100Y286470D01*
X350600D01*
X351350Y287220D01*
Y291720D02*Y287220D01*
M02*
