G04 start of page 10 for group -4014 idx -4014 *
G04 Title: (unknown), bottompaste *
G04 Creator: pcb 20110918 *
G04 CreationDate: Tue 11 Feb 2014 15:56:39 GMT UTC *
G04 For: russells *
G04 Format: Gerber/RS-274X *
G04 PCB-Dimensions: 314961 236220 *
G04 PCB-Coordinate-Origin: lower left *
%MOIN*%
%FSLAX25Y25*%
%LNCRS*%
%ADD98R,0.0110X0.0110*%
%ADD97R,0.2200X0.2200*%
%ADD96R,0.0512X0.0512*%
G54D96*X73623Y163780D02*X74409D01*
X73623Y170866D02*X74409D01*
X73623Y146457D02*X74409D01*
X73623Y153543D02*X74409D01*
X73623Y111812D02*X74409D01*
X73623Y118898D02*X74409D01*
X73623Y129134D02*X74409D01*
X73623Y136220D02*X74409D01*
X83859Y111811D02*X84645D01*
X83859Y104725D02*X84645D01*
X83859Y163779D02*X84645D01*
X83859Y156693D02*X84645D01*
X83859Y129134D02*X84645D01*
X83859Y122048D02*X84645D01*
X83859Y146456D02*X84645D01*
X83859Y139370D02*X84645D01*
X173622Y166536D02*X174408D01*
X173622Y173622D02*X174408D01*
X27953Y59054D02*X28739D01*
X27953Y51968D02*X28739D01*
G54D97*X46712Y29134D02*X51712D01*
X263812D02*X268812D01*
G54D96*X71654Y212991D02*Y212205D01*
X78740Y212991D02*Y212205D01*
X126772Y212991D02*Y212205D01*
X133858Y212991D02*Y212205D01*
X181496Y212991D02*Y212205D01*
X188582Y212991D02*Y212205D01*
X236614Y212991D02*Y212205D01*
X243700Y212991D02*Y212205D01*
G54D98*X170267Y159449D02*X175165D01*
X170267Y157481D02*X175165D01*
X170267Y155512D02*X175165D01*
X170267Y153544D02*X175165D01*
X170267Y151575D02*X175165D01*
X170267Y149607D02*X175165D01*
X170267Y147638D02*X175165D01*
X170267Y145670D02*X175165D01*
X170267Y143701D02*X175165D01*
X170267Y141733D02*X175165D01*
X170267Y139764D02*X175165D01*
X170267Y137796D02*X175165D01*
X170267Y135827D02*X175165D01*
X170267Y133859D02*X175165D01*
X170267Y131890D02*X175165D01*
X170267Y129922D02*X175165D01*
X170267Y127953D02*X175165D01*
X170267Y125985D02*X175165D01*
X170267Y124016D02*X175165D01*
X170267Y122048D02*X175165D01*
X170267Y120079D02*X175165D01*
X170267Y118111D02*X175165D01*
X170267Y116142D02*X175165D01*
X170267Y114174D02*X175165D01*
X170267Y112205D02*X175165D01*
X163779Y105717D02*Y100819D01*
X161811Y105717D02*Y100819D01*
X159842Y105717D02*Y100819D01*
X157874Y105717D02*Y100819D01*
X155905Y105717D02*Y100819D01*
X153937Y105717D02*Y100819D01*
X151968Y105717D02*Y100819D01*
X150000Y105717D02*Y100819D01*
X148031Y105717D02*Y100819D01*
X146063Y105717D02*Y100819D01*
X144094Y105717D02*Y100819D01*
X142126Y105717D02*Y100819D01*
X140157Y105717D02*Y100819D01*
X138189Y105717D02*Y100819D01*
X136220Y105717D02*Y100819D01*
X134252Y105717D02*Y100819D01*
X132283Y105717D02*Y100819D01*
X130315Y105717D02*Y100819D01*
X128346Y105717D02*Y100819D01*
X126378Y105717D02*Y100819D01*
X124409Y105717D02*Y100819D01*
X122441Y105717D02*Y100819D01*
X120472Y105717D02*Y100819D01*
X118504Y105717D02*Y100819D01*
X116535Y105717D02*Y100819D01*
X105149Y112205D02*X110047D01*
X105149Y114173D02*X110047D01*
X105149Y116142D02*X110047D01*
X105149Y118110D02*X110047D01*
X105149Y120079D02*X110047D01*
X105149Y122047D02*X110047D01*
X105149Y124016D02*X110047D01*
X105149Y125984D02*X110047D01*
X105149Y127953D02*X110047D01*
X105149Y129921D02*X110047D01*
X105149Y131890D02*X110047D01*
X105149Y133858D02*X110047D01*
X105149Y135827D02*X110047D01*
X105149Y137795D02*X110047D01*
X105149Y139764D02*X110047D01*
X105149Y141732D02*X110047D01*
X105149Y143701D02*X110047D01*
X105149Y145669D02*X110047D01*
X105149Y147638D02*X110047D01*
X105149Y149606D02*X110047D01*
X105149Y151575D02*X110047D01*
X105149Y153543D02*X110047D01*
X105149Y155512D02*X110047D01*
X105149Y157480D02*X110047D01*
X105149Y159449D02*X110047D01*
X116535Y170835D02*Y165937D01*
X118503Y170835D02*Y165937D01*
X120472Y170835D02*Y165937D01*
X122440Y170835D02*Y165937D01*
X124409Y170835D02*Y165937D01*
X126377Y170835D02*Y165937D01*
X128346Y170835D02*Y165937D01*
X130314Y170835D02*Y165937D01*
X132283Y170835D02*Y165937D01*
X134251Y170835D02*Y165937D01*
X136220Y170835D02*Y165937D01*
X138188Y170835D02*Y165937D01*
X140157Y170835D02*Y165937D01*
X142125Y170835D02*Y165937D01*
X144094Y170835D02*Y165937D01*
X146062Y170835D02*Y165937D01*
X148031Y170835D02*Y165937D01*
X149999Y170835D02*Y165937D01*
X151968Y170835D02*Y165937D01*
X153936Y170835D02*Y165937D01*
X155905Y170835D02*Y165937D01*
X157873Y170835D02*Y165937D01*
X159842Y170835D02*Y165937D01*
X161810Y170835D02*Y165937D01*
X163779Y170835D02*Y165937D01*
M02*
