G04 start of page 2 for group 0 idx 0 *
G04 Title: (unknown), component *
G04 Creator: pcb 20110918 *
G04 CreationDate: Wed 22 Jan 2014 02:11:10 GMT UTC *
G04 For: russells *
G04 Format: Gerber/RS-274X *
G04 PCB-Dimensions: 314961 236220 *
G04 PCB-Coordinate-Origin: lower left *
%MOIN*%
%FSLAX25Y25*%
%LNCMP*%
%ADD31C,0.0560*%
%ADD30C,0.0420*%
%ADD29C,0.0800*%
%ADD28C,0.0380*%
%ADD27C,0.0120*%
%ADD26C,0.0290*%
%ADD25C,0.1299*%
%ADD24C,0.0118*%
%ADD23C,0.2362*%
%ADD22C,0.0276*%
%ADD21R,0.2200X0.2200*%
%ADD20R,0.0512X0.0512*%
%ADD19C,0.0720*%
%ADD18C,0.1200*%
%ADD17C,0.0600*%
%ADD16C,0.0001*%
%ADD15C,0.0280*%
%ADD14C,0.0500*%
%ADD13C,0.0079*%
%ADD12C,0.0250*%
%ADD11C,0.0079*%
G54D11*X52362Y180315D02*X33308D01*
X33071Y180078D01*
X24409Y159842D02*Y106692D01*
X52363Y164961D02*X48031D01*
X52363Y157875D02*X35275D01*
X33071Y160078D01*
X48031Y164961D02*X46850Y166142D01*
X57480Y173228D02*X52363D01*
X52362Y173229D01*
X46850Y166142D02*Y177559D01*
X49606Y180315D01*
X75197Y124016D02*Y183071D01*
X67323Y127165D02*Y182677D01*
X115748Y112205D02*X106693Y120867D01*
X100394Y111417D02*X90945Y120866D01*
X98819Y121260D02*X112992Y107087D01*
X100788Y103150D02*X83071Y120866D01*
X96063Y103150D02*X75197Y124016D01*
X91338Y103150D02*X67323Y127165D01*
G54D12*X43306Y87008D02*X124803D01*
X33858Y97245D02*X115749D01*
X124803Y87008D02*X128740Y90945D01*
G54D11*X112992Y107087D02*Y102756D01*
G54D12*X115749Y97245D02*X119685Y101181D01*
Y118110D01*
X115354Y122441D01*
X128740Y125591D02*Y90945D01*
G54D11*X121260Y124803D02*X128740D01*
G54D12*X22835Y86222D02*X33857Y97244D01*
G54D11*X24409Y106692D02*X33857Y97244D01*
G54D12*Y77559D02*X43306Y87008D01*
X22833Y86220D02*Y65749D01*
X33464Y55118D01*
X46457D01*
X49213Y52362D01*
Y37180D01*
X49041Y37008D01*
G54D11*X97244Y209449D02*X77559D01*
X66535Y198425D01*
X111417Y209055D02*X122047Y198425D01*
X97244Y209449D02*Y199606D01*
X121850Y198622D02*Y194291D01*
X126378Y189764D01*
Y179921D02*Y189764D01*
X106693Y120866D02*Y183071D01*
X90945Y120866D02*Y183071D01*
X98819Y182677D02*Y121260D01*
X83071Y120866D02*Y182677D01*
X97244Y199606D02*X110630Y186220D01*
Y170472D01*
G54D12*X115354Y122441D02*Y129528D01*
G54D11*X120472Y137008D02*X118504Y138976D01*
G54D12*Y132677D02*X115354Y129528D01*
G54D11*X121260D02*Y132677D01*
X115748Y158661D02*Y175197D01*
X118504Y173228D02*Y138976D01*
X121653Y152362D02*Y171653D01*
X117716Y177165D02*X115748Y175197D01*
X120472D02*X118504Y173228D01*
X127165Y167716D02*Y141339D01*
X128740Y139764D01*
Y169291D02*X127165Y167716D01*
X123622Y177165D02*X126378Y179921D01*
X123622Y177165D02*X117716D01*
X126378Y175197D02*X120472D01*
X128740Y173228D02*X123228D01*
X121653Y171653D01*
X125590Y171260D02*X124409Y170079D01*
Y150000D01*
X121653Y147244D01*
X97638Y216142D02*X218110Y216141D01*
X208661Y209055D02*X188976D01*
X218110D02*X220866D01*
X108268D02*X111417D01*
X218112Y216142D02*X218111Y216141D01*
X151968Y198425D02*X145669Y192126D01*
X152756Y193701D02*X149213Y190157D01*
X145669Y192126D02*X135433D01*
X134252Y190945D01*
X149213Y190157D02*X143307D01*
X176378Y198425D02*X151968D01*
X185827Y196457D02*X183071Y193701D01*
X152756D01*
X157874Y187795D02*X161811Y191732D01*
X176378Y189370D02*X169685Y182677D01*
X153937Y179921D02*Y182677D01*
X154724Y177165D02*X157874Y180315D01*
Y187795D01*
X146457Y178740D02*X137008Y169291D01*
X145275Y160236D02*Y174803D01*
X147638Y177165D01*
X142126Y179134D02*X134252Y171260D01*
X151181Y157874D02*Y168898D01*
X152756Y170472D01*
X155118Y157874D02*Y166535D01*
X156299Y167716D01*
X163779Y159449D02*X168898Y164567D01*
X134252Y190945D02*Y178740D01*
X126378Y175197D02*X130315Y179134D01*
Y183071D01*
X128740Y173228D02*X134252Y178740D01*
Y171260D02*X125590D01*
X137008Y169291D02*X128740D01*
X143307Y190157D02*X142126Y188976D01*
Y179134D01*
X152756Y178740D02*X153937Y179921D01*
X155905Y173622D02*X158662Y176378D01*
X147638Y177165D02*X154724D01*
X152756Y178740D02*X146457D01*
X148031Y173622D02*X155905D01*
X188976Y209055D02*X178346Y198425D01*
X220866Y209055D02*X231496Y198425D01*
X217717Y209055D02*X212598Y203937D01*
X188189D01*
X185827Y201575D01*
Y196457D01*
X161811Y191732D02*X269685D01*
X256299Y216142D02*X218112D01*
X242520Y189370D02*X176378D01*
X244488Y187402D02*X242520Y189370D01*
X283465Y188189D02*X273228D01*
X269685Y191732D01*
X244094Y151968D02*Y162205D01*
X256299Y151968D02*X244094D01*
G54D12*X262205Y22834D02*Y28346D01*
X266142Y22834D02*Y28346D01*
X262205Y22834D02*X266142D01*
X264173Y24409D02*Y28346D01*
G54D11*X241732Y164567D02*X168898D01*
X175591D03*
X238583Y167716D02*X156299D01*
X152756Y170472D02*X262205D01*
X158661Y176378D02*X271654Y176377D01*
X283465Y168188D02*X274724D01*
X273228Y169685D01*
Y174803D01*
X271654Y176377D01*
X189764Y130709D02*X233858D01*
X159449Y126772D02*X184646D01*
X191338Y126378D02*X192520Y127559D01*
X231102D01*
X231890Y126772D01*
X201575Y124803D02*X227559D01*
X200394Y118110D02*X204331Y122047D01*
X223622D01*
X224803Y120866D01*
X207087Y119291D02*X219685D01*
X221260Y117716D01*
X227559Y124803D02*X228346Y124016D01*
X178346Y115354D02*X203150D01*
X207087Y119291D01*
X176772Y112598D02*X205905D01*
X209842Y116535D01*
X181102Y120866D02*X197638D01*
X179921Y118110D02*X200394D01*
X197638Y120866D02*X201575Y124803D01*
X175197Y118504D02*X178346Y115354D01*
X173622Y115748D02*X176772Y112598D01*
X172047Y112992D02*X175196Y109842D01*
X175197D02*X208661D01*
X211024Y112205D02*X208661Y109842D01*
X209842Y116535D02*X214567D01*
X244094Y162205D02*X241732Y164567D01*
X275591Y130314D02*X252756Y130315D01*
X268504Y113385D02*X284252D01*
X288189Y117322D01*
X252756Y130315D02*X250787Y128346D01*
X244095D02*X244094Y128347D01*
X250787Y128346D02*X238582D01*
X270866Y135433D02*X231496D01*
X244094Y144883D02*X238583Y144882D01*
X244094Y135433D03*
X233858Y130709D02*X234646Y129921D01*
X229921Y140157D02*X250000D01*
X217323Y159449D02*X240945D01*
X270866Y135433D02*X283622Y148189D01*
X283465Y138189D02*Y138188D01*
X275591Y130314D01*
X288189Y117322D02*Y143700D01*
X283465Y148425D01*
G54D13*X186614Y143701D02*Y149213D01*
G54D11*X169291Y144488D02*X173228Y148425D01*
X181496D01*
X183464Y137008D02*X186220Y139764D01*
X200394Y142520D02*X217323Y159449D01*
X200394Y136614D02*X226378D01*
X229921Y140157D01*
X120472Y137008D02*X183464D01*
X134646Y144488D02*X169292D01*
X181496Y139764D02*X128740D01*
X159842Y151575D02*X134646D01*
X142126Y157087D02*X145275Y160236D01*
X155512Y124016D02*X177953D01*
X181102Y120866D01*
X151575Y121260D02*X176772D01*
X179921Y118110D01*
X147638Y118504D02*X175197D01*
X143701Y115748D02*X173622D01*
X139764Y112992D02*X172047D01*
X191338Y126378D02*X185039D01*
X184646Y126772D01*
X188189Y129134D02*X189764Y130709D01*
X161811Y173622D02*X231496D01*
X216142Y114961D02*X214567Y116535D01*
G54D12*X163779Y130709D02*X148425D01*
X143307Y125591D01*
X128740D01*
X159842Y134252D02*X145275D01*
X143701Y132677D01*
X118504D01*
G54D14*X193307Y72835D03*
G54D15*X192614Y143701D03*
X195614Y123701D03*
G54D14*X201181Y72835D03*
X209055D03*
X216929D03*
X224803D03*
X232677D03*
X240551D03*
X248425D03*
G54D16*G36*
X280465Y191189D02*Y185189D01*
X286465D01*
Y191189D01*
X280465D01*
G37*
G54D17*X293465Y188189D03*
X283465Y178189D03*
X293465D03*
X283465Y168189D03*
X293465D03*
X283465Y158189D03*
X293465D03*
X283465Y148189D03*
X293465D03*
X283465Y138189D03*
X293465D03*
X283465Y128189D03*
X293465D03*
G54D16*G36*
X265504Y116385D02*Y110385D01*
X271504D01*
Y116385D01*
X265504D01*
G37*
G54D17*X268504Y103385D03*
Y93385D03*
Y83385D03*
Y73385D03*
Y63385D03*
G54D18*X253641Y16108D03*
X61712D03*
G54D16*G36*
X29471Y183678D02*Y176478D01*
X36671D01*
Y183678D01*
X29471D01*
G37*
G54D19*X33071Y170078D03*
Y160078D03*
G54D16*G36*
X27857Y83559D02*Y71559D01*
X39857D01*
Y83559D01*
X27857D01*
G37*
G54D18*X33857Y97244D03*
G54D16*G36*
X64823Y75335D02*Y70335D01*
X69823D01*
Y75335D01*
X64823D01*
G37*
G54D14*X75197Y72835D03*
X83071D03*
X90945D03*
X98819D03*
X106693D03*
X114567D03*
X122441D03*
X130315D03*
X138189D03*
X146063D03*
X153937D03*
X161811D03*
X169685D03*
X177559D03*
X185433D03*
G54D15*X186614Y143701D03*
X183614Y123701D03*
G54D16*G36*
X81252Y201425D02*Y195425D01*
X87252D01*
Y201425D01*
X81252D01*
G37*
G36*
Y227016D02*Y221016D01*
X87252D01*
Y227016D01*
X81252D01*
G37*
G54D17*X66536Y198425D03*
Y224016D03*
G54D16*G36*
X136370Y201425D02*Y195425D01*
X142370D01*
Y201425D01*
X136370D01*
G37*
G54D17*X121654Y198425D03*
G54D16*G36*
X191094Y201425D02*Y195425D01*
X197094D01*
Y201425D01*
X191094D01*
G37*
G54D17*X176378Y198425D03*
G54D16*G36*
X136370Y227016D02*Y221016D01*
X142370D01*
Y227016D01*
X136370D01*
G37*
G54D17*X121654Y224016D03*
G54D16*G36*
X191094Y227016D02*Y221016D01*
X197094D01*
Y227016D01*
X191094D01*
G37*
G54D17*X176378Y224016D03*
G54D16*G36*
X246213Y227016D02*Y221016D01*
X252213D01*
Y227016D01*
X246213D01*
G37*
G54D17*X231497Y224016D03*
G54D16*G36*
X246213Y201425D02*Y195425D01*
X252213D01*
Y201425D01*
X246213D01*
G37*
G54D17*X231497Y198425D03*
G54D14*X248425Y182835D03*
X240551D03*
X232677D03*
X224803D03*
X216929D03*
X209055D03*
X201181D03*
X193307D03*
X185433D03*
X177559D03*
X169685D03*
X161811D03*
X153937D03*
X146063D03*
X138189D03*
X130315D03*
X122441D03*
X114567D03*
X106693D03*
X98819D03*
X90945D03*
X83071D03*
X75197D03*
X67323D03*
G54D20*X71825Y88513D02*X72611D01*
X71825Y95599D02*X72611D01*
G54D21*X46541Y37008D02*X51541D01*
G54D20*X97245Y209055D02*X98031D01*
X51969Y180315D02*X52755D01*
X51969Y173229D02*X52755D01*
X51970Y157875D02*X52756D01*
X51970Y164961D02*X52756D01*
X243701Y151968D02*X244487D01*
X243701Y144882D02*X244487D01*
X243701Y128347D02*X244487D01*
X243701Y135433D02*X244487D01*
G54D21*X263641Y37008D02*X268641D01*
G54D20*X97245Y216141D02*X98031D01*
X142914Y151574D02*X143700D01*
X135040D02*X135826D01*
X142914Y144488D02*X143700D01*
X135040D02*X135826D01*
X127953Y125591D02*X128739D01*
X127953Y132677D02*X128739D01*
X107875Y216141D02*X108661D01*
X208268D02*X209054D01*
X217717D02*X218503D01*
X107875Y209055D02*X108661D01*
X208268D02*X209054D01*
X217717D02*X218503D01*
G54D22*X186614Y149213D03*
X186220Y139764D03*
X181496D03*
Y148425D03*
X121260Y129528D03*
X238582Y128346D03*
X188189Y129134D03*
X235039Y129921D03*
X151181Y157874D03*
X159842Y151575D03*
X163779Y130709D03*
X200394Y142520D03*
Y136614D03*
X57480Y173228D03*
X110630Y170472D03*
X24409Y159842D03*
G54D23*X19685Y19685D03*
Y216535D03*
G54D22*X238583Y144882D03*
X231496Y173622D03*
X238583Y167716D03*
X241338Y159449D03*
X250000Y140157D03*
X244488Y187402D03*
X262205Y170472D03*
X256299Y151968D03*
Y216142D03*
G54D23*X295276Y216535D03*
G54D22*X231496Y135433D03*
X231890Y126772D03*
X228346Y124016D03*
X224803Y120866D03*
X221260Y117716D03*
G54D23*X295276Y19685D03*
G54D22*X266142Y22834D03*
X262205D03*
X216142Y114961D03*
X211024Y112205D03*
X121260Y124803D03*
X159842Y134252D03*
X159449Y126772D03*
X155512Y124016D03*
X151575Y121260D03*
X147638Y118504D03*
X143701Y115748D03*
X139764Y112992D03*
X100394Y111417D03*
X112992Y102756D03*
X100787Y103150D03*
X96063D03*
X91338D03*
X115748Y112205D03*
Y158661D03*
X121653Y152362D03*
Y147244D03*
X148031Y173622D03*
X161811D03*
X159842Y159449D03*
X142126Y157087D03*
X155118Y157874D03*
X163779Y159449D03*
G54D24*G54D25*G54D24*G54D25*G54D24*G54D25*G54D24*G54D26*G54D27*G54D26*G54D28*G54D29*G54D30*G54D31*G54D26*G54D27*G54D26*M02*
