G04 start of page 3 for group 1 idx 1 *
G04 Title: (unknown), solder *
G04 Creator: pcb 20110918 *
G04 CreationDate: Wed 22 Jan 2014 02:11:10 GMT UTC *
G04 For: russells *
G04 Format: Gerber/RS-274X *
G04 PCB-Dimensions: 314961 236220 *
G04 PCB-Coordinate-Origin: lower left *
%MOIN*%
%FSLAX25Y25*%
%LNSOL*%
%ADD53C,0.0560*%
%ADD52C,0.0420*%
%ADD51C,0.0800*%
%ADD50C,0.0380*%
%ADD49C,0.0120*%
%ADD48C,0.0290*%
%ADD47C,0.1299*%
%ADD46C,0.0118*%
%ADD45C,0.2362*%
%ADD44C,0.0276*%
%ADD43R,0.0110X0.0110*%
%ADD42R,0.0512X0.0512*%
%ADD41R,0.2200X0.2200*%
%ADD40C,0.0720*%
%ADD39C,0.1200*%
%ADD38C,0.0600*%
%ADD37C,0.0001*%
%ADD36C,0.0280*%
%ADD35C,0.0500*%
%ADD34C,0.0250*%
%ADD33C,0.0079*%
%ADD32C,0.0079*%
G54D32*X140157Y102362D02*Y81890D01*
X142126Y102362D02*Y83071D01*
X136220Y102362D02*Y79134D01*
X134252Y102362D02*Y76772D01*
G54D33*X138189Y77165D02*X136220Y79134D01*
G54D32*X132283Y102362D02*Y82677D01*
G54D33*X138189Y72835D02*Y77165D01*
X127559Y108268D02*X172441D01*
X160236Y112992D02*X139764D01*
X175590Y110236D02*X135433D01*
X175590D02*X180709Y105118D01*
X178740Y112205D02*X183858Y107087D01*
X151968Y90157D02*X153543Y88583D01*
X153937Y102362D02*Y92520D01*
X155905Y102362D02*Y94094D01*
X157480Y92520D01*
X157874Y102362D02*Y96063D01*
X159449Y94488D01*
X159842Y102362D02*Y98031D01*
X161417Y96457D01*
X161811Y102362D02*Y100000D01*
X174409Y100787D02*X172441Y102756D01*
X163779D01*
X161811Y100000D02*X163386Y98425D01*
X172441Y108268D02*X177559Y103150D01*
X146457Y78740D02*X155905D01*
X147638Y80709D02*X161811D01*
X148425Y82677D02*X167716D01*
X150000Y84646D02*X173622D01*
X151968Y86614D02*X179527D01*
X153543Y88583D02*X185433D01*
X155905Y78740D02*X161811Y72835D01*
Y80709D02*X169685Y72835D01*
X167716Y82677D02*X177559Y72835D01*
G54D32*X150000Y76772D02*X153937Y72835D01*
G54D33*Y92520D02*X155905Y90551D01*
X191338D01*
X157480Y92520D02*X197244D01*
X159449Y94488D02*X203150D01*
X161417Y96457D02*X209055D01*
X163386Y98425D02*X214961D01*
G54D32*X174409Y100787D02*X220472D01*
G54D33*X179527Y86614D02*X193307Y72835D01*
X185433Y88583D02*X201181Y72835D01*
X191338Y90551D02*X209055Y72835D01*
X197244Y92520D02*X216929Y72835D01*
X177559Y103150D02*X250394D01*
X183858Y107087D02*X246457D01*
X187008Y109055D02*X243307D01*
X259055Y108661D02*X255512Y105118D01*
X180709Y105118D02*X255512Y105118D01*
X250394Y103150D02*X252362Y101181D01*
G54D34*X262205Y22834D02*Y28346D01*
X266142Y22834D02*Y28346D01*
X262205Y22834D02*X266142D01*
X264173Y24409D02*Y28346D01*
G54D33*X173622Y84646D02*X185433Y72835D01*
G54D32*X220472Y100787D02*X248425Y72835D01*
G54D33*X252362Y101181D02*Y86220D01*
X255118Y83464D01*
X268504D01*
X214961Y98425D02*X240551Y72835D01*
X203150Y94488D02*X224803Y72835D01*
X209055Y96457D02*X232677Y72835D01*
X191732Y133858D02*X200394Y142520D01*
X186614Y129921D03*
X188189Y129134D02*X187401Y129921D01*
X195669Y131890D02*X200393Y136614D01*
X194094Y166142D02*X198819D01*
X203937Y161024D01*
X172441Y112205D02*X178740D01*
X172441Y114173D02*X181890D01*
X187008Y109055D01*
X172441Y116142D02*X198425D01*
X172835Y127953D02*X160630D01*
X172835Y125984D02*X162992D01*
X172835Y124016D02*X163386D01*
X160630Y127953D02*X159449Y126772D01*
X162992Y125984D02*X161024Y124016D01*
X155512D01*
X160630Y121260D02*X151575D01*
X160630Y118504D02*X147638D01*
X160236Y115748D02*X143701D01*
X133465Y112204D02*Y140157D01*
X172835Y122047D02*X164173D01*
X172835Y120079D02*X164567D01*
X172835Y118110D02*X165355D01*
X163386Y124016D02*X160630Y121260D01*
X164173Y122047D02*X160630Y118504D01*
X164567Y120079D02*X160236Y115748D01*
X165355Y118110D02*X160236Y112992D01*
X172835Y135827D02*X182283D01*
X172835Y129921D02*X187401D01*
X172835Y137795D02*X179527D01*
X172835Y147638D02*X180709D01*
X181496Y148425D01*
X186220Y139764D02*X182283Y135827D01*
X172835Y133858D02*X191732D01*
X172835Y131890D02*X195669D01*
X179527Y137795D02*X181496Y139764D01*
X150000Y168504D02*Y162992D01*
X151181Y161811D01*
X151968Y168504D02*Y163779D01*
X155118Y160630D01*
X144094Y168504D02*Y159055D01*
X155118Y160630D02*Y157874D01*
G54D34*X159842Y134252D02*Y159449D01*
G54D33*Y168110D02*Y159449D01*
X161811Y161417D02*X159842Y159449D01*
G54D34*X163779Y130709D02*Y159449D01*
G54D33*Y168110D02*Y159449D01*
G54D32*X172834D02*Y166535D01*
G54D33*X172835Y159449D02*X163779D01*
X198425Y116142D02*X203937Y121653D01*
X211024Y116142D02*X207874Y119291D01*
X216142Y114961D02*X211811Y119291D01*
X263386Y121259D02*X259055Y116929D01*
Y108661D01*
G54D32*X189764Y146457D02*X192520Y143701D01*
X186614Y149213D02*Y154331D01*
X189764Y146457D02*X183858D01*
X183070Y145669D01*
X161811Y173622D02*X179134D01*
X153937Y174016D02*Y168504D01*
X152756Y178740D02*X155905Y175591D01*
Y168504D01*
G54D33*X179134Y173622D02*X186614Y166142D01*
Y161023D01*
X194488D02*X194489Y161024D01*
X186614D02*X195668D01*
X161811Y173622D02*Y161417D01*
X177559Y182677D02*X194094Y166142D01*
G54D32*X172835Y143701D02*X186614D01*
X183071Y145669D02*X172835D01*
X192520Y143701D02*X196063Y147244D01*
Y154331D01*
G54D33*X248425Y183071D02*X253150Y178346D01*
X243701Y203937D02*X249213Y198425D01*
X244488Y179528D02*Y187402D01*
X256299Y216142D02*Y151968D01*
X240945Y159449D02*X241338Y159842D01*
Y172835D01*
X236614Y177559D01*
X240551D02*Y182677D01*
X250000Y174016D02*X244488Y179528D01*
X145275Y203937D02*X188582D01*
X194094Y198425D01*
X199606Y203937D01*
X234252Y189370D02*X168504D01*
X124016Y192126D02*X152362D01*
X153937Y174016D02*X150787Y177165D01*
X153937Y182677D02*Y190551D01*
X152362Y192126D01*
X168504Y189370D02*X161811Y182677D01*
X134252Y168504D02*Y161417D01*
X131495Y158661D01*
X136220Y168504D02*Y159842D01*
X128740Y152362D02*X136220Y159842D01*
X127559Y147244D02*X138189Y157874D01*
X142126Y157087D02*X144094Y159055D01*
X236614Y177559D02*Y187008D01*
X199606Y203937D02*X243701D01*
X236614Y187008D02*X234252Y189370D01*
X227559Y180315D02*X224803Y183071D01*
X223622Y176378D02*X216929Y183071D01*
X232677Y182677D02*Y178740D01*
X234646Y176772D01*
X219685Y172047D02*X209055Y182677D01*
X201181D02*X215748Y168110D01*
X193307Y182677D02*X211811Y164173D01*
X207874Y160630D02*X185433Y183071D01*
X253150Y178346D02*Y113779D01*
X246457Y107087D01*
X244882Y173228D02*Y110630D01*
X238583Y128347D02*X238582Y128346D01*
X250000Y140157D02*Y174016D01*
X243307Y109055D02*X244882Y110630D01*
X262205Y170472D02*Y160236D01*
X264173Y158268D01*
X283465Y158267D01*
X297244Y121259D02*X263386D01*
X240551Y177559D02*X244882Y173228D01*
X238583Y128347D02*Y167323D01*
X234646Y129921D02*Y176772D01*
X231496Y173622D02*Y135433D01*
X283465Y178346D02*X288583Y173228D01*
X298425D01*
X300787Y170866D01*
Y124803D01*
X297244Y121259D01*
X231890Y126772D02*X227559Y131102D01*
Y180315D01*
X223622Y128740D02*Y176378D01*
X219685Y125984D02*Y172047D01*
X228346Y124016D02*X223622Y128740D01*
X224803Y120866D02*X219685Y125984D01*
X221260Y117716D02*X215748Y123228D01*
X211024Y112205D02*Y116142D01*
X215748Y123228D02*Y168110D01*
X211811Y119291D02*Y164173D01*
X207874Y119291D02*Y160630D01*
X203937Y161024D02*Y121653D01*
G54D32*X132283Y82677D02*X122441Y72835D01*
X128740Y83465D02*X125197D01*
X114567Y72835D01*
X126772Y85433D02*X119291D01*
X106693Y72835D01*
X124803Y87402D02*X113386D01*
X98819Y72835D01*
X123228Y89370D02*X107480D01*
X124409Y102362D02*Y90551D01*
X123228Y89370D01*
X122441Y102362D02*Y92520D01*
X121260Y91339D01*
X120472Y102362D02*Y94488D01*
X119291Y93307D01*
X118504Y102362D02*Y96850D01*
X116929Y95276D01*
G54D33*X112992Y102756D02*X116535D01*
G54D32*X121260Y91339D02*X101575D01*
X119291Y93307D02*X95669D01*
X107480Y89370D02*X90945Y72835D01*
X101575Y91339D02*X83071Y72835D01*
X95669Y93307D02*X75197Y72835D01*
X116929Y95276D02*X89764D01*
X67323Y72835D01*
G54D34*X49213Y37008D02*Y62203D01*
X33857Y77559D01*
G54D32*X130315Y102362D02*Y85039D01*
X128346Y102362D02*Y87008D01*
X126378Y102362D02*Y88976D01*
G54D33*X138189Y102362D02*Y80709D01*
G54D32*X130315Y85039D02*X128740Y83465D01*
X128346Y87008D02*X126772Y85433D01*
X126378Y88976D02*X124803Y87402D01*
X134252Y76772D02*X130315Y72835D01*
G54D33*X138189Y80709D02*X146063Y72835D01*
X140157Y81890D02*X145275Y76772D01*
X150000D01*
X142126Y83071D02*X146457Y78740D01*
X144094Y84252D02*X147638Y80709D01*
X146063Y85039D02*X148425Y82677D01*
X148031Y86614D02*X150000Y84646D01*
X144094Y102362D02*Y84252D01*
X146063Y102362D02*Y85039D01*
X148031Y102362D02*Y86614D01*
X150000Y102362D02*Y88583D01*
X151968Y86614D01*
Y102362D02*Y90157D01*
G54D32*X73228Y118897D02*X68504D01*
X74016Y111812D02*X84252Y111811D01*
X68504Y104724D02*X84252Y104725D01*
X68504Y118897D02*X67716Y119685D01*
Y135433D01*
X68504Y136220D01*
X73228D01*
X68504D02*X67716Y137008D01*
X68504Y118897D02*X67716Y118110D01*
X84252Y122048D02*Y111811D01*
X74016Y129134D02*X84252D01*
G54D33*Y198425D02*X89764Y203937D01*
X84252Y198425D02*X78740Y203937D01*
X63386D01*
X58268Y198819D01*
Y188189D01*
X56693Y186614D01*
G54D32*X67716Y137008D02*Y152756D01*
Y154330D02*Y170079D01*
Y118110D02*Y105512D01*
X68504Y104724D01*
X67716Y152756D02*X68504Y153543D01*
X74016D01*
X68504D02*X67716Y154330D01*
X68504Y170866D02*X74016Y170867D01*
X92126Y170866D02*X94882Y168110D01*
Y135433D01*
X92913Y161417D02*Y130315D01*
X84252Y146456D02*X89764Y146457D01*
X90945Y145276D01*
X74016Y146457D02*X84646Y146456D01*
X84252D02*Y156693D01*
X74016Y163780D02*X90551Y163779D01*
X92913Y161417D01*
X94882Y135433D02*X98425Y131890D01*
X84252Y139370D02*Y129134D01*
X92913Y130315D02*X95275Y127953D01*
X90945Y127559D02*X92520Y125984D01*
X84645Y129134D02*X86614D01*
X91732Y124016D01*
X90945Y145276D02*Y127559D01*
G54D33*X93307Y120079D02*X91338Y118110D01*
X95669D02*X94094Y116535D01*
Y105118D01*
X98031Y116142D02*X96457Y114567D01*
Y107480D01*
G54D32*X67716Y170079D02*X68504Y170866D01*
G54D33*X57480Y176772D02*X39764D01*
X33070Y170078D01*
X56693Y186614D02*X27953D01*
X24409Y183071D01*
X33071Y160078D02*X24645D01*
X24409Y159842D01*
Y183071D02*Y159842D01*
G54D32*X98425Y131890D02*X118898D01*
G54D33*X107480Y129921D02*X116142D01*
X121260Y124803D01*
Y129528D02*X118898Y131890D01*
X124015Y135827D02*X125984Y133858D01*
Y109842D01*
X103150Y114173D02*X100394Y111417D01*
X59448Y178740D02*X57480Y176772D01*
X61417Y177165D02*X57480Y173228D01*
X74016Y170866D02*X92126D01*
X107480Y135827D02*X124015D01*
X152756Y178740D02*X59448D01*
X150787Y177165D02*X61417D01*
X131496Y158661D02*X115748D01*
X114173Y162205D02*X130315D01*
X121653Y152362D02*X128740D01*
X121653Y147244D02*X127559D01*
X110630Y170472D02*Y165748D01*
X114173Y162205D01*
X89764Y203937D02*X134252D01*
X139764Y198425D01*
X145275Y203937D01*
X114567Y182677D02*X122441D01*
Y190551D01*
X124016Y192126D01*
X138189Y168504D02*Y157874D01*
X132283Y168504D02*Y164173D01*
X130315Y162205D01*
X133464Y140157D02*X148031Y154724D01*
Y159055D01*
X146063Y161024D01*
Y168504D01*
X148031Y173622D02*Y168504D01*
X151181Y161811D02*Y157874D01*
X107480Y120079D02*X93307D01*
X107480Y118110D02*X95669D01*
X107480Y116142D02*X98031D01*
X107480Y114173D02*X103150D01*
X125984Y109842D02*X127559Y108268D01*
X135433Y110236D02*X133464Y112205D01*
X107480D02*X115748D01*
G54D32*X95275Y127953D02*X107480D01*
X92520Y125984D02*X107480D01*
X84252Y122048D02*X107480Y122047D01*
X91732Y124016D02*X107480D01*
G54D33*X91338Y118110D02*Y103150D01*
X94094Y105118D02*X96063Y103150D01*
X96457Y107480D02*X100787Y103150D01*
G54D35*X193307Y72835D03*
G54D36*X192614Y143701D03*
X195614Y123701D03*
G54D35*X201181Y72835D03*
X209055D03*
X216929D03*
X224803D03*
X232677D03*
X240551D03*
X248425D03*
G54D37*G36*
X280465Y191189D02*Y185189D01*
X286465D01*
Y191189D01*
X280465D01*
G37*
G54D38*X293465Y188189D03*
X283465Y178189D03*
X293465D03*
X283465Y168189D03*
X293465D03*
X283465Y158189D03*
X293465D03*
X283465Y148189D03*
X293465D03*
X283465Y138189D03*
X293465D03*
X283465Y128189D03*
X293465D03*
G54D37*G36*
X265504Y116385D02*Y110385D01*
X271504D01*
Y116385D01*
X265504D01*
G37*
G54D38*X268504Y103385D03*
Y93385D03*
Y83385D03*
Y73385D03*
Y63385D03*
G54D39*X253641Y16108D03*
X61712D03*
G54D37*G36*
X29471Y183678D02*Y176478D01*
X36671D01*
Y183678D01*
X29471D01*
G37*
G54D40*X33071Y170078D03*
Y160078D03*
G54D37*G36*
X27857Y83559D02*Y71559D01*
X39857D01*
Y83559D01*
X27857D01*
G37*
G54D39*X33857Y97244D03*
G54D37*G36*
X64823Y75335D02*Y70335D01*
X69823D01*
Y75335D01*
X64823D01*
G37*
G54D35*X75197Y72835D03*
X83071D03*
X90945D03*
X98819D03*
X106693D03*
X114567D03*
X122441D03*
X130315D03*
X138189D03*
X146063D03*
X153937D03*
X161811D03*
X169685D03*
X177559D03*
X185433D03*
G54D36*X186614Y143701D03*
X183614Y123701D03*
G54D37*G36*
X81252Y201425D02*Y195425D01*
X87252D01*
Y201425D01*
X81252D01*
G37*
G36*
Y227016D02*Y221016D01*
X87252D01*
Y227016D01*
X81252D01*
G37*
G54D38*X66536Y198425D03*
Y224016D03*
G54D37*G36*
X136370Y201425D02*Y195425D01*
X142370D01*
Y201425D01*
X136370D01*
G37*
G54D38*X121654Y198425D03*
G54D37*G36*
X191094Y201425D02*Y195425D01*
X197094D01*
Y201425D01*
X191094D01*
G37*
G54D38*X176378Y198425D03*
G54D37*G36*
X136370Y227016D02*Y221016D01*
X142370D01*
Y227016D01*
X136370D01*
G37*
G54D38*X121654Y224016D03*
G54D37*G36*
X191094Y227016D02*Y221016D01*
X197094D01*
Y227016D01*
X191094D01*
G37*
G54D38*X176378Y224016D03*
G54D37*G36*
X246213Y227016D02*Y221016D01*
X252213D01*
Y227016D01*
X246213D01*
G37*
G54D38*X231497Y224016D03*
G54D37*G36*
X246213Y201425D02*Y195425D01*
X252213D01*
Y201425D01*
X246213D01*
G37*
G54D38*X231497Y198425D03*
G54D35*X248425Y182835D03*
X240551D03*
X232677D03*
X224803D03*
X216929D03*
X209055D03*
X201181D03*
X193307D03*
X185433D03*
X177559D03*
X169685D03*
X161811D03*
X153937D03*
X146063D03*
X138189D03*
X130315D03*
X122441D03*
X114567D03*
X106693D03*
X98819D03*
X90945D03*
X83071D03*
X75197D03*
X67323D03*
G54D41*X46712Y37008D02*X51712D01*
G54D42*X73623Y163780D02*X74409D01*
X83859Y163779D02*X84645D01*
X83859Y156693D02*X84645D01*
X83859Y146456D02*X84645D01*
X83859Y139370D02*X84645D01*
X73623Y170866D02*X74409D01*
X73623Y146457D02*X74409D01*
X73623Y129134D02*X74409D01*
X73623Y136220D02*X74409D01*
X73623Y153543D02*X74409D01*
X73623Y111812D02*X74409D01*
X73623Y118898D02*X74409D01*
X83859Y111811D02*X84645D01*
X83859Y104725D02*X84645D01*
X83859Y129134D02*X84645D01*
X83859Y122048D02*X84645D01*
G54D41*X263812Y37008D02*X268812D01*
G54D43*X170267Y159449D02*X175165D01*
X170267Y157481D02*X175165D01*
X170267Y155512D02*X175165D01*
X170267Y153544D02*X175165D01*
X170267Y151575D02*X175165D01*
X170267Y149607D02*X175165D01*
X170267Y147638D02*X175165D01*
X170267Y145670D02*X175165D01*
X170267Y143701D02*X175165D01*
G54D42*X186221Y161024D02*X187007D01*
X186221Y153938D02*X187007D01*
X195670Y161023D02*X196456D01*
X195670Y153937D02*X196456D01*
G54D43*X170267Y141733D02*X175165D01*
X170267Y139764D02*X175165D01*
X170267Y137796D02*X175165D01*
X170267Y135827D02*X175165D01*
X170267Y133859D02*X175165D01*
X170267Y131890D02*X175165D01*
X170267Y129922D02*X175165D01*
X170267Y127953D02*X175165D01*
X170267Y125985D02*X175165D01*
X170267Y124016D02*X175165D01*
X170267Y122048D02*X175165D01*
X170267Y120079D02*X175165D01*
X170267Y118111D02*X175165D01*
X170267Y116142D02*X175165D01*
X170267Y114174D02*X175165D01*
X170267Y112205D02*X175165D01*
X105149Y149606D02*X110047D01*
X105149Y151575D02*X110047D01*
X105149Y153543D02*X110047D01*
X105149Y155512D02*X110047D01*
X105149Y157480D02*X110047D01*
X105149Y159449D02*X110047D01*
X116535Y170835D02*Y165937D01*
X118503Y170835D02*Y165937D01*
X120472Y170835D02*Y165937D01*
X122440Y170835D02*Y165937D01*
X124409Y170835D02*Y165937D01*
X126377Y170835D02*Y165937D01*
X128346Y170835D02*Y165937D01*
X130314Y170835D02*Y165937D01*
X132283Y170835D02*Y165937D01*
X134251Y170835D02*Y165937D01*
X136220Y170835D02*Y165937D01*
X138188Y170835D02*Y165937D01*
X140157Y170835D02*Y165937D01*
X142125Y170835D02*Y165937D01*
X144094Y170835D02*Y165937D01*
X146062Y170835D02*Y165937D01*
X148031Y170835D02*Y165937D01*
X149999Y170835D02*Y165937D01*
X151968Y170835D02*Y165937D01*
X153936Y170835D02*Y165937D01*
X155905Y170835D02*Y165937D01*
X157873Y170835D02*Y165937D01*
X159842Y170835D02*Y165937D01*
X161810Y170835D02*Y165937D01*
X163779Y170835D02*Y165937D01*
G54D42*X173622Y166536D02*X174408D01*
X173622Y173622D02*X174408D01*
G54D43*X163779Y105717D02*Y100819D01*
X161811Y105717D02*Y100819D01*
X159842Y105717D02*Y100819D01*
X157874Y105717D02*Y100819D01*
X155905Y105717D02*Y100819D01*
X153937Y105717D02*Y100819D01*
X151968Y105717D02*Y100819D01*
X150000Y105717D02*Y100819D01*
X148031Y105717D02*Y100819D01*
X146063Y105717D02*Y100819D01*
X144094Y105717D02*Y100819D01*
X142126Y105717D02*Y100819D01*
X140157Y105717D02*Y100819D01*
X138189Y105717D02*Y100819D01*
X136220Y105717D02*Y100819D01*
X134252Y105717D02*Y100819D01*
X132283Y105717D02*Y100819D01*
X130315Y105717D02*Y100819D01*
X128346Y105717D02*Y100819D01*
X126378Y105717D02*Y100819D01*
X124409Y105717D02*Y100819D01*
X122441Y105717D02*Y100819D01*
X120472Y105717D02*Y100819D01*
X118504Y105717D02*Y100819D01*
X116535Y105717D02*Y100819D01*
X105149Y112205D02*X110047D01*
X105149Y114173D02*X110047D01*
X105149Y116142D02*X110047D01*
X105149Y118110D02*X110047D01*
X105149Y120079D02*X110047D01*
X105149Y122047D02*X110047D01*
X105149Y124016D02*X110047D01*
X105149Y125984D02*X110047D01*
X105149Y127953D02*X110047D01*
X105149Y129921D02*X110047D01*
X105149Y131890D02*X110047D01*
X105149Y133858D02*X110047D01*
X105149Y135827D02*X110047D01*
X105149Y137795D02*X110047D01*
X105149Y139764D02*X110047D01*
X105149Y141732D02*X110047D01*
X105149Y143701D02*X110047D01*
X105149Y145669D02*X110047D01*
X105149Y147638D02*X110047D01*
G54D44*X186614Y149213D03*
X186220Y139764D03*
X181496D03*
Y148425D03*
X121260Y129528D03*
X238582Y128346D03*
X188189Y129134D03*
X235039Y129921D03*
X151181Y157874D03*
X159842Y151575D03*
X163779Y130709D03*
X200394Y142520D03*
Y136614D03*
X57480Y173228D03*
X110630Y170472D03*
X24409Y159842D03*
G54D45*X19685Y19685D03*
Y216535D03*
G54D44*X238583Y144882D03*
X231496Y173622D03*
X238583Y167716D03*
X241338Y159449D03*
X250000Y140157D03*
X244488Y187402D03*
X262205Y170472D03*
X256299Y151968D03*
Y216142D03*
G54D45*X295276Y216535D03*
G54D44*X231496Y135433D03*
X231890Y126772D03*
X228346Y124016D03*
X224803Y120866D03*
X221260Y117716D03*
G54D45*X295276Y19685D03*
G54D44*X266142Y22834D03*
X262205D03*
X216142Y114961D03*
X211024Y112205D03*
X121260Y124803D03*
X159842Y134252D03*
X159449Y126772D03*
X155512Y124016D03*
X151575Y121260D03*
X147638Y118504D03*
X143701Y115748D03*
X139764Y112992D03*
X100394Y111417D03*
X112992Y102756D03*
X100787Y103150D03*
X96063D03*
X91338D03*
X115748Y112205D03*
Y158661D03*
X121653Y152362D03*
Y147244D03*
X148031Y173622D03*
X161811D03*
X159842Y159449D03*
X142126Y157087D03*
X155118Y157874D03*
X163779Y159449D03*
G54D46*G54D47*G54D46*G54D47*G54D46*G54D47*G54D46*G54D48*G54D49*G54D48*G54D50*G54D51*G54D52*G54D53*G54D48*G54D49*G54D48*M02*
