G04 start of page 5 for group -4063 idx -4063 *
G04 Title: (unknown), componentmask *
G04 Creator: pcb 20110918 *
G04 CreationDate: Wed 22 Jan 2014 02:11:10 GMT UTC *
G04 For: russells *
G04 Format: Gerber/RS-274X *
G04 PCB-Dimensions: 314961 236220 *
G04 PCB-Coordinate-Origin: lower left *
%MOIN*%
%FSLAX25Y25*%
%LNSTC*%
%ADD71R,0.2300X0.2300*%
%ADD70R,0.0572X0.0572*%
%ADD69C,0.0800*%
%ADD68C,0.0780*%
%ADD67C,0.1300*%
%ADD66C,0.0640*%
%ADD65C,0.0660*%
%ADD64C,0.0001*%
%ADD63C,0.0300*%
%ADD62C,0.0550*%
G54D62*X193307Y72835D03*
G54D63*X192614Y143701D03*
X195614Y123701D03*
G54D62*X201181Y72835D03*
X209055D03*
X216929D03*
X224803D03*
X232677D03*
X240551D03*
X248425D03*
G54D64*G36*
X280165Y191489D02*Y184889D01*
X286765D01*
Y191489D01*
X280165D01*
G37*
G54D65*X293465Y188189D03*
X283465Y178189D03*
X293465D03*
X283465Y168189D03*
X293465D03*
X283465Y158189D03*
X293465D03*
X283465Y148189D03*
X293465D03*
X283465Y138189D03*
X293465D03*
X283465Y128189D03*
X293465D03*
G54D64*G36*
X265304Y116585D02*Y110185D01*
X271704D01*
Y116585D01*
X265304D01*
G37*
G54D66*X268504Y103385D03*
Y93385D03*
Y83385D03*
Y73385D03*
Y63385D03*
G54D67*X253641Y16108D03*
X61712D03*
G54D64*G36*
X29171Y183978D02*Y176178D01*
X36971D01*
Y183978D01*
X29171D01*
G37*
G54D68*X33071Y170078D03*
Y160078D03*
G54D64*G36*
X27357Y84059D02*Y71059D01*
X40357D01*
Y84059D01*
X27357D01*
G37*
G54D67*X33857Y97244D03*
G54D64*G36*
X64573Y75585D02*Y70085D01*
X70073D01*
Y75585D01*
X64573D01*
G37*
G54D62*X75197Y72835D03*
X83071D03*
X90945D03*
X98819D03*
X106693D03*
X114567D03*
X122441D03*
X130315D03*
X138189D03*
X146063D03*
X153937D03*
X161811D03*
X169685D03*
X177559D03*
X185433D03*
G54D63*X186614Y143701D03*
X183614Y123701D03*
G54D64*G36*
X80252Y202425D02*Y194425D01*
X88252D01*
Y202425D01*
X80252D01*
G37*
G36*
Y228016D02*Y220016D01*
X88252D01*
Y228016D01*
X80252D01*
G37*
G54D69*X66536Y198425D03*
Y224016D03*
G54D64*G36*
X135370Y202425D02*Y194425D01*
X143370D01*
Y202425D01*
X135370D01*
G37*
G54D69*X121654Y198425D03*
G54D64*G36*
X190094Y202425D02*Y194425D01*
X198094D01*
Y202425D01*
X190094D01*
G37*
G54D69*X176378Y198425D03*
G54D64*G36*
X135370Y228016D02*Y220016D01*
X143370D01*
Y228016D01*
X135370D01*
G37*
G54D69*X121654Y224016D03*
G54D64*G36*
X190094Y228016D02*Y220016D01*
X198094D01*
Y228016D01*
X190094D01*
G37*
G54D69*X176378Y224016D03*
G54D64*G36*
X245213Y228016D02*Y220016D01*
X253213D01*
Y228016D01*
X245213D01*
G37*
G54D69*X231497Y224016D03*
G54D64*G36*
X245213Y202425D02*Y194425D01*
X253213D01*
Y202425D01*
X245213D01*
G37*
G54D69*X231497Y198425D03*
G54D62*X248425Y182835D03*
X240551D03*
X232677D03*
X224803D03*
X216929D03*
X209055D03*
X201181D03*
X193307D03*
X185433D03*
X177559D03*
X169685D03*
X161811D03*
X153937D03*
X146063D03*
X138189D03*
X130315D03*
X122441D03*
X114567D03*
X106693D03*
X98819D03*
X90945D03*
X83071D03*
X75197D03*
X67323D03*
G54D70*X71825Y88513D02*X72611D01*
X71825Y95599D02*X72611D01*
G54D71*X46541Y37008D02*X51541D01*
G54D70*X97245Y209055D02*X98031D01*
X51969Y180315D02*X52755D01*
X51969Y173229D02*X52755D01*
X51970Y157875D02*X52756D01*
X51970Y164961D02*X52756D01*
X243701Y151968D02*X244487D01*
X243701Y144882D02*X244487D01*
X243701Y128347D02*X244487D01*
X243701Y135433D02*X244487D01*
G54D71*X263641Y37008D02*X268641D01*
G54D70*X97245Y216141D02*X98031D01*
X142914Y151574D02*X143700D01*
X135040D02*X135826D01*
X142914Y144488D02*X143700D01*
X135040D02*X135826D01*
X127953Y125591D02*X128739D01*
X127953Y132677D02*X128739D01*
X107875Y216141D02*X108661D01*
X208268D02*X209054D01*
X217717D02*X218503D01*
X107875Y209055D02*X108661D01*
X208268D02*X209054D01*
X217717D02*X218503D01*
M02*
