G04 start of page 9 for group -4015 idx -4015 *
G04 Title: (unknown), toppaste *
G04 Creator: pcb 20110918 *
G04 CreationDate: Wed 22 Jan 2014 02:11:10 GMT UTC *
G04 For: russells *
G04 Format: Gerber/RS-274X *
G04 PCB-Dimensions: 314961 236220 *
G04 PCB-Coordinate-Origin: lower left *
%MOIN*%
%FSLAX25Y25*%
%LNCRC*%
%ADD95R,0.0512X0.0512*%
%ADD94R,0.2200X0.2200*%
G54D94*X263641Y37008D02*X268641D01*
X46541D02*X51541D01*
G54D95*X243701Y151968D02*X244487D01*
X243701Y144882D02*X244487D01*
X243701Y128347D02*X244487D01*
X243701Y135433D02*X244487D01*
X97245Y216141D02*X98031D01*
X97245Y209055D02*X98031D01*
X107875Y216141D02*X108661D01*
X107875Y209055D02*X108661D01*
X208268Y216141D02*X209054D01*
X208268Y209055D02*X209054D01*
X217717Y216141D02*X218503D01*
X217717Y209055D02*X218503D01*
X71825Y88513D02*X72611D01*
X71825Y95599D02*X72611D01*
X127953Y125591D02*X128739D01*
X127953Y132677D02*X128739D01*
X51970Y157875D02*X52756D01*
X51970Y164961D02*X52756D01*
X51969Y180315D02*X52755D01*
X51969Y173229D02*X52755D01*
X142914Y151574D02*X143700D01*
X142914Y144488D02*X143700D01*
X135040Y151574D02*X135826D01*
X135040Y144488D02*X135826D01*
M02*
