G04 start of page 6 for group -4062 idx -4062 *
G04 Title: (unknown), soldermask *
G04 Creator: pcb 20110918 *
G04 CreationDate: Wed 22 Jan 2014 02:11:10 GMT UTC *
G04 For: russells *
G04 Format: Gerber/RS-274X *
G04 PCB-Dimensions: 314961 236220 *
G04 PCB-Coordinate-Origin: lower left *
%MOIN*%
%FSLAX25Y25*%
%LNSTS*%
%ADD82R,0.0140X0.0140*%
%ADD81R,0.0572X0.0572*%
%ADD80R,0.2300X0.2300*%
%ADD79C,0.0800*%
%ADD78C,0.0780*%
%ADD77C,0.1300*%
%ADD76C,0.0640*%
%ADD75C,0.0660*%
%ADD74C,0.0001*%
%ADD73C,0.0300*%
%ADD72C,0.0550*%
G54D72*X193307Y72835D03*
G54D73*X192614Y143701D03*
X195614Y123701D03*
G54D72*X201181Y72835D03*
X209055D03*
X216929D03*
X224803D03*
X232677D03*
X240551D03*
X248425D03*
G54D74*G36*
X280165Y191489D02*Y184889D01*
X286765D01*
Y191489D01*
X280165D01*
G37*
G54D75*X293465Y188189D03*
X283465Y178189D03*
X293465D03*
X283465Y168189D03*
X293465D03*
X283465Y158189D03*
X293465D03*
X283465Y148189D03*
X293465D03*
X283465Y138189D03*
X293465D03*
X283465Y128189D03*
X293465D03*
G54D74*G36*
X265304Y116585D02*Y110185D01*
X271704D01*
Y116585D01*
X265304D01*
G37*
G54D76*X268504Y103385D03*
Y93385D03*
Y83385D03*
Y73385D03*
Y63385D03*
G54D77*X253641Y16108D03*
X61712D03*
G54D74*G36*
X29171Y183978D02*Y176178D01*
X36971D01*
Y183978D01*
X29171D01*
G37*
G54D78*X33071Y170078D03*
Y160078D03*
G54D74*G36*
X27357Y84059D02*Y71059D01*
X40357D01*
Y84059D01*
X27357D01*
G37*
G54D77*X33857Y97244D03*
G54D74*G36*
X64573Y75585D02*Y70085D01*
X70073D01*
Y75585D01*
X64573D01*
G37*
G54D72*X75197Y72835D03*
X83071D03*
X90945D03*
X98819D03*
X106693D03*
X114567D03*
X122441D03*
X130315D03*
X138189D03*
X146063D03*
X153937D03*
X161811D03*
X169685D03*
X177559D03*
X185433D03*
G54D73*X186614Y143701D03*
X183614Y123701D03*
G54D74*G36*
X80252Y202425D02*Y194425D01*
X88252D01*
Y202425D01*
X80252D01*
G37*
G36*
Y228016D02*Y220016D01*
X88252D01*
Y228016D01*
X80252D01*
G37*
G54D79*X66536Y198425D03*
Y224016D03*
G54D74*G36*
X135370Y202425D02*Y194425D01*
X143370D01*
Y202425D01*
X135370D01*
G37*
G54D79*X121654Y198425D03*
G54D74*G36*
X190094Y202425D02*Y194425D01*
X198094D01*
Y202425D01*
X190094D01*
G37*
G54D79*X176378Y198425D03*
G54D74*G36*
X135370Y228016D02*Y220016D01*
X143370D01*
Y228016D01*
X135370D01*
G37*
G54D79*X121654Y224016D03*
G54D74*G36*
X190094Y228016D02*Y220016D01*
X198094D01*
Y228016D01*
X190094D01*
G37*
G54D79*X176378Y224016D03*
G54D74*G36*
X245213Y228016D02*Y220016D01*
X253213D01*
Y228016D01*
X245213D01*
G37*
G54D79*X231497Y224016D03*
G54D74*G36*
X245213Y202425D02*Y194425D01*
X253213D01*
Y202425D01*
X245213D01*
G37*
G54D79*X231497Y198425D03*
G54D72*X248425Y182835D03*
X240551D03*
X232677D03*
X224803D03*
X216929D03*
X209055D03*
X201181D03*
X193307D03*
X185433D03*
X177559D03*
X169685D03*
X161811D03*
X153937D03*
X146063D03*
X138189D03*
X130315D03*
X122441D03*
X114567D03*
X106693D03*
X98819D03*
X90945D03*
X83071D03*
X75197D03*
X67323D03*
G54D80*X46712Y37008D02*X51712D01*
G54D81*X73623Y163780D02*X74409D01*
X83859Y163779D02*X84645D01*
X83859Y156693D02*X84645D01*
X83859Y146456D02*X84645D01*
X83859Y139370D02*X84645D01*
X73623Y170866D02*X74409D01*
X73623Y146457D02*X74409D01*
X73623Y129134D02*X74409D01*
X73623Y136220D02*X74409D01*
X73623Y153543D02*X74409D01*
X73623Y111812D02*X74409D01*
X73623Y118898D02*X74409D01*
X83859Y111811D02*X84645D01*
X83859Y104725D02*X84645D01*
X83859Y129134D02*X84645D01*
X83859Y122048D02*X84645D01*
G54D80*X263812Y37008D02*X268812D01*
G54D82*X170267Y159449D02*X175165D01*
X170267Y157481D02*X175165D01*
X170267Y155512D02*X175165D01*
X170267Y153544D02*X175165D01*
X170267Y151575D02*X175165D01*
X170267Y149607D02*X175165D01*
X170267Y147638D02*X175165D01*
X170267Y145670D02*X175165D01*
X170267Y143701D02*X175165D01*
G54D81*X186221Y161024D02*X187007D01*
X186221Y153938D02*X187007D01*
X195670Y161023D02*X196456D01*
X195670Y153937D02*X196456D01*
G54D82*X170267Y141733D02*X175165D01*
X170267Y139764D02*X175165D01*
X170267Y137796D02*X175165D01*
X170267Y135827D02*X175165D01*
X170267Y133859D02*X175165D01*
X170267Y131890D02*X175165D01*
X170267Y129922D02*X175165D01*
X170267Y127953D02*X175165D01*
X170267Y125985D02*X175165D01*
X170267Y124016D02*X175165D01*
X170267Y122048D02*X175165D01*
X170267Y120079D02*X175165D01*
X170267Y118111D02*X175165D01*
X170267Y116142D02*X175165D01*
X170267Y114174D02*X175165D01*
X170267Y112205D02*X175165D01*
X105149Y149606D02*X110047D01*
X105149Y151575D02*X110047D01*
X105149Y153543D02*X110047D01*
X105149Y155512D02*X110047D01*
X105149Y157480D02*X110047D01*
X105149Y159449D02*X110047D01*
X116535Y170835D02*Y165937D01*
X118503Y170835D02*Y165937D01*
X120472Y170835D02*Y165937D01*
X122440Y170835D02*Y165937D01*
X124409Y170835D02*Y165937D01*
X126377Y170835D02*Y165937D01*
X128346Y170835D02*Y165937D01*
X130314Y170835D02*Y165937D01*
X132283Y170835D02*Y165937D01*
X134251Y170835D02*Y165937D01*
X136220Y170835D02*Y165937D01*
X138188Y170835D02*Y165937D01*
X140157Y170835D02*Y165937D01*
X142125Y170835D02*Y165937D01*
X144094Y170835D02*Y165937D01*
X146062Y170835D02*Y165937D01*
X148031Y170835D02*Y165937D01*
X149999Y170835D02*Y165937D01*
X151968Y170835D02*Y165937D01*
X153936Y170835D02*Y165937D01*
X155905Y170835D02*Y165937D01*
X157873Y170835D02*Y165937D01*
X159842Y170835D02*Y165937D01*
X161810Y170835D02*Y165937D01*
X163779Y170835D02*Y165937D01*
G54D81*X173622Y166536D02*X174408D01*
X173622Y173622D02*X174408D01*
G54D82*X163779Y105717D02*Y100819D01*
X161811Y105717D02*Y100819D01*
X159842Y105717D02*Y100819D01*
X157874Y105717D02*Y100819D01*
X155905Y105717D02*Y100819D01*
X153937Y105717D02*Y100819D01*
X151968Y105717D02*Y100819D01*
X150000Y105717D02*Y100819D01*
X148031Y105717D02*Y100819D01*
X146063Y105717D02*Y100819D01*
X144094Y105717D02*Y100819D01*
X142126Y105717D02*Y100819D01*
X140157Y105717D02*Y100819D01*
X138189Y105717D02*Y100819D01*
X136220Y105717D02*Y100819D01*
X134252Y105717D02*Y100819D01*
X132283Y105717D02*Y100819D01*
X130315Y105717D02*Y100819D01*
X128346Y105717D02*Y100819D01*
X126378Y105717D02*Y100819D01*
X124409Y105717D02*Y100819D01*
X122441Y105717D02*Y100819D01*
X120472Y105717D02*Y100819D01*
X118504Y105717D02*Y100819D01*
X116535Y105717D02*Y100819D01*
X105149Y112205D02*X110047D01*
X105149Y114173D02*X110047D01*
X105149Y116142D02*X110047D01*
X105149Y118110D02*X110047D01*
X105149Y120079D02*X110047D01*
X105149Y122047D02*X110047D01*
X105149Y124016D02*X110047D01*
X105149Y125984D02*X110047D01*
X105149Y127953D02*X110047D01*
X105149Y129921D02*X110047D01*
X105149Y131890D02*X110047D01*
X105149Y133858D02*X110047D01*
X105149Y135827D02*X110047D01*
X105149Y137795D02*X110047D01*
X105149Y139764D02*X110047D01*
X105149Y141732D02*X110047D01*
X105149Y143701D02*X110047D01*
X105149Y145669D02*X110047D01*
X105149Y147638D02*X110047D01*
M02*
