G04 start of page 8 for group -4078 idx -4078 *
G04 Title: (unknown), bottomsilk *
G04 Creator: pcb 20110918 *
G04 CreationDate: Wed 22 Jan 2014 02:11:10 GMT UTC *
G04 For: russells *
G04 Format: Gerber/RS-274X *
G04 PCB-Dimensions: 314961 236220 *
G04 PCB-Coordinate-Origin: lower left *
%MOIN*%
%FSLAX25Y25*%
%LNPLS*%
%ADD93C,0.0040*%
%ADD92C,0.0080*%
%ADD91C,0.0100*%
%ADD90C,0.0039*%
G54D90*X99469Y136614D02*X101469D01*
X100469Y137364D01*
X101469Y138114D01*
X99469D02*X101469D01*
Y139714D02*X101219Y139964D01*
X101469Y138964D02*Y139714D01*
X101219Y138714D02*X101469Y138964D01*
X100719Y138714D02*X101219D01*
X100719D02*X100469Y138964D01*
Y139714D01*
X100219Y139964D01*
X99719D02*X100219D01*
X99469Y139714D02*X99719Y139964D01*
X99469Y138964D02*Y139714D01*
X99719Y138714D02*X99469Y138964D01*
Y140814D02*X101469D01*
Y140564D02*Y141564D01*
X101219Y141814D01*
X100719D02*X101219D01*
X100469Y141564D02*X100719Y141814D01*
X100469Y140814D02*Y141564D01*
X100219Y142414D02*X101469Y143414D01*
X100219Y142414D02*Y143664D01*
X99469Y143414D02*X101469D01*
X101219Y144264D02*X101469Y144514D01*
Y145014D01*
X101219Y145264D01*
X99469Y145014D02*X99719Y145264D01*
X99469Y144514D02*Y145014D01*
X99719Y144264D02*X99469Y144514D01*
X100569D02*Y145014D01*
X100819Y145264D02*X101219D01*
X99719D02*X100319D01*
X100569Y145014D01*
X100819Y145264D02*X100569Y145014D01*
X99719Y145864D02*X99469Y146114D01*
X99719Y145864D02*X101219D01*
X101469Y146114D01*
Y146614D01*
X101219Y146864D01*
X99719D02*X101219D01*
X99469Y146614D02*X99719Y146864D01*
X99469Y146114D02*Y146614D01*
X99969Y145864D02*X100969Y146864D01*
X99469Y147464D02*X101469D01*
Y148464D01*
X100569Y147464D02*Y148214D01*
X100219Y149064D02*X101469Y150064D01*
X100219Y149064D02*Y150314D01*
X99469Y150064D02*X101469D01*
X100219Y150914D02*X101469Y151914D01*
X100219Y150914D02*Y152164D01*
X99469Y151914D02*X101469D01*
X99469Y153014D02*X100469Y153764D01*
X101219D01*
X101469Y153514D02*X101219Y153764D01*
X101469Y153014D02*Y153514D01*
X101219Y152764D02*X101469Y153014D01*
X100719Y152764D02*X101219D01*
X100719D02*X100469Y153014D01*
Y153764D01*
X101469Y154364D02*Y154864D01*
X99469Y154614D02*X101469D01*
X99469Y154364D02*Y154864D01*
Y155714D02*X101469D01*
Y155464D02*Y156464D01*
X101219Y156714D01*
X100719D02*X101219D01*
X100469Y156464D02*X100719Y156714D01*
X100469Y155714D02*Y156464D01*
X101469Y157314D02*Y158564D01*
X99469Y157314D02*X101469Y158564D01*
X99469Y157314D02*Y158564D01*
G54D91*X49212Y49008D02*Y59008D01*
X44212Y54008D02*X54212D01*
X61712Y52008D02*Y62008D01*
X253712D01*
Y52008D01*
Y22008D02*Y12008D01*
X74212D01*
G54D92*X176770Y170472D02*Y169686D01*
X171260Y170472D02*Y169686D01*
X81497Y125984D02*Y125198D01*
X87007Y125984D02*Y125198D01*
X112998Y162986D02*X164416D01*
X112998D02*Y108668D01*
X167316D01*
Y160086D02*Y108668D01*
Y160086D02*X164416Y162986D01*
X165416Y160086D02*G75*G03X165416Y160086I-1000J0D01*G01*
X76771Y167716D02*Y166930D01*
X71261Y167716D02*Y166930D01*
X76771Y150393D02*Y149607D01*
X71261Y150393D02*Y149607D01*
X81497Y160629D02*Y159843D01*
X87007Y160629D02*Y159843D01*
X76771Y115748D02*Y114962D01*
X71261Y115748D02*Y114962D01*
X76771Y133070D02*Y132284D01*
X71261Y133070D02*Y132284D01*
X81497Y108661D02*Y107875D01*
X87007Y108661D02*Y107875D01*
X81497Y143306D02*Y142520D01*
X87007Y143306D02*Y142520D01*
X183859Y157874D02*Y157088D01*
X189369Y157874D02*Y157088D01*
X193308Y157873D02*Y157087D01*
X198818Y157873D02*Y157087D01*
G54D90*X192421Y159788D02*Y160438D01*
X192071Y160788D02*X192421Y160438D01*
X190771Y160788D02*X192071D01*
X190771D02*X190421Y160438D01*
Y159788D02*Y160438D01*
X190821Y159188D02*X190421Y158788D01*
X192421D01*
Y158438D02*Y159188D01*
X192171Y157838D02*X192421Y157588D01*
X190671Y157838D02*X192171D01*
X190671D02*X190421Y157588D01*
Y157088D02*Y157588D01*
Y157088D02*X190671Y156838D01*
X192171D01*
X192421Y157088D02*X192171Y156838D01*
X192421Y157088D02*Y157588D01*
X191921Y157838D02*X190921Y156838D01*
X178533Y167454D02*Y168429D01*
X179058Y166929D02*X178533Y167454D01*
X179058Y166929D02*X181008D01*
X181533Y167454D01*
Y168429D01*
X181158Y169329D02*X181533Y169704D01*
Y170829D01*
X181158Y171204D01*
X180408D02*X181158D01*
X178533Y169329D02*X180408Y171204D01*
X178533Y169329D02*Y171204D01*
X201870Y159078D02*Y159728D01*
X201520Y160078D02*X201870Y159728D01*
X200220Y160078D02*X201520D01*
X200220D02*X199870Y159728D01*
Y159078D02*Y159728D01*
X201870Y158228D02*X200870Y157478D01*
X200120D02*X200870D01*
X199870Y157728D02*X200120Y157478D01*
X199870Y157728D02*Y158228D01*
X200120Y158478D02*X199870Y158228D01*
X200120Y158478D02*X200620D01*
X200870Y158228D01*
Y157478D02*Y158228D01*
G54D93*X44212Y22008D02*X46212D01*
X46712Y21508D01*
Y20308D02*Y21508D01*
X46212Y19808D02*X46712Y20308D01*
X44712Y19808D02*X46212D01*
X44712Y18008D02*Y22008D01*
X44212Y18008D02*X46212D01*
X46712Y18508D01*
Y19308D01*
X46212Y19808D02*X46712Y19308D01*
X47912Y18808D02*X48712Y18008D01*
Y22008D01*
X47912D02*X49412D01*
X65709Y113142D02*Y114442D01*
X66409Y112442D02*X65709Y113142D01*
X66409Y112442D02*X69009D01*
X69709Y113142D01*
Y114442D01*
X66209Y115642D02*X65709Y116142D01*
X66209Y115642D02*X67009D01*
X67709Y116342D01*
Y116942D01*
X67009Y117642D01*
X66209D02*X67009D01*
X65709Y117142D02*X66209Y117642D01*
X65709Y116142D02*Y117142D01*
X68409Y115642D02*X67709Y116342D01*
X68409Y115642D02*X69209D01*
X69709Y116142D01*
Y117142D01*
X69209Y117642D01*
X68409D02*X69209D01*
X67709Y116942D02*X68409Y117642D01*
X65709Y130385D02*Y131685D01*
X66409Y129685D02*X65709Y130385D01*
X66409Y129685D02*X69009D01*
X69709Y130385D01*
Y131685D01*
X65709Y133385D02*X69709Y135385D01*
Y132885D02*Y135385D01*
X92465Y105433D02*Y107433D01*
X91965Y107933D01*
X90965D02*X91965D01*
X90465Y107433D02*X90965Y107933D01*
X90465Y105933D02*Y107433D01*
X88465Y105933D02*X92465D01*
X90465Y106733D02*X88465Y107933D01*
X88965Y109133D02*X88465Y109633D01*
X88965Y109133D02*X89765D01*
X90465Y109833D01*
Y110433D01*
X89765Y111133D01*
X88965D02*X89765D01*
X88465Y110633D02*X88965Y111133D01*
X88465Y109633D02*Y110633D01*
X91165Y109133D02*X90465Y109833D01*
X91165Y109133D02*X91965D01*
X92465Y109633D01*
Y110633D01*
X91965Y111133D01*
X91165D02*X91965D01*
X90465Y110433D02*X91165Y111133D01*
X92622Y122599D02*Y124599D01*
X92122Y125099D01*
X91122D02*X92122D01*
X90622Y124599D02*X91122Y125099D01*
X90622Y123099D02*Y124599D01*
X88622Y123099D02*X92622D01*
X90622Y123899D02*X88622Y125099D01*
Y126799D02*X92622Y128799D01*
Y126299D02*Y128799D01*
X140157Y142390D02*Y145890D01*
Y142390D02*X139657Y141890D01*
X138657D02*X139657D01*
X138657D02*X138157Y142390D01*
Y145890D01*
X136957Y145090D02*X136157Y145890D01*
Y141890D02*Y145890D01*
X135457Y141890D02*X136957D01*
X65709Y148180D02*Y149480D01*
X66409Y147480D02*X65709Y148180D01*
X66409Y147480D02*X69009D01*
X69709Y148180D01*
Y149480D01*
Y152180D02*X69209Y152680D01*
X69709Y151180D02*Y152180D01*
X69209Y150680D02*X69709Y151180D01*
X66209Y150680D02*X69209D01*
X66209D02*X65709Y151180D01*
X67909Y152180D02*X67409Y152680D01*
X67909Y150680D02*Y152180D01*
X65709Y151180D02*Y152180D01*
X66209Y152680D01*
X67409D01*
X92858Y139921D02*Y141921D01*
X92358Y142421D01*
X91358D02*X92358D01*
X90858Y141921D02*X91358Y142421D01*
X90858Y140421D02*Y141921D01*
X88858Y140421D02*X92858D01*
X90858Y141221D02*X88858Y142421D01*
X92858Y145121D02*X92358Y145621D01*
X92858Y144121D02*Y145121D01*
X92358Y143621D02*X92858Y144121D01*
X89358Y143621D02*X92358D01*
X89358D02*X88858Y144121D01*
X91058Y145121D02*X90558Y145621D01*
X91058Y143621D02*Y145121D01*
X88858Y144121D02*Y145121D01*
X89358Y145621D01*
X90558D01*
X65709Y165425D02*Y166725D01*
X66409Y164725D02*X65709Y165425D01*
X66409Y164725D02*X69009D01*
X69709Y165425D01*
Y166725D01*
Y167925D02*Y169925D01*
X67709Y167925D02*X69709D01*
X67709D02*X68209Y168425D01*
Y169425D01*
X67709Y169925D01*
X66209D02*X67709D01*
X65709Y169425D02*X66209Y169925D01*
X65709Y168425D02*Y169425D01*
X66209Y167925D02*X65709Y168425D01*
X92701Y157480D02*Y159480D01*
X92201Y159980D01*
X91201D02*X92201D01*
X90701Y159480D02*X91201Y159980D01*
X90701Y157980D02*Y159480D01*
X88701Y157980D02*X92701D01*
X90701Y158780D02*X88701Y159980D01*
X92701Y161180D02*Y163180D01*
X90701Y161180D02*X92701D01*
X90701D02*X91201Y161680D01*
Y162680D01*
X90701Y163180D01*
X89201D02*X90701D01*
X88701Y162680D02*X89201Y163180D01*
X88701Y161680D02*Y162680D01*
X89201Y161180D02*X88701Y161680D01*
M02*
