G04 start of page 7 for group -4079 idx -4079 *
G04 Title: (unknown), topsilk *
G04 Creator: pcb 20110918 *
G04 CreationDate: Wed 22 Jan 2014 02:11:10 GMT UTC *
G04 For: russells *
G04 Format: Gerber/RS-274X *
G04 PCB-Dimensions: 314961 236220 *
G04 PCB-Coordinate-Origin: lower left *
%MOIN*%
%FSLAX25Y25*%
%LNPLC*%
%ADD89C,0.0039*%
%ADD88C,0.0080*%
%ADD87C,0.0100*%
%ADD86C,0.0040*%
%ADD85C,0.0048*%
%ADD84C,0.0082*%
%ADD83C,0.0094*%
G54D83*X12598Y153161D02*Y143761D01*
X18473Y153161D02*Y143761D01*
X12598Y148461D02*X18473D01*
X21293Y147286D02*Y144936D01*
Y147286D02*X22468Y148461D01*
X24818D01*
X25993Y147286D01*
Y144936D01*
X24818Y143761D02*X25993Y144936D01*
X22468Y143761D02*X24818D01*
X21293Y144936D02*X22468Y143761D01*
X29988Y153161D02*Y144936D01*
X31163Y143761D01*
X28813Y149636D02*X31163D01*
X34688Y143761D02*X38213D01*
X39388Y144936D01*
X38213Y146111D02*X39388Y144936D01*
X34688Y146111D02*X38213D01*
X33513Y147286D02*X34688Y146111D01*
X33513Y147286D02*X34688Y148461D01*
X38213D01*
X39388Y147286D01*
X33513Y144936D02*X34688Y143761D01*
X14244Y118959D02*X17299D01*
X12599Y120604D02*X14244Y118959D01*
X12599Y126714D02*Y120604D01*
Y126714D02*X14244Y128359D01*
X17299D01*
X20119Y122484D02*Y120134D01*
Y122484D02*X21294Y123659D01*
X23644D01*
X24819Y122484D01*
Y120134D01*
X23644Y118959D02*X24819Y120134D01*
X21294Y118959D02*X23644D01*
X20119Y120134D02*X21294Y118959D01*
X27639Y128359D02*Y120134D01*
X28814Y118959D01*
X35864Y128359D02*Y118959D01*
X34689D02*X35864Y120134D01*
X32339Y118959D02*X34689D01*
X31164Y120134D02*X32339Y118959D01*
X31164Y122484D02*Y120134D01*
Y122484D02*X32339Y123659D01*
X34689D01*
X35864Y122484D01*
X39859Y118959D02*X43384D01*
X44559Y120134D01*
X43384Y121309D02*X44559Y120134D01*
X39859Y121309D02*X43384D01*
X38684Y122484D02*X39859Y121309D01*
X38684Y122484D02*X39859Y123659D01*
X43384D01*
X44559Y122484D01*
X38684Y120134D02*X39859Y118959D01*
G54D84*X17248Y136369D02*X18273Y135344D01*
X15198Y136369D02*X17248D01*
X14173Y135344D02*X15198Y136369D01*
X14173Y135344D02*Y133294D01*
X15198Y132269D01*
X18273Y136369D02*Y133294D01*
X19298Y132269D01*
X15198D02*X17248D01*
X18273Y133294D01*
X22783Y135344D02*Y132269D01*
Y135344D02*X23808Y136369D01*
X24833D01*
X25858Y135344D01*
Y132269D01*
X21758Y136369D02*X22783Y135344D01*
X32418Y140469D02*Y132269D01*
X31393D02*X32418Y133294D01*
X29343Y132269D02*X31393D01*
X28318Y133294D02*X29343Y132269D01*
X28318Y135344D02*Y133294D01*
Y135344D02*X29343Y136369D01*
X31393D01*
X32418Y135344D01*
G54D85*X145275Y226753D02*Y222553D01*
X145875Y221953D01*
X147075D01*
X147675Y222553D01*
Y226753D02*Y222553D01*
X149715Y223753D02*Y220153D01*
X149115Y224353D02*X149715Y223753D01*
X150315Y224353D01*
X151515D01*
X152115Y223753D01*
Y222553D01*
X151515Y221953D02*X152115Y222553D01*
X150315Y221953D02*X151515D01*
X149715Y222553D02*X150315Y221953D01*
X200600Y227146D02*Y222346D01*
X202160Y227146D02*X203000Y226306D01*
Y223186D01*
X202160Y222346D02*X203000Y223186D01*
X200000Y222346D02*X202160D01*
X200000Y227146D02*X202160D01*
X204440Y224146D02*Y222946D01*
Y224146D02*X205040Y224746D01*
X206240D01*
X206840Y224146D01*
Y222946D01*
X206240Y222346D02*X206840Y222946D01*
X205040Y222346D02*X206240D01*
X204440Y222946D02*X205040Y222346D01*
X208280Y224746D02*Y222946D01*
X208880Y222346D01*
X209480D01*
X210080Y222946D01*
Y224746D02*Y222946D01*
X210680Y222346D01*
X211280D01*
X211880Y222946D01*
Y224746D02*Y222946D01*
X213920Y224146D02*Y222346D01*
Y224146D02*X214520Y224746D01*
X215120D01*
X215720Y224146D01*
Y222346D01*
X213320Y224746D02*X213920Y224146D01*
X90157Y224593D02*X91957D01*
X90157Y221953D02*X92557D01*
X90157Y226753D02*Y221953D01*
Y226753D02*X92557D01*
X94597Y223753D02*Y221953D01*
Y223753D02*X95197Y224353D01*
X95797D01*
X96397Y223753D01*
Y221953D01*
X93997Y224353D02*X94597Y223753D01*
X98437Y226753D02*Y222553D01*
X99037Y221953D01*
X97837Y224953D02*X99037D01*
X100837Y221953D02*X102637D01*
X100237Y222553D02*X100837Y221953D01*
X100237Y223753D02*Y222553D01*
Y223753D02*X100837Y224353D01*
X102037D01*
X102637Y223753D01*
X100237Y223153D02*X102637D01*
Y223753D02*Y223153D01*
X104677Y223753D02*Y221953D01*
Y223753D02*X105277Y224353D01*
X106477D01*
X104077D02*X104677Y223753D01*
X255118Y221953D02*X258118Y226753D01*
X255118D02*X258118Y221953D01*
G54D86*X282590Y198212D02*X283390D01*
Y194712D01*
X282890Y194212D02*X283390Y194712D01*
X282390Y194212D02*X282890D01*
X281890Y194712D02*X282390Y194212D01*
X281890Y195212D02*Y194712D01*
X284590Y198212D02*X286590D01*
X285590D02*Y194212D01*
X287790Y197212D02*Y194212D01*
Y197212D02*X288490Y198212D01*
X289590D01*
X290290Y197212D01*
Y194212D01*
X287790Y196212D02*X290290D01*
X293490Y198212D02*X293990Y197712D01*
X291990Y198212D02*X293490D01*
X291490Y197712D02*X291990Y198212D01*
X291490Y197712D02*Y194712D01*
X291990Y194212D01*
X293490D01*
X293990Y194712D01*
Y195712D02*Y194712D01*
X293490Y196212D02*X293990Y195712D01*
X292490Y196212D02*X293490D01*
X287008Y56086D02*Y52086D01*
Y56086D02*X289008D01*
X287008Y54286D02*X288508D01*
X290208Y56086D02*X292208D01*
X291208D02*Y52086D01*
X293908Y56086D02*Y52086D01*
X295208Y56086D02*X295908Y55386D01*
Y52786D01*
X295208Y52086D02*X295908Y52786D01*
X293408Y52086D02*X295208D01*
X293408Y56086D02*X295208D01*
X297108D02*X298108D01*
X297608D02*Y52086D01*
X297108D02*X298108D01*
G54D87*X266141Y59008D02*Y49008D01*
X261141Y54008D02*X271141D01*
X253641Y62008D02*Y52008D01*
X61641Y62008D02*X253641D01*
X61641D02*Y52008D01*
Y22008D02*Y12008D01*
X241141D01*
X26071Y177078D02*Y163078D01*
X26000Y163007D02*G75*G03X26000Y177149I7071J7071D01*G01*
G54D88*X100393Y212991D02*Y212205D01*
X94883Y212991D02*Y212205D01*
G54D87*X62598Y194488D02*X88189D01*
X62598Y227953D02*Y194488D01*
Y227953D02*X88189D01*
Y194488D01*
G54D88*X55117Y177165D02*Y176379D01*
X49607Y177165D02*Y176379D01*
X111023Y212991D02*Y212205D01*
X105513Y212991D02*Y212205D01*
G54D87*X117716Y194488D02*X143307D01*
X117716Y227953D02*Y194488D01*
Y227953D02*X143307D01*
Y194488D01*
X172440D02*X198031D01*
X172440Y227953D02*Y194488D01*
Y227953D02*X198031D01*
Y194488D01*
G54D88*X211416Y212991D02*Y212205D01*
X205906Y212991D02*Y212205D01*
X220865Y212991D02*Y212205D01*
X215355Y212991D02*Y212205D01*
G54D87*X227559Y194488D02*X253150D01*
X227559Y227953D02*Y194488D01*
Y227953D02*X253150D01*
Y194488D01*
X278465Y193189D02*Y123189D01*
X298465D01*
Y193189D01*
X278465D01*
Y183189D02*X288465D01*
Y193189D01*
G54D88*X246849Y148818D02*Y148032D01*
X241339Y148818D02*Y148032D01*
Y132283D02*Y131497D01*
X246849Y132283D02*Y131497D01*
G54D87*X263504Y118385D02*X308504D01*
Y58385D01*
X263504D01*
Y118385D01*
X273504D02*Y58385D01*
X33857Y61811D02*G75*G03X33857Y61811I0J25591D01*G01*
G54D88*X69463Y92449D02*Y91663D01*
X74973Y92449D02*Y91663D01*
X125591Y129527D02*Y128741D01*
X131101Y129527D02*Y128741D01*
X146062Y148424D02*Y147638D01*
X140552Y148424D02*Y147638D01*
X138188Y148424D02*Y147638D01*
X132678Y148424D02*Y147638D01*
G54D87*X62323Y67835D02*X253425D01*
Y187835D02*Y67835D01*
X62323Y187835D02*X253425D01*
X62323D02*Y67835D01*
X71323Y77835D02*Y67835D01*
X62323Y77835D02*X71323D01*
X186614Y133701D02*Y113701D01*
X192614Y133701D02*Y113701D01*
X186614D02*X192614D01*
G54D88*X49608Y161811D02*Y161025D01*
X55118Y161811D02*Y161025D01*
G54D89*X240051Y151181D02*Y150181D01*
X239801Y149931D01*
X239301D02*X239801D01*
X239051Y150181D02*X239301Y149931D01*
X239051Y150931D02*Y150181D01*
X238051Y150931D02*X240051D01*
X239051Y150531D02*X238051Y149931D01*
Y149081D02*X239051Y148331D01*
X239801D01*
X240051Y148581D02*X239801Y148331D01*
X240051Y149081D02*Y148581D01*
X239801Y149331D02*X240051Y149081D01*
X239301Y149331D02*X239801D01*
X239301D02*X239051Y149081D01*
Y148331D01*
X249743Y129346D02*Y128696D01*
X249393Y128346D02*X249743Y128696D01*
X248093Y128346D02*X249393D01*
X248093D02*X247743Y128696D01*
Y129346D02*Y128696D01*
X248143Y129946D02*X247743Y130346D01*
X249743D01*
Y130696D02*Y129946D01*
X248993Y131296D02*X247743Y132296D01*
X248993Y132546D02*Y131296D01*
X247743Y132296D02*X249743D01*
G54D86*X279047Y98542D02*X280347D01*
X278347Y99242D02*X279047Y98542D01*
X278347Y101842D02*Y99242D01*
Y101842D02*X279047Y102542D01*
X280347D01*
X281547Y102042D02*Y99042D01*
Y102042D02*X282047Y102542D01*
X283047D01*
X283547Y102042D01*
Y99042D01*
X283047Y98542D02*X283547Y99042D01*
X282047Y98542D02*X283047D01*
X281547Y99042D02*X282047Y98542D01*
X284747Y102542D02*Y98542D01*
Y102542D02*X287247Y98542D01*
Y102542D02*Y98542D01*
X288447Y102542D02*Y98542D01*
Y102542D02*X290947Y98542D01*
Y102542D02*Y98542D01*
X292147Y102042D02*X292647Y102542D01*
X294147D01*
X294647Y102042D01*
Y101042D01*
X292147Y98542D02*X294647Y101042D01*
X292147Y98542D02*X294647D01*
X281269Y39395D02*X283269D01*
X283769Y39895D01*
Y41095D02*Y39895D01*
X283269Y41595D02*X283769Y41095D01*
X281769Y41595D02*X283269D01*
X281769Y43395D02*Y39395D01*
X281269Y43395D02*X283269D01*
X283769Y42895D01*
Y42095D01*
X283269Y41595D02*X283769Y42095D01*
X284969Y42895D02*X285469Y43395D01*
X286969D01*
X287469Y42895D01*
Y41895D01*
X284969Y39395D02*X287469Y41895D01*
X284969Y39395D02*X287469D01*
G54D89*X210524Y205118D02*Y204118D01*
X210274Y203868D01*
X209774D02*X210274D01*
X209524Y204118D02*X209774Y203868D01*
X209524Y204868D02*Y204118D01*
X208524Y204868D02*X210524D01*
X209524Y204468D02*X208524Y203868D01*
X210274Y203268D02*X210524Y203018D01*
Y202268D01*
X210274Y202018D01*
X209774D02*X210274D01*
X208524Y203268D02*X209774Y202018D01*
X208524Y203268D02*Y202018D01*
X219972Y205118D02*Y204118D01*
X219722Y203868D01*
X219222D02*X219722D01*
X218972Y204118D02*X219222Y203868D01*
X218972Y204868D02*Y204118D01*
X217972Y204868D02*X219972D01*
X218972Y204468D02*X217972Y203868D01*
X219572Y203268D02*X219972Y202868D01*
X217972D02*X219972D01*
X217972Y203268D02*Y202518D01*
G54D86*X202174Y199157D02*X202674Y198657D01*
X200674Y199157D02*X202174D01*
X200174Y198657D02*X200674Y199157D01*
X200174Y198657D02*Y197657D01*
X200674Y197157D01*
X202174D01*
X202674Y196657D01*
Y195657D01*
X202174Y195157D02*X202674Y195657D01*
X200674Y195157D02*X202174D01*
X200174Y195657D02*X200674Y195157D01*
X203874Y198657D02*X204374Y199157D01*
X205874D01*
X206374Y198657D01*
Y197657D01*
X203874Y195157D02*X206374Y197657D01*
X203874Y195157D02*X206374D01*
X257133Y199471D02*X257633Y198971D01*
X255633Y199471D02*X257133D01*
X255133Y198971D02*X255633Y199471D01*
X255133Y198971D02*Y197971D01*
X255633Y197471D01*
X257133D01*
X257633Y196971D01*
Y195971D01*
X257133Y195471D02*X257633Y195971D01*
X255633Y195471D02*X257133D01*
X255133Y195971D02*X255633Y195471D01*
X258833Y198671D02*X259633Y199471D01*
Y195471D01*
X258833D02*X260333D01*
X299465Y192489D02*Y191189D01*
X300165Y193189D02*X299465Y192489D01*
X300165Y193189D02*X302765D01*
X303465Y192489D01*
Y191189D01*
X299965Y189989D02*X302965D01*
X303465Y189489D01*
Y188489D01*
X302965Y187989D01*
X299965D02*X302965D01*
X299465Y188489D02*X299965Y187989D01*
X299465Y189489D02*Y188489D01*
X299965Y189989D02*X299465Y189489D01*
Y186789D02*X303465D01*
X299465Y184289D01*
X303465D01*
X299465Y183089D02*X303465D01*
X299465Y180589D01*
X303465D01*
X302665Y179389D02*X303465Y178589D01*
X299465D02*X303465D01*
X299465Y179389D02*Y177889D01*
X194416Y117308D02*X196916Y121308D01*
X194416D02*X196916Y117308D01*
X198116Y120508D02*X198916Y121308D01*
Y117308D01*
X198116D02*X199616D01*
X53399Y63817D02*X54699D01*
X52699Y64517D02*X53399Y63817D01*
X52699Y67117D02*Y64517D01*
Y67117D02*X53399Y67817D01*
X54699D01*
X55899Y67017D02*X56699Y67817D01*
Y63817D01*
X55899D02*X57399D01*
G54D89*X78283Y91684D02*Y91034D01*
X77933Y90684D02*X78283Y91034D01*
X76633Y90684D02*X77933D01*
X76633D02*X76283Y91034D01*
Y91684D02*Y91034D01*
X77533Y92284D02*X76283Y93284D01*
X77533Y93534D02*Y92284D01*
X76283Y93284D02*X78283D01*
G54D86*X54786Y115649D02*Y112149D01*
X55286Y111649D01*
X56286D01*
X56786Y112149D01*
Y115649D02*Y112149D01*
X57986Y115149D02*X58486Y115649D01*
X59986D01*
X60486Y115149D01*
Y114149D01*
X57986Y111649D02*X60486Y114149D01*
X57986Y111649D02*X60486D01*
G54D89*X110130Y205118D02*Y204118D01*
X109880Y203868D01*
X109380D02*X109880D01*
X109130Y204118D02*X109380Y203868D01*
X109130Y204868D02*Y204118D01*
X108130Y204868D02*X110130D01*
X109130Y204468D02*X108130Y203868D01*
X109880Y203268D02*X110130Y203018D01*
Y202518D01*
X109880Y202268D01*
X108130Y202518D02*X108380Y202268D01*
X108130Y203018D02*Y202518D01*
X108380Y203268D02*X108130Y203018D01*
X109230D02*Y202518D01*
X109480Y202268D02*X109880D01*
X108380D02*X108980D01*
X109230Y202518D01*
X109480Y202268D02*X109230Y202518D01*
G54D86*X147369Y199157D02*X147869Y198657D01*
X145869Y199157D02*X147369D01*
X145369Y198657D02*X145869Y199157D01*
X145369Y198657D02*Y197657D01*
X145869Y197157D01*
X147369D01*
X147869Y196657D01*
Y195657D01*
X147369Y195157D02*X147869Y195657D01*
X145869Y195157D02*X147369D01*
X145369Y195657D02*X145869Y195157D01*
X149069Y198657D02*X149569Y199157D01*
X150569D01*
X151069Y198657D01*
X150569Y195157D02*X151069Y195657D01*
X149569Y195157D02*X150569D01*
X149069Y195657D02*X149569Y195157D01*
Y197357D02*X150569D01*
X151069Y198657D02*Y197857D01*
Y196857D02*Y195657D01*
Y196857D02*X150569Y197357D01*
X151069Y197857D02*X150569Y197357D01*
G54D89*X134653Y127263D02*Y126483D01*
X134233Y126063D02*X134653Y126483D01*
X132673Y126063D02*X134233D01*
X132673D02*X132253Y126483D01*
Y127263D02*Y126483D01*
X132553Y127983D02*X132253Y128283D01*
Y128883D02*Y128283D01*
Y128883D02*X132553Y129183D01*
X134653Y128883D02*X134353Y129183D01*
X134653Y128883D02*Y128283D01*
X134353Y127983D02*X134653Y128283D01*
X133333Y128883D02*Y128283D01*
X132553Y129183D02*X133033D01*
X133633D02*X134353D01*
X133633D02*X133333Y128883D01*
X133033Y129183D02*X133333Y128883D01*
X139075Y140122D02*Y139472D01*
X139425Y140472D02*X139075Y140122D01*
X139425Y140472D02*X140725D01*
X141075Y140122D01*
Y139472D01*
X140675Y138872D02*X141075Y138472D01*
X139075D02*X141075D01*
X139075Y138872D02*Y138122D01*
X140675Y137522D02*X141075Y137122D01*
X139075D02*X141075D01*
X139075Y137522D02*Y136772D01*
X134350Y140201D02*Y139551D01*
X134700Y140551D02*X134350Y140201D01*
X134700Y140551D02*X136000D01*
X136350Y140201D01*
Y139551D01*
X135950Y138951D02*X136350Y138551D01*
X134350D02*X136350D01*
X134350Y138951D02*Y138201D01*
X136100Y137601D02*X136350Y137351D01*
Y136601D01*
X136100Y136351D01*
X135600D02*X136100D01*
X134350Y137601D02*X135600Y136351D01*
X134350Y137601D02*Y136351D01*
G54D86*X21071Y161078D02*X24571D01*
X25071Y161578D01*
Y162578D02*Y161578D01*
Y162578D02*X24571Y163078D01*
X21071D02*X24571D01*
X21571Y164278D02*X21071Y164778D01*
Y165778D02*Y164778D01*
Y165778D02*X21571Y166278D01*
X25071Y165778D02*X24571Y166278D01*
X25071Y165778D02*Y164778D01*
X24571Y164278D02*X25071Y164778D01*
X22871Y165778D02*Y164778D01*
X21571Y166278D02*X22371D01*
X23371D02*X24571D01*
X23371D02*X22871Y165778D01*
X22371Y166278D02*X22871Y165778D01*
G54D89*X46425Y163894D02*Y163374D01*
X46705Y164174D02*X46425Y163894D01*
X46705Y164174D02*X47745D01*
X48025Y163894D01*
Y163374D01*
X47705Y162894D02*X48025Y162574D01*
X46425D02*X48025D01*
X46425Y162894D02*Y162294D01*
X47825Y161814D02*X48025Y161614D01*
Y161214D01*
X47825Y161014D01*
X46425Y161214D02*X46625Y161014D01*
X46425Y161614D02*Y161214D01*
X46625Y161814D02*X46425Y161614D01*
X47305D02*Y161214D01*
X47505Y161014D02*X47825D01*
X46625D02*X47105D01*
X47305Y161214D01*
X47505Y161014D02*X47305Y161214D01*
X48340Y178504D02*Y177704D01*
X48140Y177504D01*
X47740D02*X48140D01*
X47540Y177704D02*X47740Y177504D01*
X47540Y178304D02*Y177704D01*
X46740Y178304D02*X48340D01*
X47540Y177984D02*X46740Y177504D01*
X48020Y177024D02*X48340Y176704D01*
X46740D02*X48340D01*
X46740Y177024D02*Y176424D01*
X46940Y175944D02*X46740Y175744D01*
X46940Y175944D02*X48140D01*
X48340Y175744D01*
Y175344D01*
X48140Y175144D01*
X46940D02*X48140D01*
X46740Y175344D02*X46940Y175144D01*
X46740Y175744D02*Y175344D01*
X47140Y175944D02*X47940Y175144D01*
X99500Y205118D02*Y204118D01*
X99250Y203868D01*
X98750D02*X99250D01*
X98500Y204118D02*X98750Y203868D01*
X98500Y204868D02*Y204118D01*
X97500Y204868D02*X99500D01*
X98500Y204468D02*X97500Y203868D01*
X98250Y203268D02*X99500Y202268D01*
X98250Y203268D02*Y202018D01*
X97500Y202268D02*X99500D01*
G54D86*X91780Y199551D02*X92280Y199051D01*
X90280Y199551D02*X91780D01*
X89780Y199051D02*X90280Y199551D01*
X89780Y199051D02*Y198051D01*
X90280Y197551D01*
X91780D01*
X92280Y197051D01*
Y196051D01*
X91780Y195551D02*X92280Y196051D01*
X90280Y195551D02*X91780D01*
X89780Y196051D02*X90280Y195551D01*
X93480Y197051D02*X95480Y199551D01*
X93480Y197051D02*X95980D01*
X95480Y199551D02*Y195551D01*
M02*
