M48
INCH
T61C0.130
T60C0.012
T59C0.056
T58C0.042
T57C0.080
T56C0.038
T55C0.012
T54C0.029
%
T60
X018661Y014921
X018622Y013976
X018150Y013976
X018150Y014842
X012126Y012953
X023858Y012835
X018819Y012913
X023504Y012992
X015118Y015787
X015984Y015158
X016378Y013071
X020039Y014252
X020039Y013661
X005748Y017323
X011063Y017047
X002441Y015984
X023858Y014488
X023150Y017362
X023858Y016772
X024134Y015945
X025000Y014016
X024449Y018740
X026220Y017047
X025630Y015197
X025630Y021614
X023150Y013543
X023189Y012677
X022835Y012402
X022480Y012087
X022126Y011772
X026614Y002283
X026220Y002283
X021614Y011496
X021102Y011220
X012126Y012480
X015984Y013425
X015945Y012677
X015551Y012402
X015158Y012126
X014764Y011850
X014370Y011575
X013976Y011299
X010039Y011142
X011299Y010276
X010079Y010315
X009606Y010315
X009134Y010315
X011575Y011220
X011575Y015866
X012165Y015236
X012165Y014724
X014803Y017362
X016181Y017362
X015984Y015945
X014213Y015709
X015512Y015787
X016378Y015945
T55
X019261Y014370
X019561Y012370
X018661Y014370
X018361Y012370
T54
X019331Y007284
X020118Y007284
X020906Y007284
X021693Y007284
X022480Y007284
X023268Y007284
X024055Y007284
X024842Y007284
X006732Y007284
X007520Y007284
X008307Y007284
X009094Y007284
X009882Y007284
X010669Y007284
X011457Y007284
X012244Y007284
X013032Y007284
X013819Y007284
X014606Y007284
X015394Y007284
X016181Y007284
X016968Y007284
X017756Y007284
X018543Y007284
X008425Y019842
X008425Y022402
X006654Y019842
X006654Y022402
X013937Y019842
X012165Y019842
X019409Y019842
X017638Y019842
X013937Y022402
X012165Y022402
X019409Y022402
X017638Y022402
X024921Y022402
X023150Y022402
X024921Y019842
X023150Y019842
X024842Y018284
X024055Y018284
X023268Y018284
X022480Y018284
X021693Y018284
X020906Y018284
X020118Y018284
X019331Y018284
X018543Y018284
X017756Y018284
X016968Y018284
X016181Y018284
X015394Y018284
X014606Y018284
X013819Y018284
X013032Y018284
X012244Y018284
X011457Y018284
X010669Y018284
X009882Y018284
X009094Y018284
X008307Y018284
X007520Y018284
X006732Y018284
T56
X028346Y018819
X029346Y018819
X028346Y017819
X029346Y017819
X028346Y016819
X029346Y016819
X028346Y015819
X029346Y015819
X028346Y014819
X029346Y014819
X028346Y013819
X029346Y013819
X028346Y012819
X029346Y012819
X026850Y011338
X026850Y010338
X026850Y009338
X026850Y008338
X026850Y007338
X026850Y006338
T58
X003307Y018008
X003307Y017008
X003307Y016008
T59
X003386Y007756
X003386Y009724
T57
X025364Y001611
X006171Y001611
T61
X001968Y001968
X001968Y021654
X029528Y021654
X029528Y001968
M30
